<?xml version="1.0" encoding="UTF-8"?>
<svg version="1.1" xmlns="http://www.w3.org/2000/svg" width="512" height="512">
<path d="M0 0 C1.38691544 -0.01441132 1.38691544 -0.01441132 2.80184937 -0.02911377 C3.79874786 -0.03336365 4.79564636 -0.03761353 5.82275391 -0.04199219 C6.84986481 -0.04769226 7.87697571 -0.05339233 8.93521118 -0.05926514 C11.10897797 -0.06871352 13.28275906 -0.07524847 15.45654297 -0.07910156 C18.77938851 -0.08880897 22.101616 -0.11983504 25.42431641 -0.15136719 C27.5362919 -0.15789719 29.64827182 -0.16314767 31.76025391 -0.16699219 C32.75310394 -0.17933899 33.74595398 -0.19168579 34.76889038 -0.20440674 C43.6031289 -0.17592677 43.6031289 -0.17592677 47.42431641 3.16113281 C48.61181641 6.14550781 48.61181641 6.14550781 49.42431641 9.91113281 C49.5897998 10.5948999 49.7552832 11.27866699 49.92578125 11.9831543 C50.94850472 16.33475176 51.62699286 20.64815749 52.15087891 25.08691406 C53.46943064 36.59436641 53.46943064 36.59436641 59.97509766 45.67675781 C64.60181445 48.48719044 69.00830587 49.79964572 74.42431641 49.16113281 C81.66139831 46.50879255 87.70201771 41.82224552 93.7590332 37.16137695 C105.2226445 28.55815562 105.2226445 28.55815562 111.23681641 27.47363281 C117.42186696 28.80766332 121.80746124 33.22948212 126.29931641 37.47363281 C127.35467365 38.45608335 128.4106635 39.43785477 129.46728516 40.41894531 C129.97437012 40.89106445 130.48145508 41.36318359 131.00390625 41.84960938 C132.84471836 43.54930732 134.7213678 45.20443503 136.61181641 46.84863281 C137.53220703 47.64914063 137.53220703 47.64914063 138.47119141 48.46582031 C139.11572266 49.02527344 139.76025391 49.58472656 140.42431641 50.16113281 C142.07340633 51.59489571 143.71919435 53.0324644 145.36181641 54.47363281 C146.11333984 55.12976562 146.86486328 55.78589844 147.63916016 56.46191406 C150.11175936 58.81548223 150.39136662 59.87485944 150.78759766 63.31738281 C150.3198193 68.26677959 148.5174935 70.75312863 145.61181641 74.66113281 C145.1285791 75.35400391 144.6453418 76.046875 144.14746094 76.76074219 C141.61133021 80.3578822 138.97034888 83.72641577 135.99853516 86.97363281 C131.34755495 92.04219895 131.34755495 92.04219895 128.42431641 98.16113281 C128.89431664 102.90181857 131.1234931 106.85050698 133.50634766 110.89550781 C135.42431641 114.16113281 135.42431641 114.16113281 135.42431641 117.16113281 C136.05160645 117.2057666 136.67889648 117.25040039 137.32519531 117.29638672 C145.2371577 117.93008756 152.9874406 119.1502879 160.79931641 120.53613281 C162.04326172 120.74496094 163.28720703 120.95378906 164.56884766 121.16894531 C165.76638672 121.38035156 166.96392578 121.59175781 168.19775391 121.80957031 C169.27460449 121.99696777 170.35145508 122.18436523 171.4609375 122.37744141 C175.56541125 123.4629053 178.43291 125.1697264 181.42431641 128.16113281 C181.68501282 130.19699097 181.68501282 130.19699097 181.69897461 132.73095703 C181.70850662 133.6788913 181.71803864 134.62682556 181.7278595 135.60348511 C181.72649239 137.14409103 181.72649239 137.14409103 181.72509766 138.71582031 C181.72938278 139.76891388 181.73366791 140.82200745 181.73808289 141.90701294 C181.74383395 144.13803386 181.74432076 146.36907353 181.73999023 148.60009766 C181.73683565 152.01529991 181.76026174 155.42963185 181.78564453 158.84472656 C181.78791796 161.01009005 181.78862082 163.17545587 181.78759766 165.34082031 C181.7968074 166.36384247 181.80601715 167.38686462 181.81550598 168.44088745 C181.8061628 169.87224533 181.8061628 169.87224533 181.79663086 171.33251953 C181.79726028 172.17031952 181.79788971 173.00811951 181.79853821 173.87130737 C181.33763783 176.69151028 180.33639348 178.06854106 178.42431641 180.16113281 C176.51757812 180.93481445 176.51757812 180.93481445 174.35400391 181.32128906 C173.14466187 181.54993652 173.14466187 181.54993652 171.91088867 181.78320312 C171.04906982 181.92854492 170.18725098 182.07388672 169.29931641 182.22363281 C168.4136499 182.38573242 167.5279834 182.54783203 166.61547852 182.71484375 C164.78565586 183.04750907 162.95448082 183.37281592 161.12207031 183.69091797 C158.57692416 184.13453349 156.03759316 184.60202891 153.49853516 185.07910156 C151.99480095 185.35737662 150.49090259 185.63476657 148.98681641 185.91113281 C148.2963623 186.03883057 147.6059082 186.16652832 146.89453125 186.2980957 C143.3621422 186.92220666 140.01201497 187.29938709 136.42431641 187.16113281 C136.36244141 187.92425781 136.30056641 188.68738281 136.23681641 189.47363281 C135.26108586 193.90194836 133.39144263 197.47966653 131.28759766 201.47753906 C130.20412667 204.07957046 130.20412667 204.07957046 130.92431641 206.48925781 C133.06472837 210.30186662 135.55115466 213.80851502 138.11181641 217.34863281 C138.64911377 218.1038623 139.18641113 218.8590918 139.73999023 219.63720703 C142.04001962 222.86756593 144.3606239 226.07603015 146.73681641 229.25097656 C153.02517926 237.75336717 153.02517926 237.75336717 152.42431641 243.16113281 C150.50485432 246.24550982 148.01430586 248.63291482 145.42431641 251.16113281 C144.55419922 252.05445313 143.68408203 252.94777344 142.78759766 253.86816406 C138.11883077 258.62809237 133.35362319 263.20283444 128.27587891 267.52832031 C125.6771425 269.82003301 123.27356672 272.28493365 120.86962891 274.77832031 C118.73212854 276.82338823 117.38251649 277.16809947 114.42431641 277.66113281 C109.83088047 277.55822488 107.13832092 275.12206996 103.57666016 272.43847656 C99.56849496 269.54286279 95.39732203 266.97922865 91.17431641 264.41113281 C90.40563232 263.93957764 89.63694824 263.46802246 88.8449707 262.98217773 C87.37405673 262.08742895 85.89612686 261.20408818 84.41064453 260.33374023 C82.72813756 259.34049036 81.07966861 258.28992776 79.43994141 257.22753906 C73.55965689 255.14811203 68.08418794 257.26400516 62.60791016 259.82128906 C57.6880113 262.95875559 56.5636941 266.8307052 55.17236328 272.32446289 C54.28746559 276.79275502 53.56384441 281.26521446 52.92871094 285.77539062 C52.40149098 289.31434822 51.77187096 292.80603693 51.04541016 296.30957031 C50.83198975 297.36063965 50.61856934 298.41170898 50.39868164 299.49462891 C49.235187 302.67871523 48.29392815 303.43183934 45.42431641 305.16113281 C43.03405762 305.55554199 43.03405762 305.55554199 40.35205078 305.58105469 C39.34420532 305.59696655 38.33635986 305.61287842 37.29797363 305.62927246 C36.21560425 305.62947388 35.13323486 305.62967529 34.01806641 305.62988281 C32.3427887 305.6413031 32.3427887 305.6413031 30.63366699 305.6529541 C28.27337886 305.66375501 25.91304293 305.66660826 23.55273438 305.66210938 C19.93750615 305.66113636 16.3243948 305.70277583 12.70947266 305.74707031 C10.41650834 305.75227668 8.12353663 305.75496552 5.83056641 305.75488281 C4.74819702 305.77127808 3.66582764 305.78767334 2.55065918 305.80456543 C-4.82933838 305.73642604 -4.82933838 305.73642604 -8.18554688 303.14941406 C-9.94726904 299.36236115 -10.63267577 295.86743702 -11.22412109 291.75488281 C-11.5089654 290.1072406 -11.79682001 288.46011649 -12.08740234 286.81347656 C-12.52889066 284.23575447 -12.95074358 281.66071367 -13.32128906 279.07177734 C-14.42326764 270.7945713 -14.42326764 270.7945713 -17.57568359 263.16113281 C-22.10717808 260.06526557 -26.14456828 259.05409553 -31.57568359 258.16113281 C-32.2948999 257.92152832 -33.01411621 257.68192383 -33.75512695 257.43505859 C-36.3683282 257.0418694 -37.47724297 257.94750813 -39.66552734 259.37207031 C-40.4436377 259.87125977 -41.22174805 260.37044922 -42.0234375 260.88476562 C-42.84505371 261.4297168 -43.66666992 261.97466797 -44.51318359 262.53613281 C-45.36058105 263.08108398 -46.20797852 263.62603516 -47.08105469 264.1875 C-51.52823159 267.06800988 -55.84877178 270.06513628 -60.09667969 273.22998047 C-68.75073835 279.60263432 -68.75073835 279.60263432 -74.54443359 278.89941406 C-78.76002629 277.36720825 -81.48079037 274.29961608 -84.57568359 271.16113281 C-85.99819458 269.85050472 -87.42118569 268.54034376 -88.85375977 267.24072266 C-90.39930299 265.83854485 -91.93561018 264.42682951 -93.47021484 263.01269531 C-97.35897949 259.43566753 -101.2797279 255.89423565 -105.20068359 252.35253906 C-105.98443359 251.629375 -106.76818359 250.90621094 -107.57568359 250.16113281 C-108.33880859 249.53078125 -109.10193359 248.90042969 -109.88818359 248.25097656 C-112.19114983 245.39892347 -111.89328388 243.76467458 -111.57568359 240.16113281 C-110.41748047 237.72680664 -110.41748047 237.72680664 -108.79443359 235.36816406 C-108.20275391 234.49546875 -107.61107422 233.62277344 -107.00146484 232.72363281 C-106.36595703 231.81613281 -105.73044922 230.90863281 -105.07568359 229.97363281 C-104.44017578 229.0390625 -103.80466797 228.10449219 -103.14990234 227.14160156 C-99.19389577 221.35664694 -95.1049943 215.72078286 -90.63818359 210.31738281 C-89.28712323 208.1722635 -89.28712323 208.1722635 -90.22412109 205.73144531 C-90.67013672 204.88324219 -91.11615234 204.03503906 -91.57568359 203.16113281 C-92.00107422 202.24074219 -92.42646484 201.32035156 -92.86474609 200.37207031 C-93.75832554 198.47517359 -94.65417498 196.57934462 -95.55224609 194.68457031 C-96.57568359 192.16113281 -96.57568359 192.16113281 -96.57568359 189.16113281 C-97.85958984 188.979375 -99.14349609 188.79761719 -100.46630859 188.61035156 C-103.20142602 188.22311981 -105.93592971 187.83256156 -108.66943359 187.43408203 C-113.52390814 186.7274899 -118.37677213 186.05432305 -123.24755859 185.46972656 C-124.14313477 185.3547583 -125.03871094 185.23979004 -125.96142578 185.12133789 C-127.66833087 184.90247529 -129.3774038 184.69974458 -131.08837891 184.51538086 C-132.25771973 184.35936401 -132.25771973 184.35936401 -133.45068359 184.20019531 C-134.12873047 184.11979004 -134.80677734 184.03938477 -135.50537109 183.95654297 C-138.93927068 182.63724523 -140.39076079 181.14240094 -142.57568359 178.16113281 C-143.30322594 174.54362385 -143.25281726 170.99317538 -143.20458984 167.31347656 C-143.2070018 166.26462784 -143.20941376 165.21577911 -143.2118988 164.13514709 C-143.21092091 161.92200939 -143.19754125 159.70884707 -143.17260742 157.49584961 C-143.13826575 154.10674109 -143.15196096 150.72023526 -143.17138672 147.33105469 C-143.16448917 145.17935087 -143.15481762 143.02765379 -143.14208984 140.87597656 C-143.14704971 139.86236557 -143.15200958 138.84875458 -143.15711975 137.8044281 C-143.04228714 130.95525615 -143.04228714 130.95525615 -141.07763672 127.61157227 C-137.50208802 125.5387449 -134.02725965 124.90880649 -129.97802734 124.23925781 C-129.14735245 124.08954529 -128.31667755 123.93983276 -127.46083069 123.7855835 C-124.81399673 123.3125687 -122.1638807 122.86193655 -119.51318359 122.41113281 C-117.72582583 122.09351702 -115.93871264 121.7745216 -114.15185547 121.45410156 C-101.21388344 119.16113281 -101.21388344 119.16113281 -97.57568359 119.16113281 C-97.39392578 118.50886719 -97.21216797 117.85660156 -97.02490234 117.18457031 C-95.87272777 113.17854796 -94.78023669 109.54832261 -92.82568359 105.84863281 C-91.31164897 102.59345838 -91.60732527 101.55543049 -92.57568359 98.16113281 C-95.37545838 92.67357424 -99.08886167 87.73278812 -102.89599609 82.91113281 C-103.48026367 82.16831055 -104.06453125 81.42548828 -104.66650391 80.66015625 C-105.83750944 79.18406115 -107.02143218 77.71810347 -108.21923828 76.26367188 C-111.65416639 71.94830364 -113.4689181 68.88376304 -113.57568359 63.16113281 C-112.19924019 59.49061707 -109.86729835 57.47148473 -106.95849609 54.98144531 C-102.67059658 51.2666545 -98.51809652 47.42496948 -94.38818359 43.53613281 C-93.36047852 42.57320312 -93.36047852 42.57320312 -92.31201172 41.59082031 C-88.67180682 38.17134007 -85.08470577 34.71506021 -81.57568359 31.16113281 C-79.57568359 29.16113281 -79.57568359 29.16113281 -75.67333984 29.11425781 C-69.25884826 29.9919358 -64.35811258 33.45737883 -59.01318359 36.91113281 C-58.02382812 37.53246094 -57.03447266 38.15378906 -56.01513672 38.79394531 C-48.37557732 43.5997199 -48.37557732 43.5997199 -45.29101562 45.76464844 C-41.26936481 48.55775797 -41.26936481 48.55775797 -36.49755859 49.13378906 C-33.22769095 48.04529034 -30.02127658 46.89085993 -26.82568359 45.59863281 C-20.77681674 43.16113281 -20.77681674 43.16113281 -18.57568359 43.16113281 C-18.46538818 42.45150391 -18.35509277 41.741875 -18.24145508 41.01074219 C-16.98180841 33.15820051 -15.40703549 25.41378342 -13.63818359 17.66113281 C-13.38617188 16.50871094 -13.13416016 15.35628906 -12.87451172 14.16894531 C-12.6225 13.06292969 -12.37048828 11.95691406 -12.11083984 10.81738281 C-11.8879126 9.82544922 -11.66498535 8.83351563 -11.43530273 7.81152344 C-10.53037575 5.021439 -9.56924159 3.30178413 -7.57568359 1.16113281 C-4.7384986 0.21540448 -2.94329522 0.02471305 0 0 Z M4.42431641 17.16113281 C3.89322266 19.71347656 3.36212891 22.26582031 2.81494141 24.89550781 C2.28891587 27.37188136 1.75774859 29.84709952 1.22607422 32.32226562 C0.86000502 34.03987526 0.49927201 35.75863137 0.14404297 37.47851562 C-0.36824042 39.954075 -0.89973012 42.42484301 -1.43505859 44.89550781 C-1.66657623 46.04572418 -1.66657623 46.04572418 -1.902771 47.21917725 C-2.88840311 51.66104129 -3.89656508 54.3964501 -7.57568359 57.16113281 C-9.43164062 58.08666992 -9.43164062 58.08666992 -11.33349609 58.68847656 C-12.03684082 58.92099121 -12.74018555 59.15350586 -13.46484375 59.39306641 C-14.2026709 59.62590332 -14.94049805 59.85874023 -15.70068359 60.09863281 C-21.56156049 62.03402737 -26.96355802 64.12273888 -32.30224609 67.27832031 C-35.69967887 68.59759833 -37.93638627 68.61791704 -41.57568359 68.16113281 C-44.82539629 66.63041172 -47.73333732 64.67641669 -50.70068359 62.66113281 C-52.3760378 61.56152357 -54.05182132 60.46256814 -55.72802734 59.36425781 C-56.5464209 58.82091797 -57.36481445 58.27757812 -58.20800781 57.71777344 C-61.51610723 55.54284646 -64.88138397 53.46886701 -68.26318359 51.41113281 C-69.29830078 50.77691406 -70.33341797 50.14269531 -71.39990234 49.48925781 C-72.47691406 48.83183594 -72.47691406 48.83183594 -73.57568359 48.16113281 C-81.08636528 53.36083552 -87.23781102 59.63312406 -93.57568359 66.16113281 C-92.02974965 70.63754594 -89.60450559 74.34393365 -86.95068359 78.22363281 C-86.50990479 78.87976563 -86.06912598 79.53589844 -85.61499023 80.21191406 C-83.50169735 83.35388165 -81.36261452 86.47397361 -79.17333984 89.56347656 C-78.46048828 90.58570312 -77.74763672 91.60792969 -77.01318359 92.66113281 C-76.37251953 93.55832031 -75.73185547 94.45550781 -75.07177734 95.37988281 C-73.26785147 98.73339514 -72.7462179 101.36565124 -72.57568359 105.16113281 C-73.39599609 107.20800781 -73.39599609 107.20800781 -74.70068359 108.91113281 C-78.91431308 114.95066842 -81.87092968 121.57189196 -83.82568359 128.66113281 C-85.57568359 132.16113281 -85.57568359 132.16113281 -89.14990234 133.68066406 C-96.33163712 135.84020669 -103.76730293 137.02319241 -111.13818359 138.34863281 C-112.6389436 138.62342899 -114.13959575 138.89881496 -115.64013672 139.17480469 C-119.2839605 139.84481756 -122.92967845 140.50267835 -126.57568359 141.16113281 C-126.57568359 150.07113281 -126.57568359 158.98113281 -126.57568359 168.16113281 C-124.41005859 168.57363281 -122.24443359 168.98613281 -120.01318359 169.41113281 C-118.88831543 169.62624512 -118.88831543 169.62624512 -117.74072266 169.84570312 C-113.33542893 170.67646277 -108.92422307 171.43690804 -104.49755859 172.14550781 C-103.46574463 172.31405273 -102.43393066 172.48259766 -101.37084961 172.65625 C-99.31823548 172.98972522 -97.26401692 173.31348717 -95.20825195 173.62695312 C-94.26087158 173.78260742 -93.31349121 173.93826172 -92.33740234 174.09863281 C-91.49137451 174.23140625 -90.64534668 174.36417969 -89.77368164 174.50097656 C-87.22276785 175.26712905 -86.21486168 176.08562674 -84.57568359 178.16113281 C-83.5572803 180.48891176 -82.63624546 182.78080935 -81.76318359 185.16113281 C-79.55428011 190.99522845 -76.99509959 196.29006721 -73.67724609 201.59863281 C-72.1523593 205.1458872 -72.05262667 207.31465266 -72.57568359 211.16113281 C-74.10345258 214.3011762 -76.04825906 217.07491459 -78.07568359 219.91113281 C-78.61870117 220.69810547 -79.16171875 221.48507813 -79.72119141 222.29589844 C-83.45166122 227.67430494 -87.28940363 232.97920311 -91.24755859 238.19238281 C-92.76209921 240.04165891 -92.76209921 240.04165891 -92.57568359 242.16113281 C-90.11283778 244.70866101 -87.28891391 246.88593184 -84.57568359 249.16113281 C-83.65013672 249.98484375 -82.72458984 250.80855469 -81.77099609 251.65722656 C-80.81966797 252.48351562 -79.86833984 253.30980469 -78.88818359 254.16113281 C-77.99744141 254.94488281 -77.10669922 255.72863281 -76.18896484 256.53613281 C-73.75988876 258.4045264 -73.75988876 258.4045264 -71.27148438 257.98095703 C-68.03461395 256.99658727 -65.65746257 255.52730803 -62.82958984 253.66894531 C-61.74484375 252.96382812 -60.66009766 252.25871094 -59.54248047 251.53222656 C-58.40740046 250.78400536 -57.27263724 250.03530337 -56.13818359 249.28613281 C-53.91307026 247.82611148 -51.68433207 246.37191681 -49.45458984 244.91894531 C-48.47047119 244.27070801 -47.48635254 243.6224707 -46.47241211 242.95458984 C-38.64803788 238.11027016 -38.64803788 238.11027016 -34.61083984 238.30175781 C-30.62605332 239.4300114 -26.96520075 241.02843364 -23.19750977 242.73217773 C-17.99507212 245.05232183 -12.69142305 246.80055297 -7.22021484 248.39941406 C-1.49733142 252.21185191 -1.29772539 260.27953225 0.02978516 266.60253906 C0.56413465 269.30819614 1.09012399 272.01550677 1.61181641 274.72363281 C2.53994141 279.48800781 3.46806641 284.25238281 4.42431641 289.16113281 C14.32431641 289.16113281 24.22431641 289.16113281 34.42431641 289.16113281 C35.20742188 285.11605469 35.20742188 285.11605469 36.00634766 280.98925781 C36.54771635 278.37204029 37.10564741 275.75887241 37.6652832 273.14550781 C38.04406427 271.33331304 38.40563253 269.5174288 38.74926758 267.69824219 C41.620265 252.59555648 41.620265 252.59555648 45.921875 249.17529297 C48.7759488 248.14340897 51.42736501 247.60477352 54.42431641 247.16113281 C55.85687941 246.66019527 57.27652155 246.11937423 58.67431641 245.52832031 C59.30208984 245.27953125 59.92986328 245.03074219 60.57666016 244.77441406 C61.18638672 244.53078125 61.79611328 244.28714844 62.42431641 244.03613281 C63.06498047 243.78476563 63.70564453 243.53339844 64.36572266 243.27441406 C67.29879518 242.10485905 69.78371806 240.92153171 72.42431641 239.16113281 C81.52141914 237.70338207 87.49756563 242.24900002 94.79931641 247.03613281 C95.9843374 247.79188765 97.17052875 248.54581066 98.35791016 249.29785156 C102.41020846 251.87367739 106.42907134 254.4976361 110.42431641 257.16113281 C114.08775656 256.88271136 115.73575539 255.14599771 118.17431641 252.53613281 C121.53847058 249.02708061 125.03695113 245.82663237 128.76025391 242.70410156 C130.65516552 241.06724948 130.65516552 241.06724948 132.42431641 238.16113281 C131.83005859 237.40832031 131.23580078 236.65550781 130.62353516 235.87988281 C125.70501291 229.60089691 120.91896313 223.22586329 116.29931641 216.72363281 C115.81422607 216.06234375 115.32913574 215.40105469 114.8293457 214.71972656 C112.7884255 211.80317742 111.52226026 209.70158558 110.88134766 206.16503906 C111.60705111 202.15017608 113.26846864 199.07787228 115.23681641 195.53613281 C118.41503388 189.59846342 120.4789168 184.24995085 121.46337891 177.51660156 C122.89569424 174.00568226 124.97556935 173.61947124 128.42431641 172.16113281 C131.21800236 171.39297188 134.0358425 170.85532509 136.88525391 170.33691406 C137.67582184 170.18578659 138.46638977 170.03465912 139.28091431 169.87895203 C141.78554828 169.40213333 144.29229354 168.937709 146.79931641 168.47363281 C148.5065026 168.15088361 150.21353582 167.82732415 151.92041016 167.50292969 C156.08646275 166.71142018 160.25514909 165.93674243 164.42431641 165.16113281 C164.42431641 156.25113281 164.42431641 147.34113281 164.42431641 138.16113281 C161.57162109 137.70222656 158.71892578 137.24332031 155.77978516 136.77050781 C153.01891336 136.31445588 150.25907437 135.85258445 147.49926758 135.39013672 C145.58067387 135.07185813 143.66106458 134.75963983 141.74047852 134.45361328 C138.97985029 134.01265483 136.22360879 133.55002636 133.46728516 133.08300781 C132.60781784 132.9505365 131.74835052 132.81806519 130.86283875 132.68157959 C124.92395006 131.64422108 124.92395006 131.64422108 122.44848633 129.25073242 C120.96508857 126.22417665 119.72619529 123.12809274 118.54931641 119.97363281 C116.56353718 114.7711418 114.43964686 110.02346187 111.30712891 105.38378906 C109.9401766 101.94221445 109.77998486 98.76017286 110.42431641 95.16113281 C111.73258555 92.33142949 113.48237252 89.95106749 115.36181641 87.47363281 C116.36714257 86.08439516 117.37234895 84.69507081 118.37744141 83.30566406 C118.88597656 82.61682129 119.39451172 81.92797852 119.91845703 81.21826172 C122.21677037 78.07857492 124.41163631 74.86993479 126.61181641 71.66113281 C127.88237646 69.82761008 129.15309763 67.9941989 130.42431641 66.16113281 C124.79527172 59.0846195 118.1146173 53.20622665 111.42431641 47.16113281 C106.46650513 48.86970124 102.22868862 51.59971743 97.79931641 54.34863281 C96.99969482 54.83750977 96.20007324 55.32638672 95.3762207 55.83007812 C91.88081007 57.97555898 88.41186823 60.13380243 85.04541016 62.47753906 C84.11857422 63.115625 83.19173828 63.75371094 82.23681641 64.41113281 C81.45951172 64.97316406 80.68220703 65.53519531 79.88134766 66.11425781 C75.293403 68.06905776 71.32245662 66.48543425 66.81103516 64.85644531 C65.57505365 64.33991327 64.34202076 63.81627701 63.11181641 63.28613281 C57.93268251 61.11873596 52.83723547 59.26436258 47.37744141 57.89941406 C44.9741241 56.99096012 44.03892175 56.17156653 42.42431641 54.16113281 C41.56469727 51.39306641 41.56469727 51.39306641 40.88916016 48.05957031 C40.51114258 46.24005859 40.51114258 46.24005859 40.12548828 44.38378906 C39.7474707 42.47919922 39.7474707 42.47919922 39.36181641 40.53613281 C38.85022945 38.04391826 38.33851348 35.55173018 37.82666016 33.05957031 C37.49396118 31.39933838 37.49396118 31.39933838 37.15454102 29.70556641 C36.29103998 25.51422302 35.35264174 21.33859681 34.42431641 17.16113281 C24.52431641 17.16113281 14.62431641 17.16113281 4.42431641 17.16113281 Z " fill="#000000" transform="translate(151.57568359375,6.8388671875)"/>
<path d="M0 0 C1.27006897 -0.00717545 1.27006897 -0.00717545 2.5657959 -0.01449585 C4.3510118 -0.01788925 6.13629032 -0.00872591 7.92138672 0.01220703 C10.64822423 0.03898369 13.3709462 0.01244352 16.09765625 -0.01953125 C17.83594655 -0.01622705 19.5742343 -0.00982059 21.3125 0 C22.52987854 -0.01518173 22.52987854 -0.01518173 23.77185059 -0.03067017 C27.89171362 0.05428722 29.69494701 0.32606341 33.11010742 2.82836914 C35.33376065 5.91006969 36.08090274 7.977734 36.73828125 11.69921875 C36.94775391 12.83810547 37.15722656 13.97699219 37.37304688 15.15039062 C37.56962891 16.33052734 37.76621094 17.51066406 37.96875 18.7265625 C38.18466797 19.91056641 38.40058594 21.09457031 38.62304688 22.31445312 C39.43075447 26.84017982 40.15625 31.05786999 40.15625 35.6640625 C40.75953125 35.79683594 41.3628125 35.92960937 41.984375 36.06640625 C42.78359375 36.24300781 43.5828125 36.41960937 44.40625 36.6015625 C45.19515625 36.77558594 45.9840625 36.94960938 46.796875 37.12890625 C49.15625 37.6640625 49.15625 37.6640625 51.078125 38.33081055 C53.16162927 38.86136705 53.16162927 38.86136705 54.95214844 37.84716797 C55.5505957 37.41291504 56.14904297 36.97866211 56.765625 36.53125 C57.43851563 36.05429687 58.11140625 35.57734375 58.8046875 35.0859375 C59.84496094 34.32023437 59.84496094 34.32023437 60.90625 33.5390625 C69.31024165 27.49969207 69.31024165 27.49969207 73.44140625 24.8046875 C74.37932007 24.19028809 74.37932007 24.19028809 75.33618164 23.56347656 C77.15625 22.6640625 77.15625 22.6640625 80.84375 22.5390625 C84.83156831 23.89341589 86.26315421 25.6198035 89.15625 28.6640625 C90.18233533 29.70695253 91.21109613 30.74721536 92.2421875 31.78515625 C92.77739014 32.325354 93.31259277 32.86555176 93.86401367 33.42211914 C99.90490694 39.53801402 99.90490694 39.53801402 106.34375 45.2265625 C110.09375 48.4765625 110.09375 48.4765625 111.15625 51.6640625 C111.46128466 60.13966847 104.98852622 66.56587838 100.17578125 73.0390625 C96.31337675 78.18845505 96.31337675 78.18845505 95.34887695 84.2878418 C96.11217048 86.55658997 97.04384367 88.55001852 98.15625 90.6640625 C98.52854359 92.32246124 98.8856069 93.98607525 99.15625 95.6640625 C99.75848389 95.71594727 100.36071777 95.76783203 100.98120117 95.82128906 C107.20932815 96.39573088 113.32334706 97.25508157 119.46875 98.4140625 C120.33564453 98.5584375 121.20253906 98.7028125 122.09570312 98.8515625 C122.93681641 99.01140625 123.77792969 99.17125 124.64453125 99.3359375 C125.39259033 99.4709668 126.14064941 99.60599609 126.91137695 99.74511719 C130.30622607 101.13480855 131.93459904 102.739105 134.15625 105.6640625 C134.85949506 108.63270341 134.8346242 111.50314183 134.78515625 114.54296875 C134.78756821 115.39205307 134.78998016 116.24113739 134.79246521 117.11595154 C134.7914884 118.90539231 134.77813435 120.69486391 134.75317383 122.48413086 C134.71881249 125.221584 134.73253444 127.95581653 134.75195312 130.69335938 C134.74505568 132.43490955 134.73538421 134.17645142 134.72265625 135.91796875 C134.72761612 136.73471573 134.73257599 137.55146271 134.73768616 138.39295959 C134.66483378 141.90930896 134.47949235 144.19989718 132.44433594 147.12231445 C129.89794566 148.838112 127.98764964 149.48947615 124.98046875 150.078125 C123.49063477 150.38363281 123.49063477 150.38363281 121.97070312 150.6953125 C120.93880859 150.89125 119.90691406 151.0871875 118.84375 151.2890625 C114.94506135 152.06732252 111.04987307 152.86088881 107.15625 153.6640625 C106.43010498 153.79804443 105.70395996 153.93202637 104.95581055 154.07006836 C101.72793409 154.77852381 100.39904222 155.30249423 98.52734375 158.08984375 C98.21925781 159.04246094 97.91117188 159.99507812 97.59375 160.9765625 C97.26246094 161.92144531 96.93117188 162.86632812 96.58984375 163.83984375 C95.81017606 168.91821979 98.53817497 172.45750565 101.4140625 176.46484375 C102.03925781 177.36009766 102.66445313 178.25535156 103.30859375 179.17773438 C104.62079438 181.03950022 105.94370817 182.89376242 107.27734375 184.74023438 C112.59314406 192.4167783 112.59314406 192.4167783 112.875 196.98046875 C112.00653614 201.43134604 110.7219403 203.0983722 107.53125 206.2890625 C106.80820679 207.02733276 106.80820679 207.02733276 106.07055664 207.78051758 C105.01932923 208.84804309 103.95874658 209.90641786 102.89013672 210.95654297 C101.03099947 212.78740835 99.20382692 214.64677177 97.37890625 216.51171875 C86.52487156 227.54373403 86.52487156 227.54373403 81.88232422 227.9519043 C77.58154647 227.61966626 75.94358934 226.63350414 72.5390625 224.05859375 C71.00958984 222.95547852 71.00958984 222.95547852 69.44921875 221.83007812 C67.33663368 220.26061758 65.23241203 218.67983652 63.13671875 217.08789062 C57.83017839 212.97202717 57.83017839 212.97202717 51.5012207 211.82104492 C49.22725772 212.58655337 47.26085952 213.52344952 45.15625 214.6640625 C43.49785126 215.03635609 41.83423725 215.3934194 40.15625 215.6640625 C40.07842285 216.56741333 40.07842285 216.56741333 39.99902344 217.48901367 C39.42458162 223.71714065 38.56523093 229.83115956 37.40625 235.9765625 C37.261875 236.84345703 37.1175 237.71035156 36.96875 238.60351562 C36.72898437 239.86518555 36.72898437 239.86518555 36.484375 241.15234375 C36.3493457 241.90040283 36.21431641 242.64846191 36.07519531 243.41918945 C34.68880808 246.80596698 33.06865159 248.44388808 30.15625 250.6640625 C27.25776177 251.35426235 24.46423663 251.3191905 21.49609375 251.2578125 C20.25576134 251.25787292 20.25576134 251.25787292 18.9903717 251.25793457 C17.24797943 251.25258858 15.50558702 251.23504504 13.76342773 251.20605469 C11.09869666 251.16414031 8.43649008 251.16499313 5.77148438 251.171875 C4.0755033 251.16138367 2.37953522 251.14844587 0.68359375 251.1328125 C-0.11127945 251.13261108 -0.90615265 251.13240967 -1.72511292 251.13220215 C-4.90096345 251.06431226 -7.41382986 250.87536971 -10.28613281 249.46362305 C-12.28537662 247.15383839 -12.71216373 245.39576298 -13.29296875 242.40234375 C-13.50115234 241.36529297 -13.70933594 240.32824219 -13.92382812 239.25976562 C-14.12427734 238.17630859 -14.32472656 237.09285156 -14.53125 235.9765625 C-14.84932617 234.38038086 -14.84932617 234.38038086 -15.17382812 232.75195312 C-16.28596608 227.07198044 -17.2107359 221.41683896 -17.84375 215.6640625 C-19.40134343 215.12873427 -20.96513045 214.61140872 -22.53125 214.1015625 C-23.40136719 213.81152344 -24.27148438 213.52148438 -25.16796875 213.22265625 C-28.90706676 212.44208542 -31.2548344 212.67888467 -34.54516602 214.71899414 C-36.49547969 216.09295641 -38.39166537 217.52028242 -40.28125 218.9765625 C-54.19185016 229.51066793 -54.19185016 229.51066793 -60.84375 228.6640625 C-65.45434379 226.40533726 -68.64367875 223.059721 -72.15625 219.4140625 C-75.80096009 215.69057849 -79.43160782 212.04101413 -83.40625 208.6640625 C-89.04778328 203.78748289 -89.04778328 203.78748289 -90.84375 200.6640625 C-90.5725752 194.82666807 -88.70731427 191.07110839 -85.65625 186.2890625 C-85.25639893 185.63131836 -84.85654785 184.97357422 -84.44458008 184.29589844 C-82.18569522 180.61757 -79.7401292 177.27890348 -77.03125 173.9140625 C-75.5108917 171.9402007 -75.5108917 171.9402007 -74.84375 169.6640625 C-75.56653717 165.66464013 -77.1096792 162.31309639 -78.84375 158.6640625 C-78.84375 158.0040625 -78.84375 157.3440625 -78.84375 156.6640625 C-80.08382812 156.53644531 -81.32390625 156.40882813 -82.6015625 156.27734375 C-88.33572523 155.6360968 -94.02471857 154.77993719 -99.71875 153.8515625 C-100.75 153.69880859 -101.78125 153.54605469 -102.84375 153.38867188 C-103.83117187 153.22560547 -104.81859375 153.06253906 -105.8359375 152.89453125 C-107.17180908 152.68413208 -107.17180908 152.68413208 -108.53466797 152.46948242 C-111.62036586 151.39317482 -112.4041264 150.61668293 -113.84375 147.6640625 C-114.27418331 144.66120339 -114.26404274 141.69349579 -114.2421875 138.6640625 C-114.24505768 137.79136719 -114.24792786 136.91867187 -114.25088501 136.01953125 C-114.25292367 134.17707672 -114.24740764 132.33460045 -114.23486328 130.4921875 C-114.21880654 127.67398629 -114.23471838 124.85721917 -114.25390625 122.0390625 C-114.25192378 120.24739267 -114.24808003 118.45572374 -114.2421875 116.6640625 C-114.24826019 115.82230469 -114.25433289 114.98054688 -114.2605896 114.11328125 C-114.2192678 110.67164661 -114.15544461 108.28024946 -112.58642578 105.1784668 C-110.54287742 103.40260094 -109.21414278 102.92807855 -106.5625 102.43359375 C-105.72493164 102.27084961 -104.88736328 102.10810547 -104.02441406 101.94042969 C-103.13979492 101.78735352 -102.25517578 101.63427734 -101.34375 101.4765625 C-100.44624023 101.30930664 -99.54873047 101.14205078 -98.62402344 100.96972656 C-92.39382748 99.84167157 -86.17495707 98.95448484 -79.84375 98.6640625 C-79.3634182 97.08108224 -78.88453388 95.49766272 -78.40625 93.9140625 C-78.13941406 93.03234375 -77.87257813 92.150625 -77.59765625 91.2421875 C-77.34886719 90.39140625 -77.10007812 89.540625 -76.84375 88.6640625 C-76.575625 88.00921875 -76.3075 87.354375 -76.03125 86.6796875 C-75.72967234 83.43772764 -77.43406296 81.76199664 -79.28125 79.1640625 C-80.01214844 78.10703125 -80.74304688 77.05 -81.49609375 75.9609375 C-83.03193311 73.78982205 -84.59149407 71.64017011 -86.16015625 69.4921875 C-92.36698947 60.74266232 -92.36698947 60.74266232 -92.78125 56.4140625 C-91.46280414 51.14027908 -88.68301129 48.38311209 -84.84375 44.6640625 C-84.25722656 44.07753906 -83.67070312 43.49101562 -83.06640625 42.88671875 C-81.91730867 41.73762117 -80.76363943 40.59307727 -79.60546875 39.453125 C-75.65373408 35.4400552 -72.01341266 31.1498502 -68.53125 26.7265625 C-66.20465355 23.88294462 -65.14338582 23.71498327 -61.46484375 23.08984375 C-53.85827946 23.18078621 -47.52465653 29.8538637 -41.77539062 34.24023438 C-36.50898539 38.33029225 -36.50898539 38.33029225 -30.22607422 39.55322266 C-27.89406575 38.79497394 -25.95959024 37.89534433 -23.84375 36.6640625 C-23.13283203 36.42171875 -22.42191406 36.179375 -21.68945312 35.9296875 C-19.55380801 34.73949415 -19.55380801 34.73949415 -18.91821289 31.85424805 C-18.6203186 30.09528198 -18.6203186 30.09528198 -18.31640625 28.30078125 C-18.08115234 27.02138672 -17.84589844 25.74199219 -17.60351562 24.42382812 C-17.25194389 22.39059203 -16.90705382 20.35634 -16.56469727 18.3215332 C-16.22738211 16.35342257 -15.86587871 14.38950651 -15.50390625 12.42578125 C-15.20432007 10.6617395 -15.20432007 10.6617395 -14.89868164 8.86206055 C-12.26561196 0.87997776 -7.54467957 -0.09408849 0 0 Z M1.15625 17.6640625 C0.76953125 19.63890625 0.3828125 21.61375 -0.015625 23.6484375 C-0.40515352 25.56825665 -0.79479205 27.48805525 -1.1875 29.40722656 C-1.45666106 30.73685632 -1.72040605 32.06759485 -1.97851562 33.39941406 C-2.35145467 35.31861577 -2.74581626 37.23361511 -3.140625 39.1484375 C-3.37104492 40.30053711 -3.60146484 41.45263672 -3.83886719 42.63964844 C-4.95727091 46.00572846 -6.10755512 47.45399706 -8.84375 49.6640625 C-11.76171875 51.0078125 -11.76171875 51.0078125 -15.03125 52.1640625 C-19.05318881 53.61430247 -22.89475491 55.13035583 -26.71875 57.0390625 C-30.91886121 58.8804156 -33.36446617 59.20864313 -37.84375 57.6640625 C-40.68383027 55.83273025 -43.36241828 53.86627772 -46.04296875 51.80859375 C-49.84852595 48.89471523 -53.83045974 46.28013319 -57.84375 43.6640625 C-61.91751031 45.27416777 -64.60882069 48.20228521 -67.59375 51.2890625 C-68.10035156 51.8046875 -68.60695313 52.3203125 -69.12890625 52.8515625 C-70.37178902 54.11789589 -71.60840276 55.3903769 -72.84375 56.6640625 C-71.49738433 59.46261318 -70.00652659 62.06611606 -68.3125 64.66796875 C-67.83167969 65.40853516 -67.35085938 66.14910156 -66.85546875 66.91210938 C-66.35660156 67.67587891 -65.85773438 68.43964844 -65.34375 69.2265625 C-64.84488281 69.99419922 -64.34601563 70.76183594 -63.83203125 71.55273438 C-61.85024513 74.59979694 -59.86002039 77.63965692 -57.84375 80.6640625 C-57.35326715 86.04646644 -58.36093135 89.66444357 -60.59375 94.5390625 C-60.86743408 95.14331055 -61.14111816 95.74755859 -61.4230957 96.37011719 C-62.22412964 98.1374292 -63.0337772 99.90082933 -63.84375 101.6640625 C-64.86248802 104.10499913 -65.87986925 106.54632479 -66.88671875 108.9921875 C-68.5009338 111.81212237 -70.6370079 112.60701908 -73.6628418 113.44189453 C-74.77828369 113.68278809 -75.89372559 113.92368164 -77.04296875 114.171875 C-78.25146484 114.43613281 -79.45996094 114.70039063 -80.70507812 114.97265625 C-81.96771484 115.24207031 -83.23035156 115.51148438 -84.53125 115.7890625 C-85.80548828 116.06621094 -87.07972656 116.34335937 -88.39257812 116.62890625 C-91.54173568 117.31299291 -94.69258821 117.98926826 -97.84375 118.6640625 C-97.84375 124.9340625 -97.84375 131.2040625 -97.84375 137.6640625 C-95.85730469 137.99019531 -93.87085938 138.31632812 -91.82421875 138.65234375 C-89.8978833 138.97919489 -87.97156131 139.30613182 -86.0456543 139.63549805 C-84.70881653 139.86184181 -83.37124381 140.0838891 -82.03295898 140.30151367 C-80.10732444 140.61542142 -78.18446037 140.94617745 -76.26171875 141.27734375 C-75.10438232 141.47110596 -73.9470459 141.66486816 -72.75463867 141.86450195 C-69.78240177 142.68091358 -68.64718068 143.22269903 -66.84375 145.6640625 C-65.8515625 148.1953125 -65.8515625 148.1953125 -64.96875 151.1640625 C-63.33159446 156.40549844 -61.28050212 161.2013038 -58.796875 166.09375 C-57.60342315 169.31215705 -57.37296317 171.2424511 -57.84375 174.6640625 C-59.17635703 177.5026778 -60.85206684 180.0613225 -62.59375 182.6640625 C-63.0371875 183.34984375 -63.480625 184.035625 -63.9375 184.7421875 C-65.22490866 186.72631144 -66.53038351 188.69704827 -67.84375 190.6640625 C-68.44799805 191.57285156 -68.44799805 191.57285156 -69.06445312 192.5 C-69.98900517 193.88927397 -70.91606899 195.27687594 -71.84375 196.6640625 C-70.25707422 200.56692017 -67.71024519 202.99927232 -64.71875 205.9140625 C-63.35363281 207.25210938 -63.35363281 207.25210938 -61.9609375 208.6171875 C-61.26226562 209.29265625 -60.56359375 209.968125 -59.84375 210.6640625 C-56.30762575 209.37798772 -53.49663086 207.86607977 -50.48046875 205.625 C-49.67544922 205.04492188 -48.87042969 204.46484375 -48.04101562 203.8671875 C-46.37174282 202.65128139 -44.71017967 201.42471785 -43.05664062 200.1875 C-37.67502674 196.34532786 -34.47664064 194.70559244 -27.84375 195.6640625 C-25.0078125 196.6171875 -25.0078125 196.6171875 -22.46875 197.9140625 C-18.78561799 199.76588793 -15.28225407 201.15163925 -11.34375 202.3515625 C-8.69423093 203.42975796 -7.23946383 204.04222648 -5.6953125 206.46875 C-4.82057591 209.18701747 -4.33076246 211.84728772 -3.84375 214.6640625 C-3.33240177 217.14715268 -2.80285632 219.62603303 -2.27294922 222.10522461 C-1.90542795 223.84358404 -1.5475654 225.58401539 -1.19970703 227.32641602 C-0.721496 231.32081994 -0.721496 231.32081994 1.15625 234.6640625 C2.49892413 234.75038124 3.84599322 234.77112723 5.19140625 234.76171875 C6.00029297 234.75849609 6.80917969 234.75527344 7.64257812 234.75195312 C8.49271484 234.74357422 9.34285156 234.73519531 10.21875 234.7265625 C11.07275391 234.72205078 11.92675781 234.71753906 12.80664062 234.71289062 C14.92320663 234.70106623 17.03973685 234.68313019 19.15625 234.6640625 C20.54499787 228.91208552 21.91963687 223.17714017 22.91796875 217.34375 C23.04196045 216.62767578 23.16595215 215.91160156 23.29370117 215.17382812 C23.53201443 213.77058833 23.76035044 212.36561088 23.9777832 210.95898438 C24.4298651 208.3131017 24.86046485 206.10583193 26.3671875 203.85546875 C28.87448817 202.18575979 31.44901836 201.24763892 34.28125 200.2265625 C39.01138147 198.49025173 43.55812491 196.62693655 48.05859375 194.36328125 C50.95380551 193.39821066 53.11611881 193.34284109 56.15625 193.6640625 C59.015625 195.16796875 59.015625 195.16796875 61.90625 197.2265625 C62.9375 197.94972656 63.96875 198.67289063 65.03125 199.41796875 C66.0625 200.15917969 67.09375 200.90039062 68.15625 201.6640625 C70.07205192 202.99863805 71.98864 204.33208623 73.90625 205.6640625 C75.32390436 206.6626618 76.7409731 207.66209656 78.15625 208.6640625 C82.05910767 207.07738672 84.49145982 204.53055769 87.40625 201.5390625 C88.29828125 200.62898437 89.1903125 199.71890625 90.109375 198.78125 C90.78484375 198.08257812 91.4603125 197.38390625 92.15625 196.6640625 C90.88629382 193.2385969 89.4225078 190.32806027 87.37109375 187.30859375 C86.84064453 186.52162109 86.31019531 185.73464844 85.76367188 184.92382812 C85.21259766 184.11623047 84.66152344 183.30863281 84.09375 182.4765625 C82.99777644 180.85869676 81.90268074 179.24023589 80.80859375 177.62109375 C80.32382568 176.90928955 79.83905762 176.19748535 79.33959961 175.46411133 C77.06178013 171.99921283 76.81633865 169.83167121 77.15625 165.6640625 C78.58203125 162.296875 78.58203125 162.296875 80.46875 158.7890625 C82.51924912 154.92364269 84.45390632 151.16041188 85.78125 146.9765625 C87.41682023 143.03632513 88.42713694 142.53788572 92.15625 140.6640625 C94.19295687 139.98628227 96.25512723 139.38208963 98.33203125 138.83984375 C99.48896484 138.53369141 100.64589844 138.22753906 101.83789062 137.91210938 C103.63516602 137.44901367 103.63516602 137.44901367 105.46875 136.9765625 C106.68626953 136.65623047 107.90378906 136.33589844 109.15820312 136.00585938 C112.15572542 135.21827509 115.15575289 134.44023645 118.15625 133.6640625 C118.15625 127.3940625 118.15625 121.1240625 118.15625 114.6640625 C116.25359375 114.32632813 114.3509375 113.98859375 112.390625 113.640625 C109.89577514 113.19042653 107.40098663 112.739888 104.90625 112.2890625 C103.65199219 112.06734375 102.39773438 111.845625 101.10546875 111.6171875 C99.90019531 111.39804687 98.69492187 111.17890625 97.453125 110.953125 C96.34291992 110.75412598 95.23271484 110.55512695 94.08886719 110.35009766 C91.42821795 109.72768471 89.43373568 109.15682711 87.15625 107.6640625 C85.98226159 105.28967094 85.04017901 103.07909182 84.15625 100.6015625 C83.64638377 99.23498448 83.13466926 97.8690946 82.62109375 96.50390625 C82.37472168 95.84245605 82.12834961 95.18100586 81.87451172 94.49951172 C80.69876501 91.49500331 79.23516879 88.63614493 77.72265625 85.7890625 C76.64676684 81.75262225 77.33815889 78.24919438 79.24389648 74.55664062 C80.63370581 72.29583706 82.09146033 70.1016406 83.59375 67.9140625 C84.09712891 67.15996094 84.60050781 66.40585937 85.11914062 65.62890625 C86.45392661 63.63293145 87.80324957 61.6477056 89.15625 59.6640625 C91.33426631 57.01137682 91.33426631 57.01137682 91.12890625 54.8359375 C89.66024484 51.55651683 87.15706019 49.35256733 84.59375 46.9140625 C83.81354492 46.15416016 83.81354492 46.15416016 83.01757812 45.37890625 C81.73714916 44.13371845 80.44757446 42.89794748 79.15625 41.6640625 C71.83048689 46.22061377 71.83048689 46.22061377 64.7421875 51.1328125 C64.17588623 51.54281494 63.60958496 51.95281738 63.02612305 52.37524414 C61.40954887 53.55360027 59.80411984 54.74720035 58.19921875 55.94140625 C54.75673865 57.89023003 53.04438612 58.19188743 49.15625 57.6640625 C46.76953125 56.7109375 46.76953125 56.7109375 44.46875 55.4140625 C39.93409798 52.94061594 35.51048646 51.48122606 30.50390625 50.2421875 C26.69002367 47.67844613 26.22906752 43.97836975 25.15625 39.6640625 C24.92639404 38.74125488 24.69653809 37.81844727 24.4597168 36.86767578 C23.76456217 33.9518132 23.11018464 31.02968257 22.46875 28.1015625 C22.13133789 26.58852539 22.13133789 26.58852539 21.78710938 25.04492188 C21.23929097 22.58556689 20.69717339 20.1249432 20.15625 17.6640625 C13.88625 17.6640625 7.61625 17.6640625 1.15625 17.6640625 Z " fill="#000000" transform="translate(368.84375,253.3359375)"/>
<path d="M0 0 C13.70865795 11.47865366 21.67535145 27.24305376 23.40625 44.91015625 C24.32409897 63.20727591 19.44772955 79.15707735 7.59375 93.16015625 C7.00078125 93.86527344 6.4078125 94.57039063 5.796875 95.296875 C-7.5540896 109.81747539 -27.64628732 117.77477348 -47.09375 118.59765625 C-68.16768868 117.94353939 -87.85277022 110.88101576 -102.75 95.78515625 C-115.89967994 80.41014586 -120.87787946 61.34613199 -119.62939453 41.49169922 C-117.92228657 23.65484906 -107.01899878 9.03118131 -93.609375 -2.1875 C-65.23647616 -23.46717413 -27.69850924 -21.17856795 0 0 Z M-91.40625 17.16015625 C-99.47981612 27.82365843 -104.62633696 39.65327812 -103.40625 53.16015625 C-100.8425209 67.48773944 -95.87328846 80.95280092 -83.90234375 90.06640625 C-70.13251828 99.31158068 -54.2649405 103.02200391 -37.90625 100.16015625 C-21.25326384 96.35018197 -8.24854679 87.58667029 0.93359375 73.12890625 C7.4738675 61.43335789 8.29819174 47.97255149 4.6875 35.16796875 C-0.31154784 21.42058718 -10.23850838 10.49576647 -23.40625 4.16015625 C-46.77442972 -5.51694614 -73.72503152 -2.1922549 -91.40625 17.16015625 Z " fill="#000000" transform="translate(219.40625,109.83984375)"/>
<path d="M0 0 C11.993379 9.47934039 21.05879761 22.43974339 23.34082031 37.79541016 C24.48837805 57.7395594 22.01277836 74.08585035 8.52832031 89.73291016 C-2.81385018 101.51987165 -18.76988871 107.53942626 -34.97167969 108.10791016 C-51.76066846 107.65608185 -67.32800478 101.17912043 -79.32324219 89.43603516 C-91.84904676 75.27642998 -95.73085582 59.57368572 -94.85449219 41.12988281 C-93.52997435 25.29858333 -84.96948872 12.37895235 -73.65917969 1.79541016 C-52.29525712 -15.11640699 -22.12683567 -16.06442131 0 0 Z M-60.65917969 13.79541016 C-61.54605469 14.37291016 -62.43292969 14.95041016 -63.34667969 15.54541016 C-72.50162739 24.45292684 -77.42674057 35.75638342 -77.90917969 48.42041016 C-77.71196282 60.37892363 -73.64572223 70.28684999 -65.55371094 79.08447266 C-57.4889082 86.70678179 -47.80266387 91.71241923 -36.59277344 91.82666016 C-24.0303896 91.23339528 -14.03310798 87.26035146 -4.65917969 78.79541016 C2.43934476 70.93462805 7.41238723 61.47239064 8.34082031 50.79541016 C8.40398437 50.16763672 8.46714844 49.53986328 8.53222656 48.89306641 C9.09498028 38.85426628 5.72394367 29.33919914 -0.82324219 21.78369141 C-1.42910156 21.12755859 -2.03496094 20.47142578 -2.65917969 19.79541016 C-3.18253906 19.17021484 -3.70589844 18.54501953 -4.24511719 17.90087891 C-11.22346565 10.0885327 -21.33906781 5.83278709 -31.65917969 4.79541016 C-42.3487484 4.30150269 -52.06051384 7.65115276 -60.65917969 13.79541016 Z " fill="#000000" transform="translate(414.6591796875,331.20458984375)"/>
<path d="M0 0 C2.16943359 1.64086914 2.16943359 1.64086914 4.5234375 3.84765625 C5.4009668 4.66556641 6.27849609 5.48347656 7.18261719 6.32617188 C8.11235352 7.20853516 9.04208984 8.09089844 10 9 C10.9477832 9.88236328 11.89556641 10.76472656 12.87207031 11.67382812 C15.32317982 13.97312803 17.74771341 16.29299341 20.15380859 18.63891602 C21.14477622 19.59781616 22.14369519 20.54855875 23.14990234 21.49145508 C31.5136372 29.3400226 31.5136372 29.3400226 32.69628906 33.37646484 C32.76496821 36.59488672 32.15075441 38.74874266 30.5 41.5 C27.78592082 43.12844751 25.5709524 43.97392475 22.37109375 43.87109375 C16.87358774 41.85141691 12.80527209 36.30891104 9 32 C9.57940109 38.33674106 11.0278715 43.98007977 13.0625 50 C13.37340576 50.91990723 13.68431152 51.83981445 14.00463867 52.78759766 C26.57978795 88.9055071 52.78166371 116.93227755 86.78125 134 C104.01991342 142.33413324 121.60800971 146.14370838 140.62280273 147.78588867 C142.1649646 147.93828003 142.1649646 147.93828003 143.73828125 148.09375 C144.65649658 148.17302734 145.57471191 148.25230469 146.52075195 148.33398438 C149.65856255 149.1769137 150.96123968 150.51265407 153 153 C153.78912675 156.09119995 153.62938988 158.88165923 153 162 C151.1875 164.5625 151.1875 164.5625 148 166 C118.89403267 170.78606729 81.20967531 154.55233088 57.86328125 138.14453125 C39.44797069 124.81193347 24.16222226 109.20520035 12 90 C11.59507324 89.36078613 11.19014648 88.72157227 10.77294922 88.06298828 C-0.77470207 69.49047608 -6.41456132 49.22350221 -11 28 C-11.66588135 28.67373657 -11.66588135 28.67373657 -12.34521484 29.36108398 C-14.35253603 31.38915607 -16.36370999 33.41336416 -18.375 35.4375 C-19.07367188 36.14455078 -19.77234375 36.85160156 -20.4921875 37.58007812 C-21.1625 38.25361328 -21.8328125 38.92714844 -22.5234375 39.62109375 C-23.14138184 40.2442749 -23.75932617 40.86745605 -24.39599609 41.50952148 C-26.59213092 43.55022211 -27.80899139 43.97453218 -30.8125 44.375 C-34 44 -34 44 -36.875 41.9375 C-39 39 -39 39 -39.8125 35.6875 C-38.76740264 30.94436582 -36.70262203 29.21780241 -33.1875 26.0078125 C-31.25577585 24.23476569 -29.6097787 22.44946032 -27.9375 20.4375 C-24.22188646 16.11419266 -20.21052665 12.09691123 -16.1875 8.0625 C-15.5164624 7.38695068 -14.8454248 6.71140137 -14.15405273 6.01538086 C-13.51927002 5.38253174 -12.8844873 4.74968262 -12.23046875 4.09765625 C-11.65707764 3.52539307 -11.08368652 2.95312988 -10.49291992 2.36352539 C-7.39065067 -0.46986362 -3.99944007 -1.13011445 0 0 Z " fill="#000000" transform="translate(72,307)"/>
<path d="M0 0 C37.69879492 19.8118092 66.80539697 54.31193375 79.58837891 94.921875 C83.68561086 108.81462566 86.21883205 122.37524981 86.859375 136.82421875 C86.90255859 137.74203125 86.94574219 138.65984375 86.99023438 139.60546875 C87.09520956 141.84493936 87.19736748 144.08449967 87.296875 146.32421875 C87.709375 145.86982422 88.121875 145.41542969 88.546875 144.94726562 C90.44193345 142.88512055 92.36841424 140.85514042 94.296875 138.82421875 C94.94527344 138.10878906 95.59367188 137.39335937 96.26171875 136.65625 C101.84360928 130.8532945 101.84360928 130.8532945 106.640625 130.7578125 C110.296875 131.32421875 110.296875 131.32421875 112.796875 132.88671875 C114.93538384 136.36179561 114.84011489 138.27599713 114.296875 142.32421875 C112.42055408 145.2467316 110.04683071 147.57946474 107.578125 150.0078125 C106.88682495 150.7081813 106.1955249 151.40855011 105.48327637 152.13014221 C104.01903385 153.60351412 102.54584227 155.06803904 101.06445312 156.52416992 C98.80576423 158.75294724 96.58988011 161.01879473 94.375 163.29101562 C92.9451194 164.71986481 91.51290115 166.14637925 90.078125 167.5703125 C89.41945435 168.24831406 88.76078369 168.92631561 88.08215332 169.62486267 C85.0383443 172.56410003 82.60635328 174.7541653 78.28320312 175.15258789 C73.14469647 174.66034667 70.19289301 171.37068743 66.734375 167.82421875 C65.71923828 166.82056274 65.71923828 166.82056274 64.68359375 165.79663086 C63.262122 164.38058834 61.8506444 162.95445082 60.44873047 161.51904297 C58.30316021 159.33062947 56.11825011 157.18818462 53.92578125 155.046875 C52.54690691 153.66271393 51.17051643 152.27607311 49.796875 150.88671875 C49.14388428 150.24992188 48.49089355 149.613125 47.81811523 148.95703125 C44.73719872 145.74550024 42.90031473 143.5705391 42.796875 139.0078125 C43.296875 135.32421875 43.296875 135.32421875 44.796875 132.82421875 C48.26134521 130.74553662 51.40522606 130.55732973 55.296875 131.32421875 C57.9706394 132.92336014 60.01590575 134.96661552 62.171875 137.19921875 C62.7390625 137.75480469 63.30625 138.31039062 63.890625 138.8828125 C65.37752657 140.34504983 66.83886786 141.83316896 68.296875 143.32421875 C68.956875 143.98421875 69.616875 144.64421875 70.296875 145.32421875 C69.37363363 104.51695032 54.34960154 67.77530135 25.07470703 39.00390625 C15.85615233 30.2942583 5.42257267 23.35040572 -5.703125 17.32421875 C-6.34024414 16.97762207 -6.97736328 16.63102539 -7.63378906 16.27392578 C-17.56742094 10.9841053 -27.68337 7.59501353 -38.59350586 4.84521484 C-44.33150299 3.33250875 -48.14272479 2.2131265 -51.703125 -2.67578125 C-52.265625 -6.23828125 -52.265625 -6.23828125 -51.703125 -9.67578125 C-42.43760342 -21.81680953 -11.20086129 -5.59848403 0 0 Z " fill="#000000" transform="translate(384.703125,75.67578125)"/>
</svg>
