<?xml version="1.0" encoding="UTF-8"?>
<svg version="1.1" xmlns="http://www.w3.org/2000/svg" width="512" height="512">
<path d="M0 0 C0.95069172 -0.0095088 1.90138343 -0.01901761 2.88088399 -0.02881455 C6.05132987 -0.05196497 9.21933673 -0.02530898 12.38972473 0.00140381 C14.66848725 -0.00481012 16.94724326 -0.01403199 19.22598267 -0.02603149 C25.40363839 -0.0493753 31.58043584 -0.02881868 37.75803542 0.00101185 C44.22326697 0.02619417 50.68845242 0.01560796 57.15371704 0.01013184 C68.00728732 0.00654838 78.86046616 0.03092764 89.71394348 0.07269287 C100.87779807 0.11564464 112.04122764 0.12977359 123.20515442 0.1137085 C136.66850694 0.09437697 150.13153396 0.10017569 163.59488869 0.12847137 C168.73477101 0.1388811 173.87452258 0.13966593 179.01441002 0.13282013 C185.06305831 0.12617207 191.11113526 0.14434785 197.15966606 0.18183517 C199.38126775 0.19165464 201.60292555 0.19295486 203.82453537 0.18519211 C206.8533031 0.17603456 209.88033341 0.19756202 212.90893555 0.22705078 C213.79161439 0.21726141 214.67429323 0.20747204 215.58371991 0.19738603 C219.82299813 0.27179063 221.75772762 0.51860393 225.30984211 3.02219009 C227.61751254 6.39159896 227.88807355 8.11984651 227.88545227 12.17559814 C227.89666107 13.44578293 227.90786987 14.71596771 227.91941833 16.02464294 C227.90650832 17.42477875 227.89309424 18.82490997 227.87922668 20.22503662 C227.88272912 21.70533382 227.88838909 23.18562725 227.89604187 24.66590881 C227.91028226 28.6805336 227.8932362 32.69447283 227.8697567 36.70903206 C227.84963953 40.91207744 227.8555277 45.11509458 227.85786438 49.31817627 C227.85781082 56.37627458 227.83805957 63.43410511 227.8059845 70.49212646 C227.76909203 78.64980674 227.76030903 86.80713624 227.76728201 94.96488905 C227.77358937 102.81539104 227.76282841 110.66577287 227.74331665 118.51625061 C227.73514631 121.85585748 227.73243243 125.1954029 227.73400879 128.53501892 C227.73488837 132.46839876 227.72065209 136.40144576 227.69478226 140.33473778 C227.68762606 141.77747674 227.68553422 143.22025113 227.68889999 144.66300392 C227.69262031 146.63377744 227.67601075 148.60455799 227.65840149 150.57525635 C227.65467278 151.67767921 227.65094406 152.78010208 227.64710236 153.9159317 C227.21149553 157.28096083 226.2878243 159.17238539 224.26399231 161.87542725 C221.88899231 162.87542725 221.88899231 162.87542725 219.26399231 162.87542725 C216.98080851 161.73383535 215.07386548 160.68530042 213.26399231 158.87542725 C213.16748794 157.0151469 213.14211939 155.15115695 213.14373779 153.28837585 C213.1416758 151.46885658 213.1416758 151.46885658 213.13957214 149.61257935 C213.14311175 148.25610327 213.14674656 146.89962745 213.15046692 145.54315186 C213.15074879 144.1243032 213.15059107 142.7054544 213.15002441 141.28660583 C213.14973642 137.42313924 213.1556334 133.55970342 213.16259837 129.696244 C213.16883164 125.66300152 213.16943569 121.6297584 213.17062378 117.59651184 C213.17373717 109.95377256 213.18195067 102.31104752 213.19197327 94.66831452 C213.20313415 85.96954706 213.20864479 77.27077894 213.2136687 68.57200611 C213.22413328 50.6731384 213.24173288 32.77428397 213.26399231 14.87542725 C184.99568707 14.7724088 156.72778739 14.72649049 128.4592905 14.74845695 C115.33352413 14.75732677 102.20826743 14.74754644 89.08259583 14.69378662 C77.641546 14.64697403 66.20108811 14.63522988 54.75997299 14.66550934 C48.70231487 14.68031883 42.64580962 14.67762703 36.588274 14.63293076 C30.88401822 14.5913955 25.18171636 14.59682624 19.47747612 14.63794899 C17.38652866 14.6448053 15.29544382 14.63464634 13.2046814 14.60599709 C2.0763305 14.13241987 2.0763305 14.13241987 -7.94259834 18.07950211 C-10.21886605 20.5722173 -11.99519311 22.99284343 -13.73600769 25.87542725 C-14.54811707 26.85253662 -15.36022644 27.829646 -16.19694519 28.83636475 C-16.82858582 29.63300537 -17.46022644 30.429646 -18.11100769 31.25042725 C-21.79237458 35.80403437 -25.66375242 40.11125241 -29.64958191 44.39447021 C-32.6401341 47.62718929 -35.47372454 50.94230391 -38.23600769 54.37542725 C-41.87100159 58.89320537 -45.70311059 63.15361241 -49.65007019 67.3949585 C-52.64042127 70.62754471 -55.47387098 73.94248591 -58.23600769 77.37542725 C-61.86477158 81.88546236 -65.68905378 86.1398266 -69.6302948 90.37298584 C-73.60217381 94.66527945 -77.30062616 99.13146114 -80.95866394 103.69573975 C-82.73600769 105.87542725 -82.73600769 105.87542725 -84.73600769 107.87542725 C-58.00600769 108.20542725 -31.27600769 108.53542725 -3.73600769 108.87542725 C-3.85469181 86.72163086 -3.85469181 86.72163086 -4.00627136 64.5680542 C-4.01982117 60.27423096 -4.01982117 60.27423096 -4.02233887 58.26133728 C-4.02693256 56.86152788 -4.03745685 55.46173003 -4.05273438 54.06199646 C-4.07476799 51.93620316 -4.07772335 49.81113247 -4.07658386 47.6852417 C-4.08657661 45.88987724 -4.08657661 45.88987724 -4.09677124 44.0582428 C-3.69756808 40.53629596 -2.90518422 38.65879329 -0.73600769 35.87542725 C2.48779396 34.84655438 4.36942502 34.56111982 7.57649231 35.68792725 C9.26399231 36.87542725 9.26399231 36.87542725 10.26399231 38.87542725 C10.37773713 41.42235608 10.43180471 43.94258857 10.44099426 46.49041748 C10.44756546 47.27592987 10.45413666 48.06144226 10.46090698 48.87075806 C10.48064984 51.47517994 10.49230301 54.07954423 10.50227356 56.684021 C10.50634909 57.57207994 10.51042461 58.46013889 10.51462364 59.37510872 C10.53548579 64.07288507 10.54978846 68.77063216 10.55915833 73.46844482 C10.57024009 78.32896616 10.60465966 83.18903184 10.64433002 88.04939175 C10.67042461 91.78024672 10.67884362 95.51099179 10.6824398 99.24193001 C10.68732215 101.03415069 10.6989827 102.82636595 10.7174778 104.61849785 C10.74172421 107.12305159 10.74093163 109.62640829 10.73396301 112.13104248 C10.74677307 112.87452438 10.75958313 113.61800629 10.77278137 114.38401794 C10.7517395 116.45304871 10.7517395 116.45304871 10.26399231 119.87542725 C-17.74743393 140.88399693 -59.72172489 122.87542725 -94.73600769 122.87542725 C-94.73600769 228.47542725 -94.73600769 334.07542725 -94.73600769 442.87542725 C-34.36145603 442.75660486 -34.36145603 442.75660486 26.01301575 442.60516357 C37.67463684 442.59161377 37.67463684 442.59161377 43.12928772 442.58909607 C46.94916482 442.58629457 50.76891757 442.57502625 54.58876038 442.55870056 C59.45698857 442.53816883 64.32503516 442.53194528 69.19330263 442.53621042 C70.9825824 442.53531817 72.77186833 442.52934233 74.56111097 442.51778185 C76.97351323 442.50291568 79.38520497 442.50643603 81.79762268 442.5146637 C82.85374441 442.50155671 82.85374441 442.50155671 83.93120193 442.48818493 C86.94578994 442.51592282 89.02341062 442.74624523 91.69939041 444.18313122 C93.26399231 445.87542725 93.26399231 445.87542725 93.76399231 449.31292725 C93.26399231 452.87542725 93.26399231 452.87542725 91.71864223 455.06633759 C88.38285631 457.52482902 85.47663122 457.43170577 81.48959351 457.38336182 C80.30757029 457.39272176 80.30757029 457.39272176 79.10166782 457.40227079 C76.45828835 457.41823944 73.81582607 457.40558174 71.17243958 457.39300537 C69.27850302 457.39842482 67.38457069 457.40554649 65.49064636 457.41424561 C60.3439126 457.43250414 55.19749903 457.42540062 50.05075955 457.41272926 C44.66788437 457.40261324 39.28503689 457.41199119 33.90216064 457.41827393 C24.86085582 457.42555503 15.81968161 457.41595112 6.77839661 457.39691162 C-3.67698721 457.37514862 -14.13205896 457.3821883 -24.58743519 457.40421724 C-33.55994605 457.42236588 -42.53236293 457.42493198 -51.50488621 457.41446257 C-56.86557795 457.40822386 -62.226123 457.4074023 -67.58680534 457.42060852 C-72.62740695 457.4321583 -77.66760611 457.42415709 -82.70816422 457.40103149 C-84.55888895 457.39573948 -86.40964751 457.39726659 -88.26035881 457.40608215 C-90.78557247 457.4170021 -93.30949407 457.40331776 -95.83462524 457.38336182 C-96.93511575 457.39674615 -96.93511575 457.39674615 -98.05783838 457.41040087 C-102.95533037 457.33525096 -105.30202357 456.33013575 -108.73600769 452.87542725 C-109.37195885 450.21580333 -109.37195885 450.21580333 -109.38755989 447.11522961 C-109.40553222 445.9321614 -109.42350455 444.74909319 -109.44202149 443.53017443 C-109.43632484 442.22913518 -109.43062819 440.92809592 -109.42475891 439.58763123 C-109.43624644 438.19241847 -109.44988742 436.79722206 -109.46549976 435.40204936 C-109.50197057 431.5633949 -109.50704528 427.72523833 -109.50690341 423.88643396 C-109.51204722 419.74769011 -109.54572282 415.6091622 -109.57542419 411.47053528 C-109.63474376 402.41634397 -109.65657956 393.36229192 -109.67108774 384.30793357 C-109.68036436 378.65130437 -109.69764709 372.99471781 -109.7165947 367.33811378 C-109.76793474 351.6696252 -109.81103021 336.00117529 -109.82022285 320.33259869 C-109.82081756 319.32952478 -109.82141227 318.32645087 -109.82202499 317.29298078 C-109.82319893 315.25954966 -109.82436835 313.22611854 -109.82553329 311.19268741 C-109.82612168 310.18331138 -109.82671006 309.17393535 -109.82731628 308.13397217 C-109.82789881 307.12335981 -109.82848134 306.11274745 -109.82908152 305.07151047 C-109.84010063 288.71472228 -109.91152713 272.35881385 -110.00967158 256.00233843 C-110.10968044 239.19994062 -110.16074199 222.39797968 -110.1625098 205.59527808 C-110.16459239 196.16497903 -110.18717028 186.73574929 -110.26332474 177.30573082 C-110.32793102 169.27079274 -110.34732965 161.23729926 -110.30909158 153.2021661 C-110.29090834 149.10615173 -110.29318688 145.01299811 -110.35297012 140.91731644 C-110.74295605 112.55614638 -110.74295605 112.55614638 -102.4356842 103.65040588 C-100.78139797 102.0726712 -99.09923553 100.60254796 -97.31327415 99.17633116 C-94.94491612 97.22294768 -92.99241961 94.94036704 -90.98600769 92.62542725 C-89.92253113 91.45366943 -89.92253113 91.45366943 -88.83757019 90.25823975 C-86.60487457 87.72674471 -84.47956114 85.12803241 -82.36100769 82.50042725 C-78.6796408 77.94682012 -74.80826296 73.63960208 -70.82243347 69.35638428 C-67.83188128 66.12366521 -64.99829084 62.80855059 -62.23600769 59.37542725 C-58.6010138 54.85764912 -54.76890479 50.59724208 -50.82194519 46.355896 C-47.83159412 43.12330978 -44.9981444 39.80836858 -42.23600769 36.37542725 C-38.60378021 31.86108738 -34.77810163 27.60007572 -30.82853699 23.36688232 C-27.02600207 19.26451549 -23.52296333 14.96878674 -20.09928894 10.543396 C-13.83084304 3.46678682 -9.68965152 -0.18781498 0 0 Z " fill="#000000" transform="translate(165.7360076904297,27.12457275390625)"/>
<path d="M0 0 C5.48604268 0.94699546 10.48662541 0.82471126 15.875 -0.546875 C24.78244637 -2.67657858 33.28387342 -2.76453386 41.3671875 1.8359375 C44.45255571 4.04587251 46.92458255 6.65073561 49.51953125 9.40625 C55.34774139 15.07226505 62.49304893 18.52419253 69.9375 21.578125 C79.05217299 25.39495644 82.89152459 28.88393579 87.1953125 37.9375 C88.74479606 41.74770548 89.92308833 45.56899426 91.0625 49.515625 C93.14154768 56.71376518 96.37747151 62.2705038 100.625 68.453125 C105.71741464 76.30233553 106.7750782 83.14981386 105.625 92.453125 C104.79118976 95.64691599 103.80138272 98.66249956 102.59765625 101.734375 C100.57902179 107.37682314 100.5577373 112.77839853 100.6875 118.703125 C100.79159955 130.23958623 99.71365228 138.30504224 91.375 146.890625 C88.18169667 150.0013429 84.8380716 152.914571 81.421875 155.77734375 C79.54825574 157.52469736 78.09988033 159.3637112 76.625 161.453125 C77.17285156 162.37867188 77.72070312 163.30421875 78.28515625 164.2578125 C85.48628279 176.44923428 92.55994174 188.71304555 99.62548828 200.98339844 C101.6624428 204.51945642 103.70397036 208.05286284 105.74609375 211.5859375 C106.42360175 212.75853466 107.10109218 213.93114196 107.77856445 215.10375977 C109.0565359 217.31548125 110.33498912 219.52692446 111.61401367 221.73803711 C112.76199301 223.72580809 113.90687409 225.71537283 115.0480957 227.70703125 C116.07574842 229.49663301 117.11291302 231.28081659 118.16088867 233.05859375 C118.61955322 233.85007812 119.07821777 234.6415625 119.55078125 235.45703125 C119.95208252 236.13967041 120.35338379 236.82230957 120.7668457 237.52563477 C122.22468882 240.80007898 121.74805304 243.15002782 120.625 246.453125 C118.24084548 248.93378102 117.01218 249.43496827 113.54296875 249.59765625 C112.31191406 249.48808594 111.08085937 249.37851562 109.8125 249.265625 C109.13832031 249.21027588 108.46414063 249.15492676 107.76953125 249.09790039 C106.25244756 248.97085813 104.73601955 248.83582362 103.22021484 248.69433594 C100.30042868 248.42295788 97.37908621 248.17540473 94.45703125 247.9296875 C88.84479114 247.4544836 83.23449263 246.95966042 77.625 246.453125 C76.9748291 247.97450073 76.9748291 247.97450073 76.31152344 249.52661133 C74.69781167 253.29430429 73.06919494 257.05539837 71.43603516 260.81469727 C70.73176471 262.44151987 70.0315291 264.07009548 69.33544922 265.70043945 C68.33320164 268.04592754 67.31653071 270.38469283 66.296875 272.72265625 C65.98941345 273.45088089 65.6819519 274.17910553 65.36517334 274.92939758 C63.69443897 278.71894729 62.37567183 281.49876433 58.625 283.453125 C55.25 283.703125 55.25 283.703125 51.625 282.453125 C50.20458984 280.78637695 50.20458984 280.78637695 48.8359375 278.62890625 C48.31821777 277.81405762 47.80049805 276.99920898 47.26708984 276.15966797 C44.30716953 271.2810363 41.45094143 266.34786096 38.625 261.390625 C37.63548128 259.66514329 36.64595232 257.9396673 35.65568542 256.21461487 C34.98040457 255.03823602 34.30544837 253.86167075 33.6308136 252.68492126 C30.21947593 246.73709969 26.77024718 240.8115754 23.3125 234.890625 C22.73935059 233.90892334 22.16620117 232.92722168 21.57568359 231.91577148 C16.61032621 223.41750873 11.62441283 214.93139192 6.625 206.453125 C3.9341852 209.68579475 1.68615192 212.88089697 -0.3359375 216.56640625 C-0.8827417 217.55495605 -1.4295459 218.54350586 -1.99291992 219.56201172 C-2.86267456 221.14780029 -2.86267456 221.14780029 -3.75 222.765625 C-9.15297636 232.5178941 -14.66337358 242.19585936 -20.3137207 251.80688477 C-23.08981611 256.52982167 -25.84275491 261.26118974 -28.5234375 266.0390625 C-29.01690674 266.91256348 -29.51037598 267.78606445 -30.01879883 268.68603516 C-30.9333161 270.30859118 -31.84002728 271.93558399 -32.73706055 273.56787109 C-35.09637867 277.73455463 -37.20097179 280.86399785 -41.375 283.453125 C-44.41605381 283.39230392 -46.39684781 283.20042612 -48.8449707 281.33007812 C-51.03232694 278.6467536 -52.33320553 275.62344403 -53.73046875 272.484375 C-54.03696854 271.80765747 -54.34346832 271.13093994 -54.65925598 270.43371582 C-55.30374501 269.0062957 -55.94484452 267.57734095 -56.58276367 266.14697266 C-57.56080485 263.95692082 -58.55202155 261.7731925 -59.54492188 259.58984375 C-60.17006631 258.20087859 -60.79444176 256.81156701 -61.41796875 255.421875 C-61.7147905 254.76868286 -62.01161224 254.11549072 -62.31742859 253.44250488 C-63.58076988 250.5912714 -64.375 248.60995119 -64.375 245.453125 C-64.9827124 245.53876709 -65.5904248 245.62440918 -66.21655273 245.71264648 C-76.47046236 247.14299782 -86.73313059 248.57226119 -97.0625 249.328125 C-98.09298462 249.41984985 -98.09298462 249.41984985 -99.14428711 249.51342773 C-102.01285226 249.69087598 -104.15643053 249.54138676 -106.83203125 248.4609375 C-108.75439998 245.95942478 -109.0611107 243.96792842 -108.89160156 240.83984375 C-107.78621594 235.7329204 -104.89287773 231.40025167 -102.25 226.953125 C-101.61763428 225.85798584 -100.98526855 224.76284668 -100.33374023 223.63452148 C-98.36361095 220.23103832 -96.37059205 216.84172632 -94.375 213.453125 C-93.20034359 211.43445384 -92.02710863 209.4149547 -90.85546875 207.39453125 C-88.57565836 203.46925578 -86.28762175 199.54897126 -83.9921875 195.6328125 C-80.33772109 189.39491167 -76.69890547 183.14811068 -73.07687378 176.8913269 C-72.08136935 175.17319151 -71.08282772 173.45681704 -70.08422852 171.74047852 C-69.18208618 170.18091431 -69.18208618 170.18091431 -68.26171875 168.58984375 C-67.72764404 167.66905029 -67.19356934 166.74825684 -66.64331055 165.79956055 C-65.26496345 163.4112099 -65.26496345 163.4112099 -64.375 160.453125 C-67.5982292 156.01029557 -71.09934513 152.79766057 -75.4375 149.453125 C-81.75166331 144.52522912 -85.91186495 139.54944185 -87.375 131.453125 C-87.6309583 127.49677238 -87.64468774 123.54170164 -87.6875 119.578125 C-87.88480319 110.87965557 -88.67394828 103.13270539 -91.64770508 94.93212891 C-94.45438759 87.13408074 -93.67291172 80.87429279 -90.7109375 73.23828125 C-88.91880959 69.50206136 -86.56322297 66.36329244 -84.109375 63.0390625 C-79.74598278 56.53328401 -77.50123926 49.03510874 -75.3125 41.578125 C-72.7313007 33.01833758 -68.99970492 28.03709302 -61.375 23.453125 C-58.22902264 21.93686706 -55.06422517 20.4872944 -51.87915039 19.05664062 C-45.8047723 16.28760666 -41.07411862 13.00835678 -36.25 8.44140625 C-24.97766252 -2.14598016 -14.73397618 -2.93005208 0 0 Z M-28.0625 21.265625 C-35.16374176 28.62683514 -44.26635386 32.71535635 -53.78125 36.1171875 C-57.6373959 38.10333494 -59.63977908 40.43162254 -61.13330078 44.53808594 C-61.86898868 47.01916896 -62.53436522 49.51159165 -63.1875 52.015625 C-65.99238771 62.03800082 -69.82859748 69.97919215 -76.3125 78.203125 C-78.83068015 82.17116645 -79.22707436 84.94930341 -78.375 89.453125 C-77.47011459 92.55558928 -76.45746821 95.58601659 -75.34765625 98.62109375 C-73.77424644 103.20230706 -73.25815217 107.36413188 -73.234375 112.19921875 C-73.21503906 113.28396484 -73.19570313 114.36871094 -73.17578125 115.48632812 C-73.14198802 117.75177443 -73.1237025 120.01750629 -73.12109375 122.28320312 C-73.10680763 129.11753135 -73.10680763 129.11753135 -70.1015625 135.0234375 C-67.78306197 137.08949384 -65.51433616 139.07068132 -63 140.890625 C-55.52465742 146.59906842 -50.64135645 152.00494583 -46.39038086 160.47875977 C-43.57421941 165.85628356 -40.09460544 168.54658985 -34.375 170.453125 C-32.47602284 170.64322935 -30.57670535 170.83078559 -28.67553711 170.99755859 C-19.24762838 171.86352338 -11.52053053 174.1059096 -3.14453125 178.66796875 C-2.47808594 179.03019531 -1.81164062 179.39242187 -1.125 179.765625 C-0.58359375 180.09175781 -0.0421875 180.41789063 0.515625 180.75390625 C5.50393092 182.40743729 9.94919392 182.03031828 14.58984375 179.7734375 C15.92094692 179.05426562 17.24509638 178.32209513 18.5625 177.578125 C26.49197409 173.3773266 32.84918326 171.63000167 41.8125 171.015625 C48.00756452 170.54391958 51.70103684 169.42518723 56.125 164.890625 C58.17497767 162.2596027 59.82660012 159.46009146 61.5 156.578125 C66.4469036 148.21222221 72.06953278 142.78531345 80.171875 137.41015625 C83.56570141 134.70266098 85.40457671 132.12931758 85.97802734 127.76855469 C85.96956787 126.33624512 85.96956787 126.33624512 85.9609375 124.875 C85.97568115 123.26878784 85.97568115 123.26878784 85.99072266 121.63012695 C85.99378418 120.49921631 85.9968457 119.36830566 86 118.203125 C86.15353957 109.21731521 86.83244416 101.24345543 89.98583984 92.79394531 C91.65479594 88.23525603 91.90161282 85.15338129 90.625 80.453125 C89.24498788 77.96050918 87.58213736 75.72981905 85.875 73.453125 C80.05060696 65.23124203 77.36818472 57.16568704 74.83984375 47.4296875 C74.48599609 46.11097656 74.48599609 46.11097656 74.125 44.765625 C73.9496875 44.01925781 73.774375 43.27289063 73.59375 42.50390625 C71.02966786 37.07590978 65.24536987 35.28731189 60 33.203125 C50.07297376 29.05478739 42.14326847 23.1131247 34.28125 15.80078125 C30.57213211 12.782749 26.16005787 13.18308653 21.625 13.453125 C20.74585938 13.618125 19.86671875 13.783125 18.9609375 13.953125 C14.64049398 14.60068562 10.42410438 14.59836446 6.0625 14.578125 C4.80663086 14.58392578 4.80663086 14.58392578 3.52539062 14.58984375 C-0.59270857 14.58332261 -4.34794119 14.39685435 -8.375 13.453125 C-17.07230195 12.51578327 -22.16279407 15.01387901 -28.0625 21.265625 Z M-54.375 175.453125 C-59.07797043 182.2192514 -63.15288415 189.23874813 -67.125 196.453125 C-73.26175631 207.50955095 -79.43531065 218.55834555 -86.14453125 229.28125 C-87.5393112 231.32711131 -87.5393112 231.32711131 -87.375 233.453125 C-86.75044922 233.39253906 -86.12589844 233.33195312 -85.48242188 233.26953125 C-82.61364248 232.9934829 -79.7443414 232.72326656 -76.875 232.453125 C-75.89273438 232.35773438 -74.91046875 232.26234375 -73.8984375 232.1640625 C-58.35458113 230.71330257 -58.35458113 230.71330257 -55.8269043 232.62231445 C-53.98958471 234.93912286 -52.888924 237.29863517 -51.67578125 239.99609375 C-51.18916016 241.06923828 -50.70253906 242.14238281 -50.20117188 243.24804688 C-49.70166016 244.36759766 -49.20214844 245.48714844 -48.6875 246.640625 C-48.17638672 247.77177734 -47.66527344 248.90292969 -47.13867188 250.06835938 C-45.87803484 252.86061149 -44.62375594 255.65554414 -43.375 258.453125 C-42.715 258.453125 -42.055 258.453125 -41.375 258.453125 C-40.97410156 257.75155273 -40.57320312 257.04998047 -40.16015625 256.32714844 C-31.0078125 240.31054688 -21.85546875 224.29394531 -12.703125 208.27734375 C-12.12369141 207.26075684 -11.54425781 206.24416992 -10.94726562 205.19677734 C-9.98635398 203.51995669 -9.01808933 201.84728867 -8.03710938 200.18212891 C-6.02737093 197.03178992 -6.02737093 197.03178992 -5.375 193.453125 C-14.39015684 187.9228187 -22.31208459 185.50993669 -32.82495117 184.51635742 C-41.18435515 183.66254656 -48.05935655 181.15757715 -54.375 175.453125 Z M60.92578125 179.9453125 C56.18112923 183.05471094 51.2556972 183.70537458 45.74511719 184.34057617 C35.24888371 185.57194988 26.84668988 188.35325105 17.625 193.453125 C19.25337262 199.63471786 22.56730929 204.76416419 25.8125 210.203125 C27.07754151 212.3459301 28.34183763 214.48917538 29.60546875 216.6328125 C30.59232666 218.3029541 30.59232666 218.3029541 31.59912109 220.00683594 C35.60681681 226.82445859 39.53428278 233.68849313 43.47338867 240.54589844 C47.12424834 246.88937372 50.83411696 253.19226642 54.625 259.453125 C56.95353018 256.55541728 58.54053393 253.71905961 60.03515625 250.3203125 C60.46763672 249.34964844 60.90011719 248.37898438 61.34570312 247.37890625 C61.78849609 246.37214844 62.23128906 245.36539063 62.6875 244.328125 C63.57002157 242.32366765 64.45655162 240.32096893 65.34765625 238.3203125 C65.73703369 237.43456543 66.12641113 236.54881836 66.52758789 235.63623047 C67.625 233.453125 67.625 233.453125 69.625 231.453125 C76.52825295 231.12143717 83.31976631 231.78044162 90.1875 232.453125 C91.70053711 232.59621094 91.70053711 232.59621094 93.24414062 232.7421875 C95.70480981 232.97542629 98.1650466 233.21247391 100.625 233.453125 C97.1282336 226.21158061 93.27606008 219.25033487 89.1875 212.328125 C87.95549333 210.23190943 86.72373023 208.13555068 85.4921875 206.0390625 C84.86022461 204.96495117 84.22826172 203.89083984 83.57714844 202.78417969 C81.58304948 199.38154259 79.60564727 195.96969252 77.6328125 192.5546875 C76.9927124 191.44883301 76.3526123 190.34297852 75.69311523 189.20361328 C74.45304764 187.06025876 73.21552033 184.91543223 71.98071289 182.76904297 C71.42375732 181.80885254 70.86680176 180.84866211 70.29296875 179.859375 C69.55469849 178.58030273 69.55469849 178.58030273 68.80151367 177.27539062 C68.41326416 176.67404297 68.02501465 176.07269531 67.625 175.453125 C65.25557559 175.453125 62.7077074 178.51285148 60.92578125 179.9453125 Z " fill="#000000" transform="translate(333.375,201.546875)"/>
<path d="M0 0 C1.80859375 1.91015625 1.80859375 1.91015625 3 4 C2.67272727 10.32727273 2.67272727 10.32727273 0 13 C-1.953125 13.265625 -1.953125 13.265625 -4.25 13.25 C-4.99765625 13.25515625 -5.7453125 13.2603125 -6.515625 13.265625 C-9 13 -9 13 -11.87890625 12.0078125 C-21.32119653 8.9588627 -31.26368449 10.71205883 -40 15 C-42.11937447 16.23003362 -44.01618275 17.5484264 -46 19 C-46.7425 19.33 -47.485 19.66 -48.25 20 C-50.53175016 21.30385724 -50.86870976 22.65267869 -52 25 C-52.8034104 26.21439591 -53.61627319 27.42258068 -54.4375 28.625 C-60.01608033 37.57053414 -61.37323709 47.28698503 -59.53125 57.6328125 C-56.65252812 68.56510155 -50.58280601 77.21006908 -41.02734375 83.24609375 C-31.55177299 88.38889856 -21.79930719 89.22273471 -11.5 86.375 C-1.68625777 83.13397197 5.91536801 76.88627061 11.21875 67.9453125 C13.86729408 62.4676418 15.05819739 56.77493796 16.19140625 50.8203125 C17.02478068 47.91356691 17.555208 46.72780973 20 45 C24.08520705 44.40578807 26.11914496 44.3613801 29.5 46.8125 C32.57210293 53.34071872 30.36540881 60.34511142 28.375 67 C23.30972373 81.03390163 13.53639564 92.56434369 0 99 C-12.92569987 104.606959 -27.69565623 105.09590224 -40.97265625 100.32421875 C-55.70499635 93.88000805 -65.49120705 84.77904748 -72 70 C-74.58901233 63.20770068 -75.52303027 56.93265427 -75.4375 49.6875 C-75.42505249 48.31392334 -75.42505249 48.31392334 -75.41235352 46.91259766 C-75.04345901 32.02816387 -69.44054519 20.64001472 -59.4375 9.75 C-44.52120729 -4.44417264 -18.67498071 -10.58024987 0 0 Z " fill="#000000" transform="translate(362,250)"/>
<path d="M0 0 C1.04307312 -0.0112793 2.08614624 -0.02255859 3.16082764 -0.03417969 C4.86906708 -0.0220343 4.86906708 -0.0220343 6.61181641 -0.00964355 C8.41721893 -0.02015747 8.41721893 -0.02015747 10.25909424 -0.03088379 C13.55689482 -0.04547234 16.85369153 -0.0420542 20.15143585 -0.02936745 C23.60357506 -0.01923506 27.05567159 -0.02863377 30.5078125 -0.03491211 C36.30492854 -0.04218787 42.1018407 -0.03260288 47.89892578 -0.0135498 C54.59966305 0.00821905 61.29991349 0.00116761 68.00063896 -0.02085543 C73.75534162 -0.03901166 79.50989778 -0.04156674 85.26461983 -0.03110075 C88.70096948 -0.02486694 92.13709036 -0.02402678 95.57342529 -0.0372467 C99.40412294 -0.05095457 103.23427597 -0.03195176 107.06494141 -0.00964355 C108.77318085 -0.02178894 108.77318085 -0.02178894 110.51593018 -0.03417969 C111.5590033 -0.02290039 112.60207642 -0.01162109 113.67675781 0 C114.58229401 0.0015081 115.4878302 0.0030162 116.42080688 0.00457001 C119.62563996 0.67185081 120.82954494 1.97344513 122.83837891 4.50793457 C123.33837891 7.50793457 123.33837891 7.50793457 122.83837891 10.50793457 C120.82954494 13.04242401 119.62563996 14.34401833 116.42080688 15.01129913 C115.51527069 15.01280724 114.6097345 15.01431534 113.67675781 15.01586914 C112.11214813 15.03278809 112.11214813 15.03278809 110.51593018 15.05004883 C109.37710388 15.0419519 108.23827759 15.03385498 107.06494141 15.0255127 C105.86133972 15.03252197 104.65773804 15.03953125 103.41766357 15.04675293 C100.11986299 15.06134148 96.82306628 15.05792334 93.52532196 15.04523659 C90.07318275 15.0351042 86.62108622 15.04450291 83.16894531 15.05078125 C77.37182927 15.05805701 71.57491711 15.04847202 65.77783203 15.02941895 C59.07709476 15.00765009 52.37684432 15.01470153 45.67611885 15.03672457 C39.92141619 15.0548808 34.16686003 15.05743588 28.41213799 15.04696989 C24.97578833 15.04073608 21.53966745 15.03989592 18.10333252 15.05311584 C14.27263488 15.06682371 10.44248184 15.0478209 6.61181641 15.0255127 C5.47299011 15.03360962 4.33416382 15.04170654 3.16082764 15.05004883 C1.59621796 15.03312988 1.59621796 15.03312988 0 15.01586914 C-0.90553619 15.01436104 -1.81107239 15.01285294 -2.74404907 15.01129913 C-5.94888215 14.34401833 -7.15278713 13.04242401 -9.16162109 10.50793457 C-9.66162109 7.50793457 -9.66162109 7.50793457 -9.16162109 4.50793457 C-6.32395034 0.92772502 -4.53312413 0.00754958 0 0 Z " fill="#000000" transform="translate(122.16162109375,202.4920654296875)"/>
<path d="M0 0 C1.9375 1 1.9375 1 3 3 C3.58637217 7.01746376 3.93813079 9.55259133 1.69213867 13.01785278 C-0.24244035 15.18535559 -2.26701708 17.19203628 -4.375 19.19140625 C-5.13288818 19.94034653 -5.89077637 20.6892868 -6.67163086 21.46092224 C-9.09626812 23.84750737 -11.54746566 26.20462741 -14 28.5625 C-15.62026366 30.15118747 -17.2387736 31.74166562 -18.85546875 33.33398438 C-25.20554343 39.56062778 -31.56998552 45.71862608 -38.31317139 51.52127075 C-41.08947434 53.95506892 -43.5988858 56.62775386 -46.140625 59.30078125 C-48.92582892 61.84608315 -51.14009672 62.8878387 -54.875 63.375 C-61.91716219 62.52994054 -66.99041825 56.40474152 -71.8125 51.625 C-72.49248047 50.97789062 -73.17246094 50.33078125 -73.87304688 49.6640625 C-76.85259665 46.71718974 -78.76274898 44.74996202 -80.04296875 40.703125 C-80 38 -80 38 -78.5 35.125 C-76 33 -76 33 -72.75 32.25 C-67.42243747 33.31551251 -64.73848364 36.21458979 -61 40 C-60.46632813 40.52078125 -59.93265625 41.0415625 -59.3828125 41.578125 C-58.23902756 42.70252375 -57.11655294 43.84855478 -56 45 C-43.79302696 39.80713585 -33.07493233 25.16542347 -23.875 15.875 C-21.10443053 13.07786343 -18.33055814 10.28406205 -15.5546875 7.4921875 C-14.92456757 6.85376923 -14.29444763 6.21535095 -13.64523315 5.55758667 C-13.06347321 4.9725235 -12.48171326 4.38746033 -11.88232422 3.78466797 C-11.37224823 3.26935516 -10.86217224 2.75404236 -10.3366394 2.22311401 C-7.18565315 -0.66024812 -4.10490881 -0.28806378 0 0 Z " fill="#000000" transform="translate(393,257)"/>
<path d="M0 0 C1.38112221 -0.01051392 1.38112221 -0.01051392 2.79014587 -0.02124023 C5.83371132 -0.03884545 8.87634697 -0.02718835 11.91992188 -0.01367188 C14.03454772 -0.01636606 16.14917235 -0.02024786 18.26379395 -0.02526855 C22.69567662 -0.03116704 27.12723683 -0.02258918 31.55908203 -0.00390625 C37.2423189 0.01888326 42.9248002 0.00576209 48.60800934 -0.01819611 C52.97460634 -0.03264448 57.34102396 -0.02805245 61.70762634 -0.01768494 C63.80321848 -0.015015 65.89882685 -0.01829674 67.99440002 -0.02760315 C70.92248728 -0.03775273 73.84934795 -0.02228963 76.77734375 0 C78.07882607 -0.01214539 78.07882607 -0.01214539 79.40660095 -0.02453613 C85.25642022 0.05803793 85.25642022 0.05803793 88.42687988 2.36242676 C90.43057306 5.31651469 90.47168423 7.019504 89.88867188 10.51757812 C88.25070561 12.9214014 86.95288395 14.30601393 84.03419685 14.88624573 C81.6427131 15.04033064 79.28143303 15.05780468 76.88500977 15.03515625 C75.52092735 15.04567017 75.52092735 15.04567017 74.12928772 15.05639648 C71.1229906 15.07400235 68.11763484 15.06234343 65.11132812 15.04882812 C63.02151814 15.05152252 60.93170938 15.05540451 58.84190369 15.0604248 C54.46129423 15.06632357 50.08101099 15.05774542 45.70043945 15.0390625 C40.08679986 15.01628705 34.47392579 15.02938503 28.86031437 15.05335236 C24.54428855 15.06781202 20.22844395 15.06320327 15.91241264 15.05284119 C13.84276679 15.05017364 11.77310447 15.05344461 9.70347786 15.0627594 C6.80911875 15.07292597 3.91599565 15.05742144 1.02172852 15.03515625 C-0.26033478 15.04730164 -0.26033478 15.04730164 -1.56829834 15.05969238 C-5.57715705 15.00260174 -7.64628406 14.80019738 -11.14698792 12.67272949 C-13.11132812 10.51757812 -13.11132812 10.51757812 -13.67382812 7.51757812 C-12.21434681 -0.26632224 -6.6450107 -0.062011 0 0 Z " fill="#000000" transform="translate(126.111328125,375.482421875)"/>
<path d="M0 0 C0.89948868 -0.0065712 1.79897736 -0.0131424 2.72572327 -0.01991272 C5.70468223 -0.03963662 8.68359085 -0.05130504 11.66259766 -0.0612793 C12.67963398 -0.06535482 13.6966703 -0.06943035 14.74452591 -0.07362938 C20.12541755 -0.09448417 25.50628372 -0.10878963 30.88720703 -0.11816406 C36.4481037 -0.12923972 42.00860146 -0.16365478 47.56935692 -0.20333576 C51.84329989 -0.22945943 56.11714708 -0.23785202 60.39116287 -0.24144554 C62.44129766 -0.24632087 64.49142791 -0.25796165 66.54148483 -0.27648354 C69.40949064 -0.30078904 72.27645433 -0.29992587 75.14453125 -0.29296875 C76.414925 -0.31218384 76.414925 -0.31218384 77.71098328 -0.33178711 C81.70775434 -0.2964356 83.74029757 -0.10336604 87.23257446 2.01887512 C89.20166016 4.17700195 89.20166016 4.17700195 89.76416016 7.17700195 C89.05379771 10.96560168 88.31428732 11.9111605 85.20166016 14.17700195 C82.16753747 14.77419663 79.17450121 14.72336143 76.09033203 14.69458008 C75.16958389 14.70158936 74.24883575 14.70859863 73.30018616 14.71582031 C70.25662071 14.73342553 67.21398506 14.72176843 64.17041016 14.70825195 C62.05578432 14.71094614 59.94115968 14.71482794 57.82653809 14.71984863 C53.39465541 14.72574712 48.9630952 14.71716926 44.53125 14.69848633 C38.84801314 14.67569681 33.16553183 14.68881799 27.48232269 14.71277618 C23.11572569 14.72722456 18.74930807 14.72263253 14.38270569 14.71226501 C12.28711355 14.70959508 10.19150518 14.71287682 8.09593201 14.72218323 C5.16784475 14.7323328 2.24098408 14.71686971 -0.68701172 14.69458008 C-1.98849403 14.70672546 -1.98849403 14.70672546 -3.31626892 14.71911621 C-9.16273091 14.63658954 -9.16273091 14.63658954 -12.34436035 12.33605957 C-14.29808116 9.43492113 -14.23623222 7.60715889 -13.79833984 4.17700195 C-10.35462989 -0.98856298 -5.68597439 0.01796644 0 0 Z " fill="#000000" transform="translate(126.79833984375,317.822998046875)"/>
<path d="M0 0 C1.22394218 -0.01485695 1.22394218 -0.01485695 2.47261047 -0.03001404 C3.36413315 -0.02551239 4.25565582 -0.02101074 5.17419434 -0.01637268 C6.11590988 -0.02323593 7.05762543 -0.03009918 8.02787781 -0.03717041 C11.146464 -0.05549965 14.26455012 -0.05159249 17.38317871 -0.0459137 C19.54646978 -0.05047225 21.70975939 -0.05577684 23.87304688 -0.0617981 C28.40919881 -0.07074102 32.9451748 -0.06829223 37.48132324 -0.05836487 C43.3025382 -0.04686833 49.1231472 -0.06709152 54.94428253 -0.09628201 C59.41204707 -0.11460161 63.87966523 -0.1143601 68.34745789 -0.10864449 C70.49412385 -0.10849078 72.64079943 -0.11457552 74.78742981 -0.12693596 C77.78523118 -0.14176561 80.78189794 -0.13122826 83.77966309 -0.11402893 C85.1169471 -0.12853088 85.1169471 -0.12853088 86.48124695 -0.14332581 C92.46531052 -0.07120463 92.46531052 -0.07120463 95.02832031 2.22763062 C96.31225842 5.15124988 96.38003416 7.23002071 95.97692871 10.38768005 C94.12350096 12.94717552 93.03936478 13.36686803 89.97692871 14.38768005 C87.09754348 14.4946088 84.24200918 14.54494487 81.36218262 14.54881287 C80.04221031 14.55626022 80.04221031 14.55626022 78.6955719 14.56385803 C75.78153708 14.57847521 72.86755668 14.58528065 69.95349121 14.59080505 C67.92951455 14.59655652 65.90553791 14.60231426 63.88156128 14.608078 C59.63632961 14.61858649 55.39111687 14.62443027 51.14587402 14.62791443 C45.70611621 14.63340123 40.26660845 14.65743395 34.82692909 14.68588638 C30.64563261 14.70450872 26.46439643 14.70971813 22.28306198 14.71125031 C20.27759813 14.71427787 18.27213537 14.72230989 16.26671219 14.73543549 C13.46110235 14.75248869 10.65610449 14.75061757 7.85046387 14.74412537 C7.02223618 14.75334015 6.19400848 14.76255493 5.34068298 14.77204895 C0.73396257 14.73865313 -2.27915624 14.37609757 -6.02307129 11.38768005 C-7.42242142 8.58897979 -7.27572534 6.48269213 -7.02307129 3.38768005 C-4.90803977 0.59842392 -3.44985888 0.01182926 0 0 Z " fill="#000000" transform="translate(120.0230712890625,260.61231994628906)"/>
</svg>
