<?xml version="1.0" encoding="UTF-8"?>
<svg version="1.1" xmlns="http://www.w3.org/2000/svg" width="512" height="512">
<path d="M0 0 C1.15551664 -0.00644889 2.31103328 -0.01289778 3.50156558 -0.0195421 C5.39144027 -0.01489629 5.39144027 -0.01489629 7.31949425 -0.01015663 C8.67888369 -0.01389485 10.03827099 -0.01849706 11.39765489 -0.02388728 C15.12751886 -0.03611074 18.85729309 -0.03585761 22.58717251 -0.03349853 C26.61173508 -0.03309021 30.63626893 -0.04413061 34.6608181 -0.05361366 C42.54212835 -0.07021913 50.42340868 -0.07572293 58.30473496 -0.07683842 C64.70854796 -0.07778875 71.11235109 -0.08189826 77.51616096 -0.08823967 C95.66650128 -0.10584788 113.81681794 -0.11507875 131.96716686 -0.11357872 C133.4345842 -0.11345885 133.4345842 -0.11345885 134.93164635 -0.11333656 C135.91111636 -0.1132548 136.89058637 -0.11317304 137.89973728 -0.1130888 C153.78818301 -0.11227517 169.67653411 -0.13143331 185.56495245 -0.1596133 C201.87350745 -0.18831074 218.18201623 -0.20215545 234.49059713 -0.20042574 C243.64903345 -0.19976094 252.80737046 -0.20529325 261.96578407 -0.22678185 C269.7598023 -0.24495199 277.55367615 -0.24937514 285.34770633 -0.235763 C289.32596815 -0.22921324 293.30395264 -0.22918813 297.28218842 -0.2464695 C300.92149401 -0.26211652 304.56030044 -0.2594235 308.19959323 -0.24190123 C310.14489815 -0.23734585 312.09021806 -0.25255378 314.03546393 -0.26838052 C315.76091565 -0.25458414 315.76091565 -0.25458414 317.52122498 -0.24050903 C318.51587757 -0.24094377 319.51053016 -0.24137851 320.53532374 -0.24182642 C323.88793923 0.40187754 325.07156369 1.58228927 327.13477135 4.25726891 C327.81002232 8.38380266 327.68150587 10.40806794 325.40623283 13.94207573 C321.06016142 17.96862551 314.7659132 16.92541686 309.22888756 16.86285973 C307.88756954 16.86559085 306.54625451 16.87053108 305.20495176 16.87748957 C301.52013013 16.89030086 297.83601352 16.87205353 294.15126681 16.84884477 C290.17711498 16.82930718 286.20302218 16.83869259 282.22884178 16.84477806 C275.34256953 16.85157479 268.45650892 16.84066137 261.57027245 16.8182888 C251.60848701 16.78638693 241.64689957 16.78673009 231.68507665 16.79592925 C215.51577726 16.81044831 199.34654478 16.80635147 183.17725182 16.78705406 C182.20944107 16.78590562 181.24163033 16.78475717 180.24449199 16.78357393 C172.39154477 16.7741162 164.53859877 16.7637595 156.68565273 16.75336552 C149.82119927 16.74431799 142.95674548 16.7356294 136.09229088 16.72748375 C135.12565795 16.72633011 134.15902502 16.72517647 133.16310018 16.72398788 C117.05457268 16.70536977 100.94610312 16.70626987 84.83757257 16.72114515 C74.89878383 16.7293713 64.96030922 16.71983926 55.02156794 16.68754947 C48.21418365 16.6665426 41.40693839 16.66307394 34.5995301 16.6734978 C30.66968685 16.67887543 26.74029497 16.6759095 22.81051636 16.65115738 C19.21421722 16.62863257 15.61867896 16.62898585 12.02236444 16.64764303 C10.10258029 16.651552 8.18279532 16.63068805 6.26312971 16.60899973 C5.1241544 16.61935487 3.98517909 16.62971002 2.81168938 16.64037895 C1.82902548 16.63880775 0.84636159 16.63723655 -0.16608 16.63561773 C-3.68724881 17.19534638 -3.68724881 17.19534638 -7.86522865 22.25726891 C-8.19522865 36.11726891 -8.52522865 49.97726891 -8.86522865 64.25726891 C149.86477135 64.25726891 308.59477135 64.25726891 472.13477135 64.25726891 C472.90273677 41.15107148 472.90273677 41.15107148 468.13477135 19.25726891 C464.94765635 17.13252557 464.16835014 17.00719875 460.51773643 17.00571251 C459.09619003 16.99763824 459.09619003 16.99763824 457.64592552 16.98940086 C456.60793312 16.99352486 455.56994072 16.99764885 454.500494 17.00189781 C453.40593391 16.99827736 452.31137383 16.99465691 451.18364525 16.99092674 C448.80352806 16.98402574 446.42339502 16.98152862 444.0432682 16.98287392 C440.27779188 16.98383679 436.51260287 16.9709252 432.74716759 16.95389366 C422.04011894 16.90754705 411.33312125 16.88292843 400.62598228 16.87640953 C394.08017699 16.87225597 387.53461535 16.84718359 380.98890877 16.81108284 C378.49224581 16.80126842 375.99554177 16.79896178 373.49886513 16.80425453 C370.00819641 16.81130704 366.51842194 16.79407867 363.02783775 16.77142906 C361.99389381 16.77960152 360.95994987 16.78777397 359.8946743 16.79619408 C355.445042 16.7447474 352.85963821 16.69731811 348.99326134 14.3501339 C346.98628831 12.0900606 346.47343544 11.23397393 346.57227135 8.25726891 C346.57098228 7.59726891 346.56969322 6.93726891 346.5683651 6.25726891 C347.45452242 3.12821685 348.45613539 2.18136624 351.13477135 0.25726891 C354.81076759 -0.36238293 358.46608763 -0.28857924 362.18628502 -0.26030922 C363.31358025 -0.2673185 364.44087547 -0.27432777 365.60233116 -0.28154945 C369.33605011 -0.29918041 373.06901316 -0.28748387 376.8027401 -0.27398109 C379.39863289 -0.27667546 381.99452471 -0.28055742 384.59041405 -0.28557777 C390.03702875 -0.29148056 395.48335946 -0.2832697 400.92993736 -0.26421547 C407.20910315 -0.24250085 413.48774828 -0.24945771 419.7669012 -0.27152109 C425.82178506 -0.2919384 431.87641638 -0.2896759 437.93133545 -0.27799416 C440.50007068 -0.27533143 443.06881925 -0.27858058 445.63753891 -0.28791237 C449.23747373 -0.29811553 452.8364232 -0.28251975 456.43628502 -0.26030922 C457.49167976 -0.26840614 458.54707451 -0.27650307 459.63445091 -0.28484535 C467.41925347 -0.19624505 473.68140088 1.31004129 479.6933651 6.44086266 C480.31340416 7.18465172 480.93344322 7.92844078 481.57227135 8.69476891 C482.21035728 9.43597984 482.84844322 10.17719078 483.5058651 10.94086266 C486.84160691 15.6844955 487.38562469 19.62432366 487.39204025 25.37822247 C487.39554633 26.08733512 487.3990524 26.79644777 487.40266472 27.52704868 C487.41198768 29.90931202 487.40705314 32.29133139 487.40219688 34.67360497 C487.40593269 36.39638728 487.41053394 38.1191679 487.41592753 39.84194583 C487.4281815 44.58108141 487.42789424 49.32014653 487.42553878 54.05929434 C487.42513122 59.16848444 487.43616394 64.27765176 487.44565392 69.38683128 C487.46227798 79.39856838 487.4677641 89.41028193 487.46887867 99.42203168 C487.46982847 107.55876647 487.47393535 115.69549347 487.48027992 123.8322258 C487.49789609 146.89325057 487.50711819 169.95425672 487.50561897 193.01528827 C487.50549911 194.88074129 487.50549911 194.88074129 487.50537682 196.78388023 C487.50529505 198.02903122 487.50521329 199.2741822 487.50512905 200.55706503 C487.50431603 220.73987029 487.52345697 240.92260095 487.55165355 261.10538463 C487.5803665 281.8209742 487.59419472 302.53652738 487.592466 323.25213736 C487.59180155 334.88557662 487.59731778 346.51893766 487.6188221 358.15235901 C487.63701297 368.05687294 487.64139844 377.96127322 487.62780325 387.8657966 C487.62126307 392.91994206 487.62119433 397.97386932 487.63850975 403.02799416 C487.65419901 407.65502127 487.65141932 412.28165642 487.63394149 416.90867373 C487.63086244 418.58227772 487.63453795 420.25591067 487.64566164 421.92948053 C487.70451076 431.4116265 487.7464529 438.88489761 481.2402401 446.46430016 C480.60731041 446.99410484 479.97438072 447.52390953 479.32227135 448.06976891 C478.69707603 448.61246422 478.07188072 449.15515953 477.4277401 449.71430016 C471.68773787 453.57682295 466.75079979 454.70004103 459.89594269 454.63758564 C459.09027302 454.64224556 458.28460335 454.64690548 457.45451945 454.65170661 C454.75573942 454.66365424 452.05746303 454.6542621 449.35867882 454.64494896 C447.40389318 454.64912198 445.44910996 454.65459931 443.49433124 454.66126877 C438.12312803 454.67574632 432.75207797 454.6714714 427.38086629 454.66410196 C421.58797396 454.65937831 415.79511515 454.67187304 410.00223351 454.68211937 C398.65356406 454.69932857 387.30494993 454.70014296 375.95627083 454.69490647 C366.7331102 454.69086741 357.50996595 454.69230518 348.28680611 454.69765472 C346.31884467 454.69877736 346.31884467 454.69877736 344.31112643 454.69992267 C342.31411965 454.70107019 340.31711286 454.70221774 338.32010608 454.70338191 C319.75353073 454.71408704 301.18696143 454.71881206 282.62038422 454.71091175 C281.92049753 454.71061458 281.22061085 454.7103174 280.49951547 454.71001123 C274.8159638 454.7075623 269.13241219 454.70495071 263.44886059 454.70232709 C241.28049608 454.69222523 219.11220732 454.70057885 196.94385338 454.72382164 C172.0353905 454.74989511 147.12697323 454.7627419 122.2184962 454.75563389 C109.03072437 454.75213834 95.84301474 454.75439592 82.65525246 454.77188492 C71.4285357 454.78658841 60.20192496 454.78726656 48.97521032 454.76981401 C43.24652651 454.76128635 37.5180322 454.75919765 31.78935814 454.77446556 C26.54494356 454.78826987 21.30088162 454.78360418 16.05648766 454.76422632 C14.15951134 454.76045293 12.26250705 454.76342669 10.36555554 454.77383798 C-9.45460852 454.87488212 -9.45460852 454.87488212 -17.4238224 448.07367516 C-18.353881 446.95799156 -18.353881 446.95799156 -19.30272865 445.81976891 C-19.94081459 445.07855797 -20.57890053 444.33734703 -21.2363224 443.57367516 C-24.57206422 438.83004231 -25.116082 434.89021416 -25.12249756 429.13631535 C-25.12775667 428.07264637 -25.12775667 428.07264637 -25.13312203 426.98748913 C-25.14244498 424.60522579 -25.13751045 422.22320642 -25.13265419 419.84093285 C-25.13639 418.11815053 -25.14099124 416.39536991 -25.14638484 414.67259198 C-25.15863881 409.9334564 -25.15835155 405.19439129 -25.15599608 400.45524347 C-25.15558852 395.34605337 -25.16662125 390.23688605 -25.17611122 385.12770653 C-25.19273529 375.11596943 -25.1982214 365.10425588 -25.19933598 355.09250613 C-25.20028578 346.95577135 -25.20439266 338.81904434 -25.21073723 330.68231201 C-25.2283534 307.62128724 -25.2375755 284.56028109 -25.23607628 261.49924954 C-25.23599637 260.25561419 -25.23591646 259.01197884 -25.23583412 257.73065758 C-25.23575236 256.48550659 -25.2356706 255.24035561 -25.23558636 253.95747278 C-25.23477333 233.77466752 -25.25391428 213.59193686 -25.28211085 193.40915319 C-25.3108238 172.69356361 -25.32465203 151.97801044 -25.3229233 131.26240045 C-25.32225886 119.6289612 -25.32777508 107.99560015 -25.3492794 96.3621788 C-25.36747027 86.45766487 -25.37185575 76.5532646 -25.35826056 66.64874121 C-25.35172037 61.59459575 -25.35165164 56.5406685 -25.36896706 51.48654366 C-25.38465631 46.85951654 -25.38187663 42.2328814 -25.36439879 37.60586409 C-25.36131975 35.93226009 -25.36499526 34.25862714 -25.37611894 32.58505728 C-25.43617475 22.90848365 -25.41978307 15.47430396 -18.71679115 7.79633141 C-17.98202553 7.16469078 -17.2472599 6.53305016 -16.49022865 5.88226891 C-15.76061928 5.23515953 -15.0310099 4.58805016 -14.27929115 3.92133141 C-9.79462614 0.82996037 -5.37412973 0.00760956 0 0 Z M-9.86522865 80.25726891 C-9.93134976 124.47126359 -9.98674812 168.68521169 -10.01842464 212.89924166 C-10.02217682 218.11762388 -10.02605978 223.33600599 -10.03002357 228.55438805 C-10.03081051 229.59328581 -10.03159744 230.63218358 -10.03240822 231.7025631 C-10.0454666 248.53021882 -10.06912283 265.35784383 -10.09668704 282.18548132 C-10.12472919 299.44871264 -10.14140239 316.71192787 -10.14749414 333.97518104 C-10.15161305 344.62984755 -10.16462821 355.28442726 -10.18897805 365.93906706 C-10.20482054 373.24266991 -10.20963238 380.54622781 -10.20573279 387.84984661 C-10.20380892 392.06535304 -10.20678418 396.28070768 -10.22284508 400.49618721 C-10.23744359 404.35599962 -10.2381814 408.21555813 -10.22792534 412.07538223 C-10.22665775 413.47119578 -10.23046381 414.86702517 -10.2398782 416.26280756 C-10.54478215 427.66282595 -10.54478215 427.66282595 -5.00913048 437.17222118 C-2.35793998 438.5140122 -0.53185437 438.626834 2.43720055 438.61803246 C3.51129677 438.62215645 4.58539299 438.62628044 5.69203758 438.6305294 C7.45178162 438.61435066 7.45178162 438.61435066 9.24707603 438.59784508 C10.4863636 438.59828316 11.72565117 438.59872124 13.0024929 438.59917259 C16.39699082 438.59744109 19.79094088 438.58239969 23.18534184 438.56145072 C26.73408137 438.54269234 30.28282826 438.54093415 33.83160973 438.5373745 C40.54995585 438.52805154 47.26815546 438.50343446 53.98643708 438.47332603 C61.63569856 438.43978974 69.28496704 438.42329796 76.93428373 438.40823972 C92.66786445 438.37688505 108.401299 438.32411978 124.13477135 438.25726891 C124.13623791 437.10044452 124.13770447 435.94362013 124.13921547 434.75174046 C124.17489681 407.30757758 124.23110799 379.86352068 124.3126923 352.41945408 C124.32271008 349.04353407 124.33255415 345.66761357 124.34229088 342.29169273 C124.34520294 341.28354065 124.34520294 341.28354065 124.34817383 340.25502185 C124.37921763 329.36418967 124.3961811 318.47337859 124.40796557 307.58251049 C124.42036484 296.41226928 124.44813694 285.24212511 124.48938441 274.0719493 C124.51207008 267.7957755 124.52767778 261.51976016 124.5266552 255.24354172 C124.52591278 249.34118603 124.54369475 243.4391816 124.57593918 237.53691673 C124.58448681 235.36607844 124.58615544 233.19520097 124.58057404 231.02435303 C124.57398563 228.06911988 124.59173038 225.11502135 124.61578941 222.15990257 C124.608029 221.29317773 124.60026858 220.42645289 124.592273 219.53346366 C124.67568771 213.77891586 124.67568771 213.77891586 126.94455147 211.2008543 C130.36174749 209.72866592 132.61704818 210.23393126 136.13477135 211.25726891 C139.80549902 215.59755145 139.56432158 219.88680159 139.53349876 225.28652 C139.54014559 226.19734075 139.54679242 227.1081615 139.55364066 228.04658288 C139.57229572 231.09910282 139.56966366 234.15123165 139.56714439 237.20380211 C139.57616001 239.39170957 139.58648673 241.57961196 139.59802818 243.76750755 C139.62564775 249.70918401 139.63488947 255.65076476 139.64088225 261.59249711 C139.65025298 267.80120223 139.67645532 274.00983549 139.70088768 280.21849632 C139.74210682 291.3077846 139.77054948 302.39705649 139.79225735 313.4863989 C139.81209719 323.55205747 139.83884405 333.61767177 139.87232018 343.6832943 C139.874519 344.3450937 139.87671783 345.0068931 139.87898328 345.68874703 C139.89005297 349.00885802 139.90125248 352.32896857 139.91249979 355.64907897 C140.00540263 383.18510319 140.07705757 410.72115004 140.13477135 438.25726891 C181.45271856 438.34877931 222.77065411 438.41928468 264.08868254 438.46153022 C268.96415307 438.46653319 273.83962339 438.47171046 278.71509361 438.47699547 C280.17105099 438.47856933 280.17105099 438.47856933 281.65642164 438.48017499 C297.38290041 438.49759093 313.10932084 438.52913516 328.83576497 438.56588009 C344.96671249 438.60325643 361.0976294 438.62549775 377.22861844 438.63362288 C387.18621995 438.63911753 397.14365654 438.65648585 407.10120729 438.68893477 C413.92497215 438.71004186 420.74865146 438.7164776 427.57244661 438.71127442 C431.51232265 438.70870668 435.45191006 438.71270491 439.39173508 438.73409081 C442.99739115 438.75352027 446.60256379 438.75456284 450.20824186 438.74086449 C452.1332247 438.73836742 454.05820166 438.75565188 455.9831025 438.77359414 C457.69619071 438.76164785 457.69619071 438.76164785 459.44388676 438.74946022 C460.92194814 438.75173854 460.92194814 438.75173854 462.42986935 438.75406289 C466.01597939 438.09542243 467.60819435 436.86725721 470.13477135 434.25726891 C471.99703162 430.14519658 472.38409276 426.56471556 472.380867 422.08413696 C472.3848491 420.85996901 472.3888312 419.63580106 472.39293396 418.37453711 C472.38722866 417.02446265 472.38133748 415.67438896 472.37528038 414.32431602 C472.37615283 412.8837064 472.37790453 411.44309708 472.38045871 410.00248945 C472.38492858 406.04825713 472.37693351 402.09413325 472.36690259 398.13991475 C472.35826521 393.87413174 472.36118846 389.60835483 472.36270714 385.34256554 C472.36375581 377.95326476 472.35748109 370.56399931 472.34623146 363.17470741 C472.32997698 352.49103811 472.32476851 341.80738588 472.32225548 331.12370555 C472.3178783 313.79012454 472.30456855 296.45656235 472.28565025 279.12299156 C472.26729206 262.28510188 472.25315819 245.44721734 472.24463463 228.60931969 C472.24409863 227.56083662 472.24356264 226.51235355 472.2430104 225.43209827 C472.23885155 217.23226461 472.23493771 209.03243083 472.23110127 200.83259702 C472.21223412 160.6408037 472.17199746 120.44905751 472.13477135 80.25726891 C362.57477135 80.25726891 253.01477135 80.25726891 140.13477135 80.25726891 C139.80477135 114.57726891 139.47477135 148.89726891 139.13477135 184.25726891 C136.13477135 189.25726891 136.13477135 189.25726891 132.69727135 190.25726891 C128.75965289 190.25726891 127.86720603 189.93935268 125.13477135 187.25726891 C124.62696266 185.21706676 124.62696266 185.21706676 124.61578941 182.83437157 C124.6018829 181.93181035 124.58797638 181.02924913 124.57364845 180.09933758 C124.58118456 178.6119069 124.58118456 178.6119069 124.58887291 177.09442711 C124.57847858 176.03346164 124.56808426 174.97249617 124.55737495 173.87938023 C124.52818877 170.43877568 124.52630581 166.99876644 124.52539635 163.55805016 C124.51140654 161.43641482 124.49563122 159.31479047 124.47803307 157.19318199 C124.42528116 149.3188263 124.40714047 141.44426953 124.38477135 133.56976891 C124.30227135 115.97664391 124.21977135 98.38351891 124.13477135 80.25726891 C79.91477135 80.25726891 35.69477135 80.25726891 -9.86522865 80.25726891 Z " fill="#000000" transform="translate(24.8652286529541,28.74273109436035)"/>
<path d="M0 0 C0.67690514 -0.00297112 1.35381027 -0.00594224 2.05122769 -0.0090034 C4.32429487 -0.01768989 6.59730938 -0.0191986 8.87039185 -0.02069092 C10.49817009 -0.02531909 12.12594725 -0.03034374 13.75372314 -0.03573608 C18.1793595 -0.04886122 22.60498068 -0.05530513 27.03063345 -0.05974674 C29.79476851 -0.06267696 32.55889941 -0.06678164 35.32303238 -0.07125092 C43.96905749 -0.08492543 52.61507311 -0.09459261 61.26110828 -0.09845281 C71.2462173 -0.10293522 81.23118955 -0.12049179 91.21625698 -0.1494534 C98.93183355 -0.17105673 106.6473716 -0.18115635 114.3629781 -0.18249393 C118.97250634 -0.18354282 123.581906 -0.18946857 128.19140244 -0.20731354 C132.5268642 -0.22377118 136.86210041 -0.22596101 141.19758224 -0.21717453 C142.78869734 -0.21640295 144.37982445 -0.22076285 145.97090912 -0.23063278 C148.14347328 -0.24331938 150.31523454 -0.23749414 152.48779297 -0.22705078 C153.70342863 -0.22851734 154.91906429 -0.2299839 156.1715374 -0.2314949 C159.68009146 0.17638899 161.56468928 1.03211199 164.37088013 3.14044189 C165.79750231 5.99368627 165.6812188 7.97498738 165.37088013 11.14044189 C163.78309631 13.80039883 163.78309631 13.80039883 161.37088013 16.14044189 C158.23490906 16.76685429 158.23490906 16.76685429 154.46292114 16.76863098 C153.42072214 16.77927256 153.42072214 16.77927256 152.35746861 16.79012913 C150.02934507 16.80773138 147.70288629 16.78959531 145.37478638 16.77154541 C143.70582315 16.77668344 142.03686534 16.78396383 140.36791992 16.79322815 C135.83477113 16.81176545 131.3022094 16.79878908 126.76908493 16.77913785 C122.0277003 16.76276916 117.28635337 16.77156176 112.54495239 16.7766571 C104.58221036 16.78118006 96.61970307 16.76529574 88.65701294 16.73736572 C79.44785834 16.70531288 70.23912718 16.70532888 61.02994251 16.72258049 C52.17509966 16.73843808 43.32041222 16.73171698 34.46557617 16.71464348 C30.69529083 16.70776651 26.92512981 16.70881204 23.15484619 16.71618843 C18.71583675 16.72384327 14.27730984 16.7117516 9.83838272 16.68433952 C8.20816607 16.67744615 6.57790444 16.67736793 4.94768906 16.68455505 C2.72419856 16.693229 0.50220432 16.67733135 -1.72116089 16.65510559 C-2.9659169 16.65229867 -4.21067291 16.64949175 -5.4931488 16.64659977 C-9.22333166 16.04453381 -10.4223769 15.1645325 -12.62911987 12.14044189 C-13.0983067 8.38694728 -13.16048368 6.10195736 -11.31661987 2.76544189 C-7.99761111 -0.43064062 -4.36784441 0.01069476 0 0 Z " fill="#000000" transform="translate(248.62911987304688,354.85955810546875)"/>
<path d="M0 0 C1.09604533 -0.01041829 1.09604533 -0.01041829 2.21423298 -0.02104706 C4.66958359 -0.03938469 7.12397533 -0.02903459 9.57936096 -0.01878357 C11.33684515 -0.02583868 13.09432327 -0.03458197 14.85179138 -0.04489136 C19.63075462 -0.0674415 24.40938756 -0.06443248 29.18838382 -0.05556989 C33.17464682 -0.05046871 37.16084728 -0.0577455 41.14710385 -0.06504196 C50.54954567 -0.08205899 59.95182527 -0.07845716 69.35426331 -0.06175232 C79.0616008 -0.04482903 88.76848871 -0.06066431 98.47577709 -0.0929752 C106.80367823 -0.11964694 115.13143921 -0.12695365 123.45937878 -0.11846012 C128.43612935 -0.11352384 133.41260933 -0.11578426 138.3893261 -0.13624763 C143.06884905 -0.15456685 147.74772391 -0.14869237 152.42721176 -0.12404823 C154.14612947 -0.11902832 155.86509624 -0.12256062 157.58397484 -0.13519669 C159.92815321 -0.15106815 162.27018198 -0.1362357 164.61425781 -0.11352539 C165.92668174 -0.11293908 167.23910566 -0.11235277 168.59130001 -0.1117487 C171.87062073 0.5146637 171.87062073 0.5146637 174.32804966 2.82736301 C175.87062073 5.5146637 175.87062073 5.5146637 175.80812073 9.1396637 C174.55735522 13.64241953 174.55735522 13.64241953 171.87062073 15.5146637 C168.73275852 15.89498043 168.73275852 15.89498043 164.77920532 15.90234375 C164.05259199 15.90772929 163.32597866 15.91311483 162.57734674 15.91866356 C160.1359527 15.93300224 157.69509635 15.92582511 155.25367737 15.91871643 C153.5060482 15.92441694 151.75842276 15.93137995 150.01080322 15.93951416 C145.25874429 15.95749632 140.5068695 15.95626769 135.75478673 15.95057178 C131.79090107 15.94748714 127.82705115 15.95356429 123.86317056 15.95961052 C114.51349171 15.97367082 105.16390419 15.97208203 95.81422424 15.96070862 C86.16147975 15.94922618 76.50901306 15.96330177 66.85630518 15.99010509 C58.57512675 16.01224094 50.29403565 16.01890424 42.01282972 16.01302868 C37.06405866 16.00965279 32.11546569 16.01211598 27.16671944 16.02927971 C22.51354607 16.04471307 17.86078511 16.04083362 13.20762825 16.02197456 C11.49838339 16.01827861 9.78910822 16.02142634 8.0798912 16.03186035 C5.74912116 16.04500395 3.41972979 16.03358343 1.08901978 16.01586914 C-0.21602981 16.01565986 -1.52107939 16.01545057 -2.86567593 16.01523495 C-6.12937927 15.5146637 -6.12937927 15.5146637 -8.55318546 13.70208836 C-10.84018229 10.52821898 -10.60642944 8.33106508 -10.12937927 4.5146637 C-7.77031312 -0.25377559 -5.03113644 0.01076334 0 0 Z " fill="#000000" transform="translate(196.12937927246094,242.48533630371094)"/>
<path d="M0 0 C1.39575256 -0.00810448 1.39575256 -0.00810448 2.81970215 -0.01637268 C5.8957499 -0.0288808 8.97086553 -0.01235483 12.046875 0.00561523 C14.18391977 0.0054603 16.32096483 0.00397216 18.45800781 0.00120544 C22.93697531 -0.00017949 27.41562294 0.01239549 31.89453125 0.03515625 C37.63820526 0.06354092 43.38134769 0.0608047 49.12506104 0.04806614 C53.53796943 0.041114 57.95075477 0.04889297 62.36364746 0.06132317 C64.48156258 0.06584217 66.5994909 0.06617056 68.71740723 0.06225777 C71.67646399 0.05935015 74.63478602 0.07583134 77.59375 0.09765625 C78.47075562 0.0931546 79.34776123 0.08865295 80.25134277 0.08401489 C83.79075981 0.12742992 86.15676513 0.15945777 89.31347656 1.84727478 C91.53801804 4.32830578 91.73099916 6.20791704 91.796875 9.50170898 C90.19275652 13.03076965 89.05528138 14.32943806 85.796875 16.50170898 C82.80311574 16.70721846 79.90161777 16.79539149 76.90673828 16.79223633 C75.99749603 16.79895355 75.08825378 16.80567078 74.15145874 16.81259155 C71.13997969 16.83161903 68.12872295 16.83549818 65.1171875 16.83764648 C63.02594917 16.84407123 60.93471176 16.85079934 58.84347534 16.8578186 C54.4569897 16.86980334 50.07058289 16.87349821 45.68408203 16.87231445 C40.06262287 16.87211123 34.44166905 16.89941214 28.82032967 16.93385887 C24.50004758 16.95609436 20.17988774 16.96015302 15.85955429 16.959095 C13.78710056 16.96145606 11.71464372 16.97030788 9.64224625 16.98575974 C6.74307104 17.0053512 3.84499359 16.99960841 0.94580078 16.98754883 C0.08952087 16.99878784 -0.76675903 17.01002686 -1.64898682 17.02160645 C-5.70710324 16.97870184 -7.71806813 16.80647733 -11.23562622 14.59634399 C-13.203125 12.50170898 -13.203125 12.50170898 -13.83203125 10.50170898 C-13.81011719 9.84170898 -13.78820312 9.18170898 -13.765625 8.50170898 C-13.76691406 7.84170898 -13.76820313 7.18170898 -13.76953125 6.50170898 C-11.78661276 -0.50004457 -6.06519769 -0.06686176 0 0 Z " fill="#000000" transform="translate(199.203125,392.498291015625)"/>
<path d="M0 0 C1.33460266 -0.00744736 1.33460266 -0.00744736 2.69616699 -0.01504517 C5.64266734 -0.02966304 8.58911386 -0.03646789 11.53564453 -0.04199219 C13.58204144 -0.04774359 15.62843833 -0.05350133 17.67483521 -0.05926514 C21.9671453 -0.06977381 26.25943666 -0.07561747 30.55175781 -0.07910156 C36.05204857 -0.08458844 41.55209205 -0.10862125 47.05230522 -0.13707352 C51.27992476 -0.15569513 55.50748466 -0.16090523 59.73514175 -0.16243744 C61.76293414 -0.16546516 63.79072546 -0.17349771 65.81847763 -0.18662262 C68.65521839 -0.20367429 71.49135381 -0.20180507 74.328125 -0.1953125 C75.16570343 -0.20452728 76.00328186 -0.21374207 76.86624146 -0.22323608 C81.51128637 -0.18992726 84.50052442 0.18198782 88.29345703 3.16113281 C90.24009335 5.72715341 90.30116439 6.97230255 90.16845703 10.22363281 C89.29345703 13.16113281 89.29345703 13.16113281 87.81396484 14.81947327 C83.98236236 16.85902499 80.36837666 16.58714464 76.09033203 16.56518555 C75.15983032 16.5720488 74.22932861 16.57891205 73.27062988 16.58598328 C70.19475041 16.6042853 67.11937927 16.60040924 64.04345703 16.59472656 C61.90641107 16.59928639 59.76936657 16.60459136 57.63232422 16.61061096 C53.15342247 16.61954851 48.67469897 16.61711115 44.19580078 16.60717773 C38.45205924 16.5956813 32.70893184 16.61590694 26.965271 16.64509487 C22.55236901 16.6634266 18.13961507 16.66317054 13.72668457 16.65745735 C11.60875588 16.6573038 9.49081736 16.66337609 7.3729248 16.67574883 C4.41374986 16.69060143 1.45572073 16.68002412 -1.50341797 16.6628418 C-2.81892639 16.67734375 -2.81892639 16.67734375 -4.16101074 16.69213867 C-10.09359185 16.61988667 -10.09359185 16.61988667 -13.25073242 14.25697327 C-15.71550933 10.70858632 -15.17836652 8.40754478 -14.70654297 4.16113281 C-11.29562002 -0.87403915 -5.4677281 0.0072623 0 0 Z " fill="#000000" transform="translate(200.70654296875,429.8388671875)"/>
<path d="M0 0 C1.39575256 -0.00810448 1.39575256 -0.00810448 2.81970215 -0.01637268 C5.8957499 -0.0288808 8.97086553 -0.01235483 12.046875 0.00561523 C14.18391977 0.0054603 16.32096483 0.00397216 18.45800781 0.00120544 C22.93697531 -0.00017949 27.41562294 0.01239549 31.89453125 0.03515625 C37.63820526 0.06354092 43.38134769 0.0608047 49.12506104 0.04806614 C53.53796943 0.041114 57.95075477 0.04889297 62.36364746 0.06132317 C64.48156258 0.06584217 66.5994909 0.06617056 68.71740723 0.06225777 C71.67646399 0.05935015 74.63478602 0.07583134 77.59375 0.09765625 C78.47075562 0.0931546 79.34776123 0.08865295 80.25134277 0.08401489 C83.79075981 0.12742992 86.15676513 0.15945777 89.31347656 1.84727478 C91.53801804 4.32830578 91.73099916 6.20791704 91.796875 9.50170898 C90.62737354 12.21002815 89.63857938 13.89632876 87.23484802 15.62516785 C83.54080425 16.9533127 79.85412247 16.78782944 75.97680664 16.77636719 C74.64198494 16.78403358 74.64198494 16.78403358 73.28019714 16.79185486 C70.3390734 16.80575302 67.39818393 16.80479394 64.45703125 16.80249023 C62.41206271 16.80637698 60.36709498 16.8107116 58.3221283 16.81547546 C54.0357705 16.82293811 49.74949507 16.82264601 45.46313477 16.81738281 C39.97069709 16.81158749 34.47859656 16.82852058 28.98621464 16.85172749 C24.76287363 16.86646015 20.53961391 16.86733717 16.31625175 16.86421776 C14.29125742 16.86473118 12.26625856 16.86997288 10.24128914 16.88002968 C7.40941591 16.89236788 4.57820061 16.88561809 1.74633789 16.87402344 C0.91033051 16.88166718 0.07432312 16.88931091 -0.78701782 16.89718628 C-5.85022749 16.85137207 -9.44654231 16.25829168 -13.203125 12.50170898 C-13.78933336 5.34996702 -13.78933336 5.34996702 -11.75170898 2.401474 C-7.9624231 -0.4231348 -4.61174922 -0.05083918 0 0 Z " fill="#000000" transform="translate(199.203125,317.498291015625)"/>
<path d="M0 0 C0.93035568 -0.00671722 1.86071136 -0.01343445 2.81925964 -0.02035522 C5.90047518 -0.03938251 8.98147348 -0.04326169 12.06274414 -0.04541016 C14.20121857 -0.05183434 16.33969211 -0.05856241 18.47816467 -0.06558228 C22.96300292 -0.07756657 27.44776406 -0.08126187 31.93261719 -0.08007812 C37.68420627 -0.07987477 43.43530215 -0.10718915 49.18677425 -0.14162254 C53.60395079 -0.16384005 58.02100763 -0.16791726 62.43823433 -0.16685867 C64.55896265 -0.16922193 66.67969391 -0.178086 68.80036736 -0.19352341 C71.76440036 -0.21308087 74.72735656 -0.20738576 77.69140625 -0.1953125 C78.56998291 -0.20655151 79.44855957 -0.21779053 80.35375977 -0.22937012 C86.2975553 -0.16772961 86.2975553 -0.16772961 89.45558167 2.19369507 C91.91842113 5.74338906 91.38225125 8.04386963 90.91040039 12.29052734 C89.09876772 14.96484224 88.03278962 15.24973093 84.91040039 16.29052734 C82.0005001 16.3975153 79.11420091 16.4477946 76.20385742 16.45166016 C75.31412231 16.45662506 74.42438721 16.46158997 73.50769043 16.46670532 C70.56119008 16.4813232 67.61474356 16.48812805 64.66821289 16.49365234 C62.62181598 16.49940375 60.57541909 16.50516148 58.52902222 16.51092529 C54.23671212 16.52143397 49.94442076 16.52727763 45.65209961 16.53076172 C40.15180885 16.5362486 34.65176537 16.56028141 29.1515522 16.58873367 C24.92393266 16.60735528 20.69637276 16.61256538 16.46871567 16.6140976 C14.44092328 16.61712532 12.41313197 16.62515787 10.38537979 16.63828278 C7.54863903 16.65533445 4.71250361 16.65346522 1.87573242 16.64697266 C1.03815399 16.65618744 0.20057556 16.66540222 -0.66238403 16.67489624 C-5.27837085 16.64179579 -8.36743914 16.33024788 -12.08959961 13.29052734 C-13.76314412 9.94343832 -14.31516091 8.19277253 -13.40209961 4.54052734 C-10.27478586 -0.82058194 -5.50006023 -0.00566102 0 0 Z " fill="#000000" transform="translate(384.089599609375,317.70947265625)"/>
<path d="M0 0 C3.73751919 0.07299842 5.5012961 0.2869937 8.5625 2.6015625 C11.0877336 7.98140799 9.62539897 12.79108301 7.81359863 18.21716309 C6.20922706 22.55257894 4.47321376 26.83437025 2.734375 31.1171875 C2.09698186 32.70635813 1.46021248 34.29577908 0.82403564 35.88543701 C-0.50687206 39.2033595 -1.84598103 42.51781877 -3.19091797 45.83007812 C-4.90990901 50.06575194 -6.60691842 54.30983777 -8.29776382 58.55681229 C-9.60632338 61.83598235 -10.92699324 65.11016973 -12.25127411 68.38301849 C-12.88184808 69.94590044 -13.50855509 71.5103486 -14.13123322 73.07639313 C-15.00387563 75.26611911 -15.89279383 77.44853339 -16.78613281 79.62988281 C-17.03775681 80.2710202 -17.2893808 80.91215759 -17.54862976 81.57272339 C-19.32252063 85.83740957 -21.50173255 88.66087016 -25 91.6640625 C-27.89247162 92.26798515 -30.25948508 91.72948947 -33 90.6640625 C-35.0625 88.5390625 -35.0625 88.5390625 -36 85.6640625 C-35.57148324 79.84143697 -33.77593272 74.97408616 -31.60546875 69.62890625 C-31.26177246 68.76468552 -30.91807617 67.90046478 -30.56396484 67.01005554 C-29.44598646 64.20415607 -28.31712405 61.40279154 -27.1875 58.6015625 C-26.41323016 56.66804143 -25.63955233 54.73428319 -24.86645508 52.80029297 C-23.31539156 48.9222996 -21.76028118 45.04596051 -20.203125 41.17041016 C-18.22340765 36.23451353 -16.27731707 31.28615091 -14.34375 26.33203125 C-13.54197189 24.28796625 -12.73931993 22.24424743 -11.93618774 20.20071411 C-11.20446071 18.3323689 -10.48043269 16.46101422 -9.7565918 14.58959961 C-9.31484619 13.47206299 -8.87310059 12.35452637 -8.41796875 11.203125 C-8.04438232 10.24615723 -7.6707959 9.28918945 -7.28588867 8.30322266 C-5.60755768 4.85861319 -3.78359586 1.25627206 0 0 Z " fill="#000000" transform="translate(270,129.3359375)"/>
<path d="M0 0 C2.59794724 1.70210337 2.9465106 2.78751188 3.7109375 5.82421875 C4.03865655 9.42469965 3.63652361 10.56963272 1.8125 13.625 C1.27882812 14.56988281 0.74515625 15.51476562 0.1953125 16.48828125 C-1.51053866 19.31596064 -3.40040634 21.98193066 -5.3203125 24.66796875 C-11.90702936 33.46631509 -11.90702936 33.46631509 -13.56640625 43.8046875 C-12.05441868 46.82866263 -10.40157627 49.48495799 -8.34960938 52.16943359 C-6.33766726 54.89836666 -4.66100179 57.80176244 -2.95361328 60.7277832 C-2.08646762 62.21079031 -1.20011985 63.68278194 -0.29248047 65.14135742 C2.11493365 69.07134139 3.7725617 72.2789322 4 77 C1.86956522 81.56521739 1.86956522 81.56521739 -1 83 C-7.293865 83.58276528 -7.293865 83.58276528 -10.00805664 81.34277344 C-12.20465604 78.75929901 -13.82606622 76.15471459 -15.49609375 73.203125 C-16.13740234 72.0790625 -16.77871094 70.955 -17.43945312 69.796875 C-18.10578104 68.61475931 -18.77179475 67.43246646 -19.4375 66.25 C-20.7461221 63.94123276 -22.05852931 61.63465749 -23.37109375 59.328125 C-23.98968262 58.23048828 -24.60827148 57.13285156 -25.24560547 56.00195312 C-27.06095459 52.8957003 -29.02012908 49.94759834 -31.17211914 47.06542969 C-33.08997336 42.28069165 -32.48134862 38.13111312 -30.53466797 33.55664062 C-29.86064941 32.43451172 -29.18663086 31.31238281 -28.4921875 30.15625 C-28.12908478 29.54285767 -27.76598206 28.92946533 -27.39187622 28.29748535 C-26.23566271 26.35481675 -25.05549731 24.42798434 -23.875 22.5 C-23.10526741 21.20792571 -22.33702522 19.91496231 -21.5703125 18.62109375 C-9.09973555 -2.27493389 -9.09973555 -2.27493389 0 0 Z " fill="#000000" transform="translate(218,134)"/>
<path d="M0 0 C5.57711737 5.76053427 9.50793125 13.40806233 13.66088867 20.23681641 C14.81810074 22.13418298 15.98981969 24.02207826 17.16210938 25.91015625 C17.90715311 27.12965704 18.65132512 28.34969093 19.39453125 29.5703125 C20.06331299 30.66102051 20.73209473 31.75172852 21.42114258 32.87548828 C23.05764565 36.11407903 23.85428178 38.37953194 24 42 C23.03344727 44.77368164 23.03344727 44.77368164 21.50390625 47.59765625 C20.94590332 48.64066895 20.38790039 49.68368164 19.81298828 50.75830078 C19.21470215 51.82806152 18.61641602 52.89782227 18 54 C17.42878418 55.03495605 16.85756836 56.06991211 16.26904297 57.13623047 C14.522254 60.25518167 12.73641295 63.34835913 10.9375 66.4375 C10.33873047 67.48615234 9.73996094 68.53480469 9.12304688 69.61523438 C3.3427768 79.5613508 3.3427768 79.5613508 -1 83 C-4.95779649 83.62491523 -7.00863886 83.61006839 -10.4375 81.5 C-12.6583257 77.94667888 -12.78339326 75.01553895 -12 71 C-10.07357625 66.72358365 -7.65653821 62.79458428 -5.1875 58.8125 C-4.54490234 57.74580078 -3.90230469 56.67910156 -3.24023438 55.58007812 C1.6709215 47.44231829 1.6709215 47.44231829 3.8347168 44.53393555 C5.3015628 41.99972207 5.3015628 41.99972207 4.40478516 39.04833984 C2.96849137 35.93162726 1.37390768 33.11638413 -0.4765625 30.2265625 C-1.146875 29.1540625 -1.8171875 28.0815625 -2.5078125 26.9765625 C-3.9179834 24.74422554 -5.33726146 22.51761539 -6.765625 20.296875 C-13.14491276 10.02597541 -13.14491276 10.02597541 -12 3 C-9.01545873 -1.40575139 -4.76412187 -1.58804062 0 0 Z " fill="#000000" transform="translate(305,134)"/>
<path d="M0 0 C0.89489136 -0.0038269 1.78978271 -0.00765381 2.71179199 -0.01159668 C4.60132982 -0.0143152 6.49090532 -0.00695816 8.38037109 0.00976562 C11.2713619 0.03117677 14.15986767 0.00996266 17.05078125 -0.015625 C18.88802631 -0.01298171 20.72526983 -0.00785671 22.5625 0 C23.85794739 -0.01214539 23.85794739 -0.01214539 25.17956543 -0.02453613 C31.13103513 0.06837673 31.13103513 0.06837673 34.33007812 2.34570312 C36.44997768 5.53839168 36.24950049 7.7852461 35.78125 11.53125 C34.02109869 14.7162857 33.28234084 15.36421972 29.78125 16.53125 C27.03581952 16.65219407 24.31655729 16.71937655 21.5703125 16.734375 C20.76516205 16.74007507 19.9600116 16.74577515 19.13046265 16.75164795 C17.42748322 16.76108936 15.7244856 16.76762852 14.02148438 16.77148438 C11.42285127 16.78118801 8.82500997 16.81221784 6.2265625 16.84375 C4.57031719 16.85028067 2.91406623 16.85553089 1.2578125 16.859375 C0.48370026 16.8717218 -0.29041199 16.8840686 -1.08798218 16.89678955 C-5.64347651 16.87807961 -8.60868754 16.38079726 -12.21875 13.53125 C-13.76461876 10.43951248 -13.51234521 7.93695448 -13.21875 4.53125 C-9.85417521 -0.58162888 -5.56735107 -0.05219635 0 0 Z " fill="#000000" transform="translate(319.21875,392.46875)"/>
<path d="M0 0 C0.84671265 -0.00241196 1.69342529 -0.00482391 2.5657959 -0.00730896 C4.35104061 -0.00633206 6.1363162 0.00702428 7.92138672 0.03198242 C10.6478608 0.06630065 13.37109312 0.0526329 16.09765625 0.03320312 C17.83595124 0.04010192 19.5742379 0.0497746 21.3125 0.0625 C22.12408569 0.05754013 22.93567139 0.05258026 23.77185059 0.04747009 C27.75482593 0.12999827 29.72104065 0.35279848 33.16748047 2.53930664 C35.3024443 4.78251256 35.8406946 5.58534255 35.78125 8.62890625 C35.79414063 9.28890625 35.80703125 9.94890625 35.8203125 10.62890625 C34.75498132 13.83743308 32.98573577 14.83380927 30.15625 16.62890625 C27.20623626 17.21780467 24.31370532 17.21365386 21.3125 17.1953125 C20.46578735 17.20151108 19.61907471 17.20770966 18.7467041 17.21409607 C16.96151882 17.22118095 15.17626729 17.21804346 13.39111328 17.20532227 C10.66445089 17.19144798 7.94121695 17.22555282 5.21484375 17.26367188 C3.47656166 17.26462308 1.73827529 17.26276417 0 17.2578125 C-0.81158569 17.27107071 -1.62317139 17.28432892 -2.45935059 17.29798889 C-6.72824621 17.22798625 -8.37664579 16.99342463 -11.85742188 14.27709961 C-13.84375 11.62890625 -13.84375 11.62890625 -14.46875 8.62890625 C-12.7969489 0.60426095 -6.9856313 -0.11411852 0 0 Z " fill="#000000" transform="translate(271.84375,279.37109375)"/>
<path d="M0 0 C0.84908432 -0.00145523 1.69816864 -0.00291046 2.57298279 -0.00440979 C4.36241092 -0.00275437 6.15185381 0.00876694 7.94116211 0.02954102 C10.67818674 0.05853647 13.4132779 0.05013505 16.15039062 0.03710938 C17.89193648 0.04334609 19.63347624 0.05173651 21.375 0.0625 C22.19174698 0.05956436 23.00849396 0.05662872 23.84999084 0.05360413 C27.15175967 0.10839471 29.66232229 0.25340541 32.60913086 1.81225586 C35.04965581 4.53021171 35.05951301 6.92441059 35.12109375 10.49609375 C33.77546976 13.44365107 33.03554831 15.03886647 30.12109375 16.49609375 C27.1783985 16.63189605 24.26056249 16.70885125 21.31640625 16.734375 C20.44088104 16.74244675 19.56535583 16.75051849 18.66329956 16.75883484 C16.80891908 16.77267596 14.95451312 16.78339799 13.10009766 16.79125977 C10.26415809 16.80848404 7.42938089 16.85237018 4.59375 16.89648438 C2.79297733 16.9066103 0.99219474 16.91512672 -0.80859375 16.921875 C-1.65662567 16.93938309 -2.50465759 16.95689117 -3.37838745 16.97492981 C-9.27036015 16.95322227 -9.27036015 16.95322227 -12.41040039 14.59448242 C-13.98784401 12.34042957 -14.44672866 11.22116986 -14.44140625 8.49609375 C-14.46332031 7.83609375 -14.48523438 7.17609375 -14.5078125 6.49609375 C-12.38636292 -0.25037946 -5.85442914 -0.08072504 0 0 Z " fill="#000000" transform="translate(199.87890625,279.50390625)"/>
<path d="M0 0 C0.89489136 -0.0038269 1.78978271 -0.00765381 2.71179199 -0.01159668 C4.60132982 -0.0143152 6.49090532 -0.00695816 8.38037109 0.00976562 C11.2713619 0.03117677 14.15986767 0.00996266 17.05078125 -0.015625 C18.88802631 -0.01298171 20.72526983 -0.00785671 22.5625 0 C23.85794739 -0.01214539 23.85794739 -0.01214539 25.17956543 -0.02453613 C31.13205394 0.06839264 31.13205394 0.06839264 34.32617188 2.34570312 C36.46919475 5.56455224 36.32061862 7.75566967 35.78125 11.53125 C33.91416495 13.89622439 32.46063569 15.19155715 29.78125 16.53125 C27.15264131 16.65450105 24.55157915 16.71963709 21.921875 16.734375 C20.74887848 16.74292511 20.74887848 16.74292511 19.55218506 16.75164795 C17.89450433 16.76110248 16.23680478 16.76763373 14.57910156 16.77148438 C12.05499941 16.78115897 9.53172239 16.81216411 7.0078125 16.84375 C5.39583816 16.85028335 3.783858 16.85553252 2.171875 16.859375 C1.42166077 16.8717218 0.67144653 16.8840686 -0.10150146 16.89678955 C-4.88227558 16.87669036 -8.16986941 16.09081553 -12.21875 13.53125 C-13.76461876 10.43951248 -13.51234521 7.93695448 -13.21875 4.53125 C-9.85417521 -0.58162888 -5.56735107 -0.05219635 0 0 Z " fill="#000000" transform="translate(319.21875,317.46875)"/>
<path d="M0 0 C2.16636295 0.00316364 4.33136394 -0.02032875 6.49755859 -0.0456543 C7.87906729 -0.04792717 9.26057965 -0.04863084 10.64208984 -0.04760742 C11.89441406 -0.05058838 13.14673828 -0.05356934 14.43701172 -0.05664062 C17.87369198 0.33872279 19.24474508 0.91065408 21.67333984 3.31567383 C22.45849609 5.18286133 22.45849609 5.18286133 22.73583984 7.19067383 C22.85056641 7.8480957 22.96529297 8.50551758 23.08349609 9.18286133 C22.40811649 12.69483527 20.38145761 14.09459355 17.67333984 16.31567383 C14.23168945 16.94677734 14.23168945 16.94677734 10.32568359 16.94458008 C9.63197159 16.94699203 8.93825958 16.94940399 8.223526 16.95188904 C6.76362362 16.9509135 5.30368291 16.93758957 3.84399414 16.91259766 C1.61330372 16.87821181 -0.61343701 16.89196586 -2.84423828 16.91137695 C-4.26678112 16.90447962 -5.68931379 16.89480823 -7.11181641 16.88208008 C-8.39967041 16.87120361 -9.68752441 16.86032715 -11.0144043 16.84912109 C-14.84481608 16.23222349 -16.01519834 15.36677528 -18.32666016 12.31567383 C-19.40898697 9.30062057 -19.43435702 7.73667068 -18.63916016 4.62817383 C-14.97823735 -1.82202349 -6.46866229 -0.0198245 0 0 Z " fill="#000000" transform="translate(64.32666015625,279.684326171875)"/>
<path d="M0 0 C0.69275528 -0.00619858 1.38551056 -0.01239716 2.09925842 -0.01878357 C3.56086831 -0.02587032 5.02255912 -0.02272748 6.48413086 -0.01000977 C8.71294805 0.0038459 10.93755373 -0.030205 13.16601562 -0.06835938 C14.58984477 -0.0693108 16.01367914 -0.06745046 17.4375 -0.0625 C18.72648193 -0.0632251 20.01546387 -0.0639502 21.34350586 -0.06469727 C25.62630026 0.7206488 27.10650777 2.20742595 29.78515625 5.56640625 C30.23046875 7.69921875 30.23046875 7.69921875 29.91015625 9.69140625 C29.83023438 10.35398438 29.7503125 11.0165625 29.66796875 11.69921875 C28.3330746 14.52257894 26.56440443 15.20803485 23.78515625 16.56640625 C20.52709961 16.9387207 20.52709961 16.9387207 16.875 16.9296875 C14.8959668 16.9287207 14.8959668 16.9287207 12.87695312 16.92773438 C12.1949585 16.91943604 11.51296387 16.9111377 10.81030273 16.90258789 C8.72535685 16.87893688 6.6416872 16.88204177 4.55664062 16.88867188 C-6.88430689 16.82713133 -6.88430689 16.82713133 -10.21484375 14.56640625 C-11.75621994 11.8506482 -12.24213885 10.12595571 -12.08984375 7.00390625 C-9.86569927 0.80807519 -6.18824504 0.05226231 0 0 Z " fill="#000000" transform="translate(57.21484375,204.43359375)"/>
<path d="M0 0 C0.65214981 -0.00191345 1.30429962 -0.0038269 1.97621155 -0.00579834 C3.35385525 -0.00715762 4.73151187 -0.00347906 6.10913086 0.00488281 C8.21172062 0.01556942 10.31345269 0.00498849 12.41601562 -0.0078125 C13.75651229 -0.00649052 15.09700843 -0.00392733 16.4375 0 C17.65429443 0.00225586 18.87108887 0.00451172 20.12475586 0.00683594 C23.13261968 0.25313456 24.79349818 0.62536006 27.28515625 2.265625 C29.38195028 4.96150303 29.28026446 6.358569 29.09765625 9.828125 C28.01935559 14.39016627 28.01935559 14.39016627 25.28515625 16.265625 C22.74461696 16.56389403 20.45396009 16.68629363 17.9140625 16.6640625 C17.19532455 16.66693268 16.47658661 16.66980286 15.73606873 16.67276001 C14.21718558 16.67479976 12.69827612 16.66927601 11.17944336 16.65673828 C8.85926237 16.6407052 6.54082939 16.65657613 4.22070312 16.67578125 C2.74348575 16.67379834 1.26626946 16.66995367 -0.2109375 16.6640625 C-0.90271591 16.67013519 -1.59449432 16.67620789 -2.30723572 16.6824646 C-5.35208928 16.63821438 -7.44478657 16.41634059 -10.12524414 14.92041016 C-12.48044365 12.46862975 -12.64773219 10.62120308 -12.71484375 7.265625 C-9.86183947 0.98901559 -6.60878151 0.01226363 0 0 Z " fill="#000000" transform="translate(57.71484375,166.734375)"/>
<path d="M0 0 C1.55972204 -0.01656514 3.11936799 -0.04386323 4.67871094 -0.08203125 C6.92976152 -0.13683032 9.17903618 -0.15867422 11.43066406 -0.17333984 C12.12557953 -0.19600922 12.820495 -0.21867859 13.53646851 -0.24203491 C17.22929486 -0.22594032 18.70478542 0.10324088 21.44482422 2.65625 C22.96972656 5.35009766 22.96972656 5.35009766 22.90722656 8.97509766 C22.01183999 12.19848932 21.61865771 13.44286723 18.96972656 15.35009766 C14.68836587 17.490778 9.02836193 16.6181649 4.27612305 16.64526367 C2.17527604 16.66245 0.07601455 16.70633365 -2.02441406 16.75048828 C-3.36619939 16.76061818 -4.70799808 16.76913336 -6.04980469 16.77587891 C-7.87668823 16.79775269 -7.87668823 16.79775269 -9.74047852 16.82006836 C-13.65541686 16.26079145 -15.27809083 15.14209827 -18.03027344 12.35009766 C-19.28637359 8.66030346 -19.37380157 7.08622937 -17.71777344 3.53759766 C-13.79483807 -1.54768893 -5.92893949 0.04618332 0 0 Z " fill="#000000" transform="translate(64.0302734375,129.64990234375)"/>
<path d="M0 0 C1.50438931 -0.01654423 3.0087005 -0.04381485 4.51269531 -0.08203125 C6.68685471 -0.13696442 8.85917452 -0.15869604 11.03393555 -0.17333984 C12.33564697 -0.19315918 13.6373584 -0.21297852 14.97851562 -0.23339844 C19.33565186 0.4985588 20.81617582 1.86339007 23.4519043 5.35009766 C23.4519043 9.00753634 23.26498899 11.28955241 21.0144043 14.22509766 C16.30718872 17.61429287 10.33998592 16.61343514 4.75830078 16.64526367 C2.65745378 16.66245 0.55819228 16.70633365 -1.54223633 16.75048828 C-2.88402166 16.76061818 -4.22582034 16.76913336 -5.56762695 16.77587891 C-7.3945105 16.79775269 -7.3945105 16.79775269 -9.25830078 16.82006836 C-13.17323913 16.26079145 -14.79591309 15.14209827 -17.5480957 12.35009766 C-18.80419586 8.66030346 -18.89162383 7.08622937 -17.2355957 3.53759766 C-13.27909168 -1.59120386 -5.9545251 0.04799421 0 0 Z " fill="#000000" transform="translate(63.548095703125,392.64990234375)"/>
<path d="M0 0 C0.65214981 -0.00191345 1.30429962 -0.0038269 1.97621155 -0.00579834 C3.35385525 -0.00715762 4.73151187 -0.00347906 6.10913086 0.00488281 C8.21172062 0.01556942 10.31345269 0.00498849 12.41601562 -0.0078125 C13.75651229 -0.00649052 15.09700843 -0.00392733 16.4375 0 C17.65429443 0.00225586 18.87108887 0.00451172 20.12475586 0.00683594 C23.13261968 0.25313456 24.79349818 0.62536006 27.28515625 2.265625 C29.36674645 4.94195526 29.28103216 6.38316168 29.16015625 9.828125 C28.28515625 13.265625 28.28515625 13.265625 26.68359375 14.95556641 C23.37609011 16.76216907 20.79328942 16.6542367 17.03515625 16.6640625 C16.3400293 16.66693268 15.64490234 16.66980286 14.92871094 16.67276001 C13.46288231 16.67479634 11.99702624 16.66929656 10.53125 16.65673828 C8.29234848 16.6406766 6.05525188 16.65659958 3.81640625 16.67578125 C2.38931895 16.67379874 0.96223276 16.6699549 -0.46484375 16.6640625 C-1.7590625 16.66067871 -3.05328125 16.65729492 -4.38671875 16.65380859 C-7.88340529 16.24596443 -9.28919698 15.76578221 -11.71484375 13.265625 C-12.88892009 9.66512422 -13.04244051 7.98633787 -11.46484375 4.515625 C-8.0328504 0.10306213 -5.3256146 0.00988251 0 0 Z " fill="#000000" transform="translate(57.71484375,354.734375)"/>
<path d="M0 0 C1.22783203 -0.00257813 2.45566406 -0.00515625 3.72070312 -0.0078125 C5.63979492 0.00378906 5.63979492 0.00378906 7.59765625 0.015625 C8.87318359 0.00789063 10.14871094 0.00015625 11.46289062 -0.0078125 C13.30657227 -0.00394531 13.30657227 -0.00394531 15.1875 0 C16.30890381 0.00225586 17.43030762 0.00451172 18.58569336 0.00683594 C21.6958848 0.26863241 23.87825693 0.87701045 26.66015625 2.265625 C28.82734831 4.9253607 28.65550488 6.35400096 28.47265625 9.828125 C27.39435559 14.39016627 27.39435559 14.39016627 24.66015625 16.265625 C22.11961696 16.56389403 19.82896009 16.68629363 17.2890625 16.6640625 C16.57032455 16.66693268 15.85158661 16.66980286 15.11106873 16.67276001 C13.59218558 16.67479976 12.07327612 16.66927601 10.55444336 16.65673828 C8.23426237 16.6407052 5.91582939 16.65657613 3.59570312 16.67578125 C2.11848575 16.67379834 0.64126946 16.66995367 -0.8359375 16.6640625 C-1.52771591 16.67013519 -2.21949432 16.67620789 -2.93223572 16.6824646 C-5.97708928 16.63821438 -8.06978657 16.41634059 -10.75024414 14.92041016 C-13.10544365 12.46862975 -13.27273219 10.62120308 -13.33984375 7.265625 C-12.13531833 4.4761977 -11.17731848 2.81385956 -8.62280273 1.14160156 C-5.65510512 0.00288923 -3.17715847 0.00639773 0 0 Z " fill="#000000" transform="translate(58.33984375,429.734375)"/>
<path d="M0 0 C0.717323 -0.00761353 1.434646 -0.01522705 2.17370605 -0.02307129 C3.68656949 -0.03385101 5.19950722 -0.03673402 6.71240234 -0.03222656 C9.02437367 -0.0312529 11.33303789 -0.07291544 13.64453125 -0.1171875 C15.1171806 -0.12239404 16.58984145 -0.1250827 18.0625 -0.125 C18.75114136 -0.14139526 19.43978271 -0.15779053 20.14929199 -0.17468262 C23.8179717 -0.12195662 25.28558895 0.23901322 28.00195312 2.77929688 C29.53125 5.46875 29.53125 5.46875 29.46875 9.09375 C28.21378968 13.61160714 28.21378968 13.61160714 25.53125 15.46875 C20.12687705 17.27020765 14.31156834 16.69610608 8.65625 16.71875 C6.73619141 16.7496875 6.73619141 16.7496875 4.77734375 16.78125 C3.54371094 16.78640625 2.31007813 16.7915625 1.0390625 16.796875 C-0.08870605 16.8062207 -1.21647461 16.81556641 -2.37841797 16.82519531 C-5.83059756 16.42701375 -7.68310172 15.50477615 -10.46875 13.46875 C-12.41538632 10.9027294 -12.47645736 9.65758026 -12.34375 6.40625 C-10.47125153 0.12000514 -5.86330962 0.00171492 0 0 Z " fill="#000000" transform="translate(57.46875,317.53125)"/>
<path d="M0 0 C1.61505556 -0.01654803 3.23003822 -0.04382344 4.84472656 -0.08203125 C7.17185491 -0.13683206 9.49726428 -0.15867769 11.82495117 -0.17333984 C12.54487747 -0.19600922 13.26480377 -0.21867859 14.00654602 -0.24203491 C17.75613056 -0.226254 19.31757677 0.07203813 22.10888672 2.65625 C24.16507256 6.32684611 23.72710019 8.35704869 22.61791992 12.35009766 C21.53588867 14.03613281 21.53588867 14.03613281 19.61791992 15.35009766 C16.99538534 15.64828344 14.61498026 15.77068689 11.99291992 15.74853516 C10.87796143 15.75284042 10.87796143 15.75284042 9.74047852 15.75723267 C8.17032102 15.75927242 6.60013806 15.75374866 5.0300293 15.74121094 C2.6264566 15.72515468 0.22456531 15.74106118 -2.17895508 15.76025391 C-3.70500046 15.75827146 -5.23104479 15.75442774 -6.75708008 15.74853516 C-7.47589355 15.75460785 -8.19470703 15.76068054 -8.93530273 15.76693726 C-13.88626717 15.6971415 -13.88626717 15.6971415 -16.30395508 14.00488281 C-17.97498193 11.44006849 -18.26037011 9.39284687 -18.38208008 6.35009766 C-14.40811117 -1.77847511 -8.11651907 0.06100786 0 0 Z " fill="#000000" transform="translate(63.382080078125,242.64990234375)"/>
<path d="M0 0 C1.69189453 -0.02320313 1.69189453 -0.02320313 3.41796875 -0.046875 C11.61490039 -0.00807296 11.61490039 -0.00807296 15.71875 2.34765625 C18.03674224 5.14856355 18.5 6.87034725 18.5 10.5 C16.36956522 15.06521739 16.36956522 15.06521739 13.5 16.5 C9.04747364 16.79828882 4.58633762 16.7780761 0.125 16.8125 C-1.12023437 16.84150391 -2.36546875 16.87050781 -3.6484375 16.90039062 C-4.8446875 16.90876953 -6.0409375 16.91714844 -7.2734375 16.92578125 C-8.91965088 16.94765503 -8.91965088 16.94765503 -10.59912109 16.9699707 C-14.1583497 16.39334092 -15.30444386 15.29857705 -17.5 12.5 C-18.06640625 10.5 -18.06640625 10.5 -18.0625 8.5 C-18.08441406 7.84 -18.10632813 7.18 -18.12890625 6.5 C-15.62822807 -1.45246724 -6.71519203 -0.09209406 0 0 Z " fill="#000000" transform="translate(203.5,354.5)"/>
</svg>
