<?xml version="1.0" encoding="UTF-8"?>
<svg version="1.1" xmlns="http://www.w3.org/2000/svg" width="512" height="512">
<path d="M0 0 C6.41198071 3.47275204 11.31357248 8.8986787 13.58984375 15.91015625 C15.01750573 23.88380027 14.37051263 31.08109888 9.95703125 37.9609375 C6.27909279 42.64029485 1.97116844 46.81086565 -4.04296875 47.9609375 C-16.12714927 48.69373106 -16.12714927 48.69373106 -19.97979736 47.22010803 C-22.17194495 46.7094806 -22.17194495 46.7094806 -24.08050537 48.39720154 C-24.79998352 49.12778275 -25.51946167 49.85836395 -26.26074219 50.61108398 C-27.49156525 51.84247353 -27.49156525 51.84247353 -28.74725342 53.09873962 C-29.62343323 54.00072586 -30.49961304 54.9027121 -31.40234375 55.83203125 C-32.75891083 57.19921043 -32.75891083 57.19921043 -34.1428833 58.5940094 C-36.54769239 61.01791384 -38.93711219 63.45645614 -41.32366943 65.89831543 C-43.76137683 68.38716071 -46.21329156 70.86192001 -48.6640625 73.33789062 C-53.47105968 78.19851993 -58.26195147 83.07475539 -63.04296875 87.9609375 C-62.38303421 87.7359407 -61.72309967 87.51094391 -61.04316711 87.27912903 C-36.39547428 78.900512 -36.39547428 78.900512 -26.23046875 76.6484375 C-25.16828125 76.41044434 -24.10609375 76.17245117 -23.01171875 75.92724609 C36.91989797 63.1136135 101.1677829 73.88958332 153.05957031 106.73046875 C158.11754424 110.01047243 163.06484467 113.43856316 167.95703125 116.9609375 C172.35534656 113.28071449 176.49461537 109.5066455 180.4765625 105.37890625 C183.19323909 102.77691785 185.93752729 102.35608553 189.66943359 102.41992188 C194.58808579 103.58318049 197.83952556 107.71250871 201.26953125 111.2109375 C202.12385742 112.05760986 202.97818359 112.90428223 203.85839844 113.77661133 C205.65649787 115.56927495 207.44456632 117.37204892 209.22314453 119.18408203 C211.94791085 121.95167376 214.71269093 124.67401976 217.484375 127.39453125 C219.22783122 129.14327407 220.96880408 130.89449698 222.70703125 132.6484375 C223.53501221 133.46022461 224.36299316 134.27201172 225.21606445 135.10839844 C231.46059059 141.56149748 231.46059059 141.56149748 231.91015625 146.04296875 C231.30914681 151.25429726 227.53478146 154.44815109 223.95703125 157.9609375 C222.78350834 159.20470828 221.61232362 160.45068975 220.44360352 161.69897461 C217.19291883 165.07283073 213.91268943 168.41758046 210.6237793 171.75415039 C209.2155428 173.18918243 207.81452168 174.63132927 206.4206543 176.08032227 C204.3883093 178.19175981 202.33389475 180.27931238 200.2734375 182.36328125 C199.65860001 183.01111069 199.04376251 183.65894012 198.41029358 184.32640076 C194.96066643 187.76044413 191.98618116 190.16983966 186.98205566 190.40602112 C182.66315574 189.45676263 179.92594028 186.04042289 176.95703125 182.9609375 C175.68346278 181.75069609 174.40687141 180.54362737 173.12719727 179.33984375 C169.64379602 175.96196006 166.18658268 172.5574624 162.73657227 169.14550781 C161.25217297 167.68284898 159.76153409 166.22649694 158.26489258 164.77636719 C156.08642623 162.66475123 153.92825652 160.53414724 151.7734375 158.3984375 C151.10373428 157.75656494 150.43403107 157.11469238 149.74403381 156.45336914 C145.78622731 152.47770066 143.98536496 149.83276214 143.95703125 143.9609375 C145.99575575 138.6602538 150.92191467 134.82353128 154.95703125 130.9609375 C122.35634034 104.09555332 76.75114221 90.1303591 34.95703125 88.9609375 C33.77367187 88.92097656 32.5903125 88.88101563 31.37109375 88.83984375 C11.17342477 88.49160808 -8.44170363 91.20501031 -28.04296875 95.9609375 C-28.80770508 96.14495117 -29.57244141 96.32896484 -30.36035156 96.51855469 C-53.494547 102.26229022 -76.86548889 112.77520539 -96.04296875 126.9609375 C-95.56859375 128.1571875 -95.09421875 129.3534375 -94.60546875 130.5859375 C-90.28096829 142.2743279 -91.37240629 153.53111385 -96.04296875 164.9609375 C-101.5973316 175.80673478 -110.82762097 182.9364131 -122.328125 186.7109375 C-133.16379058 189.46285257 -144.14655908 188.25436593 -154.04296875 182.9609375 C-154.27886719 183.62867188 -154.51476562 184.29640625 -154.7578125 184.984375 C-156.06227148 188.00564472 -157.60498486 190.67441177 -159.31665039 193.47607422 C-189.37974047 242.69093015 -198.4162782 301.92154707 -185.15258789 357.97998047 C-178.14867053 385.90915037 -166.18118419 411.17885684 -150.04296875 434.9609375 C-149.55723389 434.54126709 -149.07149902 434.12159668 -148.57104492 433.68920898 C-147.35392758 432.64044771 -146.13180076 431.59748748 -144.90625 430.55859375 C-143.42364853 429.28734847 -141.97665794 427.9746 -140.54296875 426.6484375 C-137.12138971 424.33887165 -135.19505785 423.74981433 -131.04296875 423.9609375 C-129.20518494 425.24902344 -129.20518494 425.24902344 -127.29663086 427.0078125 C-126.59649872 427.64823486 -125.89636658 428.28865723 -125.17501831 428.94848633 C-124.47144196 429.61259521 -123.7678656 430.2767041 -123.04296875 430.9609375 C-122.40408722 431.56123779 -121.76520569 432.16153809 -121.10696411 432.7800293 C-116.96046087 436.72547821 -112.89200879 440.75175735 -108.82250977 444.77636719 C-107.33811047 446.23902602 -105.84747159 447.69537806 -104.35083008 449.14550781 C-102.17236373 451.25712377 -100.01419402 453.38772776 -97.859375 455.5234375 C-97.18967178 456.16531006 -96.51996857 456.80718262 -95.82997131 457.46850586 C-92.79847653 460.51368209 -91.20386221 462.43320979 -89.92944336 466.61328125 C-90.17818028 473.94807826 -95.99510823 478.19113945 -100.921875 483.0703125 C-101.68974838 483.83772766 -102.45762177 484.60514282 -103.24876404 485.39581299 C-104.86782107 487.01185601 -106.48930078 488.62547501 -108.11303711 490.23681641 C-110.60524976 492.71072012 -113.08931505 495.19258516 -115.57226562 497.67578125 C-117.1466633 499.2452654 -118.72151738 500.81429189 -120.296875 502.3828125 C-121.04272354 503.12754822 -121.78857208 503.87228394 -122.55702209 504.6395874 C-123.24791428 505.32409973 -123.93880646 506.00861206 -124.65063477 506.71386719 C-125.56305687 507.62057159 -125.56305687 507.62057159 -126.49391174 508.54559326 C-129.26597217 511.07837271 -131.98854095 511.61708142 -135.73632812 511.54199219 C-138.77086327 510.77757711 -140.16864977 509.42746359 -142.44921875 507.2890625 C-143.32255859 506.47195801 -144.19589844 505.65485352 -145.09570312 504.81298828 C-150.19483398 499.90267389 -155.22642687 494.92545886 -160.22314453 489.91113281 C-162.06427913 488.06456422 -163.91079737 486.22349723 -165.7578125 484.3828125 C-166.93651927 483.20344609 -168.11491644 482.02377015 -169.29296875 480.84375 C-169.84186768 480.29687531 -170.3907666 479.75000061 -170.95629883 479.18655396 C-176.84453327 473.26179229 -176.84453327 473.26179229 -177.60546875 468.2734375 C-177.4613269 462.65190553 -173.87953916 459.68641031 -170.04296875 455.9609375 C-169.37523437 455.28160156 -168.7075 454.60226562 -168.01953125 453.90234375 C-166.37748759 452.23684232 -164.71949466 450.591601 -163.04296875 448.9609375 C-165.34340773 444.8222482 -167.73375361 440.87050355 -170.44189453 436.97973633 C-181.0042745 421.74189425 -188.61965175 405.30276583 -195.04296875 387.9609375 C-195.50316406 386.74664062 -195.96335937 385.53234375 -196.4375 384.28125 C-202.40037595 367.58519735 -206.38192745 349.60680485 -208.04296875 331.9609375 C-208.15253906 330.98898437 -208.26210937 330.01703125 -208.375 329.015625 C-211.95433493 292.45868423 -205.48108369 257.23738481 -193.94750977 222.66918945 C-193.59004166 221.59756058 -193.23257355 220.5259317 -192.86427307 219.42182922 C-192.59324265 218.60973495 -192.32221222 217.79764069 -192.04296875 216.9609375 C-197.42059986 222.22282638 -202.78477547 227.49810567 -208.13198948 232.79089737 C-210.61524803 235.24803845 -213.1029514 237.70030469 -215.60131836 240.14208984 C-218.47198417 242.94814295 -221.3222934 245.77409948 -224.171875 248.6015625 C-225.07386124 249.47774231 -225.97584747 250.35392212 -226.90516663 251.25665283 C-227.72609299 252.07720154 -228.54701935 252.89775024 -229.39282227 253.74316406 C-230.12340347 254.46264221 -230.85398468 255.18212036 -231.60670471 255.92340088 C-233.2939772 257.83265112 -233.2939772 257.83265112 -232.78819275 260.03070068 C-232.54226883 260.66767883 -232.29634491 261.30465698 -232.04296875 261.9609375 C-231.2525091 270.92700843 -231.42966938 278.60278121 -237.04296875 285.9609375 C-242.72842704 291.56467463 -248.45932477 293.99975648 -256.41796875 294.2734375 C-263.47257615 294.12028456 -269.37936179 292.43382099 -274.65625 287.50390625 C-280.26702117 281.26093551 -281.80617576 275.23141211 -281.70483398 266.92138672 C-281.29348739 259.51714801 -278.64054115 254.34925513 -273.296875 249.31640625 C-266.43144219 244.01060406 -259.48428476 243.45113892 -251.04296875 243.9609375 C-250.15165253 244.26905869 -249.2603363 244.57717987 -248.3420105 244.89463806 C-244.57295038 244.97038326 -244.17247278 244.62577068 -241.47415161 242.23390198 C-240.12378696 240.90386252 -238.79271403 239.55407253 -237.47705078 238.18969727 C-236.37845985 237.09263962 -236.37845985 237.09263962 -235.25767517 235.97341919 C-232.83841937 233.54928244 -230.44490194 231.10128676 -228.05078125 228.65234375 C-226.37936806 226.96787651 -224.70640371 225.28494709 -223.0319519 223.60350037 C-218.6269394 219.17174865 -214.24334848 214.71937953 -209.86383057 210.26245117 C-205.39197513 205.71901608 -200.90026147 201.19530939 -196.41015625 196.66992188 C-187.60150372 187.78617383 -178.8146549 178.88117975 -170.04296875 169.9609375 C-171.34615067 165.93641162 -171.34615067 165.93641162 -172.89453125 162.00390625 C-176.65247155 152.98864544 -176.52229401 141.18299162 -173.41796875 131.9609375 C-168.16661028 119.84241795 -160.67424513 112.13328817 -148.55859375 106.90625 C-138.75427097 103.22201691 -127.331917 103.57989107 -117.73046875 107.5859375 C-116.22033203 108.31683594 -116.22033203 108.31683594 -114.6796875 109.0625 C-112.14430492 110.24136318 -112.14430492 110.24136318 -110.08186817 109.20280838 C-108.03306007 107.95490224 -106.48906777 106.67158785 -104.78385925 104.98944092 C-104.16268219 104.3811293 -103.54150513 103.77281769 -102.90150452 103.14607239 C-102.23171066 102.4800853 -101.56191681 101.81409821 -100.87182617 101.12792969 C-100.15762512 100.42526474 -99.44342407 99.72259979 -98.70758057 98.99864197 C-96.34876715 96.67412003 -93.99791021 94.34177307 -91.6484375 92.0078125 C-90.84548059 91.2117585 -90.04252369 90.4157045 -89.21523476 89.59552765 C-84.9701975 85.3863091 -80.73132673 81.17099076 -76.49731445 76.95068359 C-72.11614071 72.58609981 -67.71441578 68.24286972 -63.30764294 63.90415573 C-59.92719936 60.56839162 -56.56236118 57.21721675 -53.20162392 53.86161041 C-51.58506375 52.252965 -49.96261007 50.65022012 -48.33428001 49.05348969 C-46.06182222 46.82226596 -43.81230154 44.57016408 -41.56713867 42.31152344 C-40.88722366 41.65363327 -40.20730865 40.9957431 -39.50679016 40.31791687 C-37.81494976 38.59120459 -36.32309213 37.01143257 -35.04296875 34.9609375 C-34.95449595 31.71162746 -34.95449595 31.71162746 -36.04296875 28.9609375 C-36.84988005 19.89972047 -35.05788909 13.87414102 -30.35546875 6.2109375 C-22.04730901 -1.87267738 -10.9632268 -3.74354086 0 0 Z M-17.60546875 18.0234375 C-19.4792238 21.85241522 -19.17259576 23.89428026 -18.04296875 27.9609375 C-16.45450984 30.34362586 -15.35230229 30.84697251 -12.66796875 31.8359375 C-9.22407162 31.9999326 -7.76101124 31.01783452 -5.04296875 28.9609375 C-2.68678333 26.07494362 -2.68678333 26.07494362 -3.23046875 22.4609375 C-3.83830463 19.12726714 -3.83830463 19.12726714 -5.10546875 17.0234375 C-9.62026027 14.54758409 -13.77115207 14.93728017 -17.60546875 18.0234375 Z M-154.4453125 132.7421875 C-158.62479341 138.54645438 -158.94856114 145.00862926 -158.04296875 151.9609375 C-155.57037474 159.65467867 -151.24490012 165.21373278 -144.09765625 168.98828125 C-137.97811244 171.59208714 -132.28773401 171.90016471 -125.98046875 169.7734375 C-117.93926652 166.35198479 -113.54397242 162.04796663 -110.04296875 153.9609375 C-107.98540407 147.09365156 -108.65382804 141.46882639 -111.7890625 135.1328125 C-115.24670324 129.14387715 -119.02064934 125.15783798 -125.5546875 122.62109375 C-137.58152222 119.43030086 -146.79388008 123.37184481 -154.4453125 132.7421875 Z M184.80224609 125.88867188 C183.93293457 126.76845703 183.06362305 127.64824219 182.16796875 128.5546875 C181.7046817 129.02080444 181.24139465 129.48692139 180.7640686 129.96716309 C179.28197666 131.4604714 177.80697927 132.96057587 176.33203125 134.4609375 C175.32988592 135.47311075 174.32728737 136.48483548 173.32421875 137.49609375 C170.86320463 139.97918743 168.40850825 142.46842367 165.95703125 144.9609375 C167.47079206 148.52858035 169.56216254 150.79800037 172.30859375 153.5078125 C173.159375 154.35214844 174.01015625 155.19648438 174.88671875 156.06640625 C175.77617187 156.93910156 176.665625 157.81179687 177.58203125 158.7109375 C178.47921875 159.59910156 179.37640625 160.48726562 180.30078125 161.40234375 C182.51510129 163.59310719 184.7339556 165.77906513 186.95703125 167.9609375 C190.5246741 166.44717669 192.79409412 164.35580621 195.50390625 161.609375 C196.34824219 160.75859375 197.19257813 159.9078125 198.0625 159.03125 C198.93519531 158.14179688 199.80789063 157.25234375 200.70703125 156.3359375 C201.59519531 155.43875 202.48335938 154.5415625 203.3984375 153.6171875 C205.58920094 151.40286746 207.77515888 149.18401315 209.95703125 146.9609375 C208.44671799 143.42277697 206.38109769 141.12727603 203.67578125 138.4140625 C202.41314453 137.14755859 202.41314453 137.14755859 201.125 135.85546875 C200.24457031 134.98277344 199.36414063 134.11007813 198.45703125 133.2109375 C197.57660156 132.32277344 196.69617188 131.43460938 195.7890625 130.51953125 C194.52642578 129.26076172 194.52642578 129.26076172 193.23828125 127.9765625 C192.46548828 127.20602539 191.69269531 126.43548828 190.89648438 125.64160156 C188.09566848 123.21450984 187.55864485 123.42271622 184.80224609 125.88867188 Z M-264.04296875 265.9609375 C-264.10881264 269.77988291 -263.89868904 271.94065562 -261.41796875 274.8984375 C-258.11059829 276.3780506 -255.62290007 276.35147546 -252.04296875 275.9609375 C-249.94054431 275.10873827 -249.94054431 275.10873827 -249.04296875 272.9609375 C-248.65022137 269.86805192 -248.4071889 267.91404578 -249.04296875 264.9609375 C-251.43242624 262.23012894 -253.01630854 261.19193605 -256.54296875 260.3984375 C-260.3337917 261.25137266 -261.78985918 262.84634486 -264.04296875 265.9609375 Z M-136.17602539 446.98046875 C-137.09246826 447.90214844 -138.00891113 448.82382812 -138.953125 449.7734375 C-139.44002304 450.26175049 -139.92692108 450.75006348 -140.42857361 451.25317383 C-141.98989013 452.82010755 -143.54770233 454.39047515 -145.10546875 455.9609375 C-146.16057903 457.02106056 -147.21591462 458.08095944 -148.27148438 459.140625 C-150.86460282 461.74479525 -153.45458834 464.35205695 -156.04296875 466.9609375 C-154.52920794 470.52858035 -152.43783746 472.79800037 -149.69140625 475.5078125 C-148.840625 476.35214844 -147.98984375 477.19648438 -147.11328125 478.06640625 C-146.22382813 478.93910156 -145.334375 479.81179688 -144.41796875 480.7109375 C-143.52078125 481.59910156 -142.62359375 482.48726563 -141.69921875 483.40234375 C-139.48489871 485.59310719 -137.2660444 487.77906513 -135.04296875 489.9609375 C-131.3754487 488.4217574 -129.05716302 486.20608298 -126.27734375 483.390625 C-125.38789063 482.49472656 -124.4984375 481.59882813 -123.58203125 480.67578125 C-122.66164062 479.73863281 -121.74125 478.80148437 -120.79296875 477.8359375 C-119.84812019 476.88105113 -118.90281242 475.92661891 -117.95703125 474.97265625 C-115.64778537 472.63984663 -113.34333672 470.30249664 -111.04296875 467.9609375 C-115.56512921 462.54146646 -120.35215302 457.49943758 -125.35546875 452.5234375 C-126.08314453 451.79189453 -126.81082031 451.06035156 -127.56054688 450.30664062 C-128.25212891 449.61634766 -128.94371094 448.92605469 -129.65625 448.21484375 C-130.28313721 447.58908447 -130.91002441 446.9633252 -131.5559082 446.31860352 C-133.90210982 444.17655341 -133.73340325 444.66784767 -136.17602539 446.98046875 Z " fill="#000000" transform="translate(281.04296875,1.0390625)"/>
<path d="M0 0 C2.60945395 0.96409899 5.1812278 1.99496248 7.75261307 3.05644226 C8.72848877 3.44868484 9.70436447 3.84092743 10.70981216 4.24505615 C13.93240185 5.54336169 17.1482852 6.85749508 20.36442947 8.17167664 C22.64710364 9.0946245 24.93020362 10.01651981 27.21370316 10.93742371 C33.24772605 13.37388881 39.27630156 15.82355151 45.30369949 18.27635193 C51.27162938 20.70289036 57.24379489 23.11894506 63.21599197 25.53495789 C65.56945286 26.48711858 67.92291254 27.43928227 70.276371 28.39144897 C71.43613764 28.86062933 72.59590427 29.32980968 73.79081535 29.81320763 C77.30618162 31.2358975 80.82096881 32.66001033 84.33566666 34.08435059 C105.37110268 42.60486425 126.46873498 50.96292187 147.59099197 59.26542664 C150.39871373 60.36949035 153.20632454 61.47383572 156.01384354 62.57841492 C156.66777714 62.83569052 157.32171074 63.09296612 157.99546051 63.35803795 C163.37114006 65.47381996 168.74320717 67.59866181 174.11369705 69.72758484 C176.4585713 70.65483868 178.8050148 71.57813096 181.15275955 72.49809265 C184.66603182 73.87570307 188.17387316 75.2663772 191.68083572 76.65995789 C192.7283551 77.06720596 193.77587448 77.47445404 194.85513687 77.89404297 C195.81718536 78.27932663 196.77923386 78.66461029 197.77043533 79.06156921 C198.60892517 79.39223892 199.44741501 79.72290863 200.31131363 80.06359863 C204.31878483 82.17630507 206.75675098 84.89609465 208.37346268 89.10160828 C208.66883423 89.85429489 208.96420578 90.60698151 209.26852798 91.38247681 C209.57732391 92.20107681 209.88611984 93.01967682 210.20427322 93.86308289 C210.54283844 94.73481644 210.88140366 95.60654999 211.23022842 96.50469971 C211.96857688 98.41033577 212.70192102 100.31791648 213.43089676 102.22715759 C214.62092478 105.34382013 215.82401288 108.45518348 217.02995682 111.5657196 C219.62671134 118.27280327 222.20343535 124.98748906 224.77849197 131.70292664 C226.0971401 135.13741553 227.41616584 138.57175918 228.7353096 142.00605774 C229.57331734 144.18913467 230.41047868 146.37253672 231.24672318 148.55628967 C232.92070635 152.92681246 234.5963128 157.2959894 236.31608963 161.64872742 C236.77419022 162.81258972 237.2322908 163.97645203 237.70427322 165.17558289 C238.07979324 166.11667908 238.45531326 167.05777527 238.84221268 168.02738953 C239.59099197 170.26542664 239.59099197 170.26542664 239.59099197 173.26542664 C240.35451981 173.48529236 241.11804764 173.70515808 241.90471268 173.9316864 C246.99275478 175.7726013 251.73670727 178.18571131 256.57146072 180.60527039 C257.62126617 181.12803055 258.67107162 181.65079071 259.75268936 182.18939209 C261.96502594 183.29269553 264.17632438 184.39808279 266.38664627 185.50541687 C269.7734016 187.20037907 273.16535611 188.88459655 276.55778885 190.56816101 C278.70850352 191.64238228 280.85890508 192.71723068 283.00896072 193.79277039 C284.02459595 194.29598312 285.04023117 194.79919586 286.08664322 195.31765747 C287.02804657 195.79147354 287.96944992 196.26528961 288.93938065 196.75346375 C289.76733643 197.16712692 290.59529221 197.5807901 291.44833755 198.00698853 C293.60116801 199.27140329 294.97390284 200.37417202 296.59099197 202.26542664 C297.49488091 206.11609833 297.70690115 207.5839889 296.59099197 211.26542664 C293.22387666 216.01263679 289.12263482 219.96508835 284.98381424 224.03715515 C283.73547451 225.2976966 282.48905611 226.56014324 281.2444191 227.82434082 C277.86395724 231.2457893 274.45569414 234.6382063 271.04045224 238.02489591 C267.4677034 241.57483696 263.91699052 245.1467096 260.36270523 248.71511841 C254.39052768 254.70366357 248.39963864 260.67299688 242.39787674 266.63188171 C235.46215364 273.5186252 228.55945072 280.43719409 221.67300755 287.37318856 C215.7565432 293.3305127 209.82269699 299.2700956 203.87400669 305.19524139 C200.32246953 308.73275694 196.77727017 312.27604893 193.24764061 315.83543587 C189.92794581 319.18115619 186.58695384 322.5040411 183.22834587 325.8106823 C182.00037099 327.0267707 180.7799649 328.25055766 179.56789398 329.48249817 C169.25896777 339.94470542 169.25896777 339.94470542 163.43002701 340.10276794 C159.59099197 339.26542664 159.59099197 339.26542664 157.39470291 337.47514343 C154.70202424 332.68350206 152.17256569 327.83457776 149.73161697 322.90995789 C149.18237564 321.81197372 148.63313431 320.71398956 148.0672493 319.58273315 C146.9113114 317.2685221 145.75831752 314.95283847 144.60808182 312.63578796 C142.84045572 309.07684694 141.06215583 305.52339191 139.28239822 301.97050476 C138.16066898 299.72147265 137.03955369 297.47213419 135.91911697 295.22245789 C135.38482071 294.15477676 134.85052444 293.08709564 134.30003738 291.98706055 C133.81242935 291.00231247 133.32482132 290.01756439 132.82243729 289.00297546 C132.39037979 288.13425308 131.9583223 287.2655307 131.51317215 286.3704834 C130.59099197 284.26542664 130.59099197 284.26542664 130.59099197 282.26542664 C129.49684982 282.06901581 129.49684982 282.06901581 128.38060379 281.86863708 C125.7737406 281.3049432 123.44594105 280.56173576 120.95720291 279.61405945 C120.06195908 279.27525253 119.16671524 278.93644562 118.2443428 278.58737183 C117.28108078 278.21816116 116.31781876 277.8489505 115.32536697 277.46855164 C114.31078415 277.08310684 113.29620132 276.69766205 112.25087357 276.30053711 C108.94585624 275.04330257 105.64324482 273.77990309 102.34099197 272.51542664 C101.22150162 272.08768951 100.10201126 271.65995239 98.94859695 271.21925354 C92.19619442 268.63927423 85.44706289 266.05087599 78.69951248 263.45823669 C75.82442453 262.35500002 72.94785778 261.25575201 70.07048416 260.15849304 C66.14772458 258.66213963 62.22906406 257.15563514 58.31425858 255.63859558 C56.92523618 255.10194437 55.5348655 254.56876886 54.143116 254.03923035 C52.23902191 253.31360137 50.34061049 252.57311222 48.44255447 251.83183289 C47.39921951 251.42908142 46.35588455 251.02632996 45.28093338 250.6113739 C39.02104132 247.47915527 37.22964998 242.69161957 34.82439041 236.48417664 C34.4678699 235.58885916 34.11134939 234.69354168 33.74402523 233.77109337 C32.55298231 230.7729947 31.37682913 227.76927364 30.20036697 224.76542664 C29.35147457 222.62089309 28.50160283 220.47674698 27.65082169 218.33296204 C25.34838554 212.52421016 23.0583979 206.7106242 20.77071381 200.8960495 C18.38325726 194.83336366 15.98550109 188.77475747 13.58781815 182.71611023 C13.10504882 181.49617308 12.62227949 180.27623592 12.12488079 179.01933098 C11.38756806 177.15617683 10.65023842 175.29302938 9.91283768 173.42991006 C8.41583585 169.64731148 6.92009197 165.86421819 5.42521852 162.080778 C-1.23240279 145.23216647 -7.94867882 128.40847987 -14.72314453 111.60643768 C-16.13979404 108.09245975 -17.55506991 104.57793179 -18.96989059 101.06321716 C-24.35796436 87.67717541 -24.35796436 87.67717541 -29.76581955 74.29911804 C-31.85769981 69.13593531 -33.94009773 63.96902956 -36.0154705 58.79919052 C-36.77662367 56.90845653 -37.54144338 55.01919383 -38.3101902 53.13153458 C-39.35615161 50.5622048 -40.38931774 47.98808563 -41.41950607 45.41239929 C-41.72607761 44.66832825 -42.03264915 43.9242572 -42.34851074 43.15763855 C-43.97500708 39.04677557 -44.84210744 35.68889152 -44.40900803 31.26542664 C-43.31061935 29.366745 -43.31061935 29.366745 -41.67853928 27.66777039 C-41.03868088 26.99085144 -40.39882248 26.3139325 -39.73957443 25.61650085 C-38.97048752 24.84064636 -38.2014006 24.06479187 -37.40900803 23.26542664 C-36.4768325 22.30892068 -35.54505301 21.35202865 -34.61359787 20.39482117 C-32.00740744 17.73120129 -29.37708904 15.09281242 -26.73688889 12.4629364 C-25.07887848 10.81035481 -23.42636826 9.15240464 -21.7742424 7.49394226 C-20.71922492 6.43958444 -19.66389789 5.38553626 -18.60822678 4.33183289 C-18.11553802 3.8371199 -17.62284927 3.34240692 -17.11523056 2.83270264 C-11.6710396 -2.57399876 -7.1514737 -2.18068269 0 0 Z M-7.40900803 17.26542664 C-8.06900803 18.58542664 -8.72900803 19.90542664 -9.40900803 21.26542664 C23.92099197 54.59542664 57.25099197 87.92542664 91.59099197 122.26542664 C95.47079801 120.97215796 99.27244489 119.64585463 103.09099197 118.20292664 C115.63990951 113.65352122 128.57063439 114.21127595 140.71599197 119.89042664 C152.76105413 126.34982525 159.86160082 135.57074512 164.59099197 148.26542664 C167.77315307 160.68033682 166.38108824 174.682624 160.16521072 185.82011414 C153.10346705 196.95102794 143.35178917 204.22794832 130.69597244 207.80033875 C118.15440906 210.57135223 104.73851284 208.24853973 93.81755447 201.76542664 C82.15752181 193.91024673 76.06944243 183.85516951 72.90349197 170.32792664 C71.82684867 159.77682221 72.70835901 149.1598297 77.90349197 139.70292664 C79.94214958 136.56414977 79.94214958 136.56414977 78.94639397 134.31554794 C77.36835172 131.9286708 75.61938274 130.04817591 73.59206009 128.02598572 C72.75630951 127.18748581 71.92055893 126.3489859 71.05948257 125.4850769 C70.14095001 124.57373489 69.22241745 123.66239288 68.27605057 122.72343445 C67.29996888 121.74791707 66.32432771 120.77195876 65.34909439 119.79559326 C62.70293048 117.14885561 60.0506461 114.50832909 57.39722395 111.86887074 C54.62430539 109.1084559 51.85705073 106.34237509 49.08919144 103.57688904 C43.84815185 98.34206527 38.60203494 93.11236057 33.35407698 87.88447356 C27.37922158 81.93197398 21.41004518 75.9737934 15.44134021 70.01512766 C3.16420111 57.75889286 -9.12005451 45.50981521 -21.40900803 33.26542664 C-23.38900803 34.25542664 -23.38900803 34.25542664 -25.40900803 35.26542664 C-24.77510727 40.75042179 -22.93698572 45.43570757 -20.88776779 50.51176453 C-20.52215807 51.43112289 -20.15654835 52.35048126 -19.77985954 53.29769897 C-18.5590138 56.36344148 -17.32966939 59.42570361 -16.10041428 62.48808289 C-15.22958193 64.6706842 -14.35929889 66.85350475 -13.48952866 69.03652954 C-10.65823296 76.13688992 -7.81524823 83.23254325 -4.97150803 90.32792664 C-1.53402229 98.90986021 1.9023313 107.49224696 5.33774948 116.07500839 C6.33497415 118.56622371 7.33269968 121.0572376 8.33080673 123.54809952 C14.80583416 139.70875671 21.20295283 155.89755447 27.50245476 172.12751579 C29.80758677 178.05732163 32.12922218 183.980687 34.45135784 189.90385151 C36.61518945 195.42903482 38.75142433 200.96390096 40.86867237 206.50708866 C42.17790232 209.91451096 43.51345926 213.31113261 44.85684013 216.70521736 C45.46661708 218.26183804 46.06532395 219.82285036 46.65172768 221.38842583 C49.77024641 230.73564794 49.77024641 230.73564794 56.8441658 236.95024109 C58.41652337 237.4229751 59.9998496 237.86039367 61.59099197 238.26542664 C63.31141629 238.93163234 65.02421204 239.6177881 66.72990799 240.32084656 C68.60066123 241.04820811 70.47237177 241.77311103 72.34489822 242.49589539 C73.36284973 242.89061539 74.38080124 243.28533539 75.42959976 243.6920166 C77.5815379 244.52589686 79.73389466 245.35869753 81.88664627 246.19047546 C85.09316218 247.42961258 88.29823962 248.67240907 91.50310135 249.91581726 C93.61694769 250.73439863 95.73087765 251.55276409 97.84489822 252.37089539 C98.76460907 252.72749741 99.68431992 253.08409943 100.63190079 253.45150757 C111.9200507 257.80925568 123.25965973 262.01617704 134.59099197 266.26542664 C163.96099197 236.89542664 193.33099197 207.52542664 223.59099197 177.26542664 C219.96099197 167.69542664 216.33099197 158.12542664 212.59099197 148.26542664 C210.92036697 143.63511414 209.24974197 139.00480164 207.52849197 134.23417664 C205.67764856 129.18369862 205.67764856 129.18369862 203.82048416 124.13554382 C202.9869728 121.85083557 202.16773596 119.56087835 201.36149979 117.2664032 C200.16268103 113.86578886 198.91372792 110.48743179 197.65349197 107.10917664 C197.30729813 106.08852112 196.96110428 105.0678656 196.60441971 104.01628113 C194.69215969 99.0418238 193.06032881 95.95819275 188.14909744 93.63798523 C185.9720049 92.82283738 183.78412541 92.0363765 181.59099197 91.26542664 C179.18073493 90.31031384 176.78131671 89.33011213 174.38054466 88.35141659 C169.4662018 86.3555309 164.53023676 84.41391926 159.59880447 82.46073914 C157.40092827 81.58774561 155.20316686 80.71446304 153.00551224 79.84091187 C147.12543586 77.50422888 141.24419851 75.17048221 135.36272049 72.83732986 C124.35624904 68.47032009 113.35224889 64.09708821 102.34880447 59.72245789 C101.12715843 59.23685835 99.90551239 58.75125881 98.64684677 58.25094414 C82.2311125 51.72421857 65.83319527 45.15535699 49.45817947 38.52714539 C47.63023581 37.78778542 45.80228389 37.04844587 43.97432327 36.30912781 C36.38504974 33.23854917 28.79762371 30.16362202 21.21643639 27.07312679 C18.19022785 25.84095233 15.16186317 24.61414844 12.13292694 23.38869667 C10.7497915 22.82757866 9.36766343 22.26396987 7.98664856 21.69765282 C6.12684335 20.93510724 4.26331229 20.18166737 2.39958572 19.42875671 C0.84968948 18.79723442 0.84968948 18.79723442 -0.73151779 18.1529541 C-3.57168917 17.05566543 -3.57168917 17.05566543 -7.40900803 17.26542664 Z M94.27849197 144.01542664 C89.82514513 150.37388372 87.31066 158.49807935 88.59099197 166.26542664 C91.36242641 176.54655439 95.29836476 183.18347863 104.21208572 189.00370789 C111.4277489 192.8307345 118.57657069 193.21932162 126.59099197 192.26542664 C136.49863115 189.10613255 143.16233355 183.21606466 148.02849197 174.14042664 C150.9746501 166.76865436 150.9746501 157.76219892 148.02849197 150.39042664 C143.32334348 141.50842702 136.45591431 135.46477251 127.09099197 131.95292664 C113.94110113 129.36991236 102.74478892 133.71857899 94.27849197 144.01542664 Z M232.98618507 191.62413788 C232.34646074 192.2657058 231.70673641 192.90727371 231.0476265 193.56828308 C230.31284576 194.30031448 229.57806503 195.03234589 228.82101822 195.78656006 C228.01469452 196.60007431 227.20837082 197.41358856 226.37761307 198.25175476 C225.10433403 199.52459572 225.10433403 199.52459572 223.80533218 200.82315063 C221.47336544 203.15627478 219.14593467 205.49375947 216.82037306 207.83325768 C214.39091984 210.27518465 211.95582939 212.71147655 209.52132034 215.14836121 C204.9097541 219.76615211 200.30331119 224.38901914 195.69866812 229.01371241 C190.45719168 234.27751722 185.21005812 239.53566712 179.96243167 244.79333973 C169.16562572 255.61107001 158.3759787 266.4359121 147.59099197 277.26542664 C149.12264813 282.01766499 151.02910254 286.40555907 153.28630447 290.85136414 C153.6386113 291.55314789 153.99091812 292.25493164 154.35390091 292.97798157 C155.47082893 295.20071697 156.59331151 297.42059212 157.71599197 299.64042664 C158.47808053 301.15456348 159.23980309 302.66888459 160.00114822 304.18339539 C161.86020233 307.87955094 163.7242404 311.57315314 165.59099197 315.26542664 C168.63585645 315.58159759 168.63585645 315.58159759 170.59995937 313.62560272 C171.75727046 312.46414356 171.75727046 312.46414356 172.93796158 311.27922058 C173.82557175 310.39573441 174.71318192 309.51224823 175.62768936 308.60198975 C176.6086787 307.61038236 177.58952408 306.61863254 178.57024002 305.62675476 C179.60450788 304.59164103 180.63943611 303.55718677 181.67497635 302.52334595 C184.48931803 299.7098672 187.29429593 296.88721537 190.09772849 294.06287193 C193.02721002 291.11467314 195.96515418 288.17493291 198.90222549 285.23429871 C204.46491923 279.66226993 210.01991969 274.08263595 215.57222158 268.50025415 C221.89274425 262.14623285 228.22175833 255.80069881 234.55151308 249.45587635 C247.57416847 236.40183889 260.58607946 223.33713908 273.59099197 210.26542664 C270.52533178 206.97192045 266.92046268 205.22307401 262.93083572 203.25370789 C262.18515839 202.88061996 261.43948105 202.50753204 260.67120743 202.12313843 C259.0982973 201.33785141 257.52391356 200.55551 255.94816971 199.77592468 C253.53032957 198.57883644 251.11802131 197.37112443 248.70622635 196.16191101 C247.17724581 195.40020798 245.64795923 194.63911891 244.11833572 193.87870789 C243.39436096 193.5162648 242.6703862 193.15382172 241.92447281 192.78039551 C237.3671041 190.03297493 237.3671041 190.03297493 232.98618507 191.62413788 Z " fill="#000000" transform="translate(215.40900802612305,172.7345733642578)"/>
</svg>
