<?xml version="1.0" encoding="UTF-8"?>
<svg version="1.1" xmlns="http://www.w3.org/2000/svg" width="512" height="512">
<path d="M0 0 C1.07388474 -0.0131424 1.07388474 -0.0131424 2.16946411 -0.02655029 C4.53156479 -0.04852376 6.8917872 -0.03400118 9.25390625 -0.01708984 C10.89770873 -0.02045863 12.54150878 -0.02531177 14.18530273 -0.03158569 C17.62865946 -0.03895416 21.07136721 -0.0282531 24.51464844 -0.00488281 C28.9269323 0.02360585 33.33769563 0.00720161 37.74992371 -0.02274513 C41.14379316 -0.04081936 44.53730252 -0.03505971 47.93118286 -0.02210617 C49.55787333 -0.01877246 51.18459658 -0.0228581 52.81124878 -0.03450394 C55.0859831 -0.04721589 57.35826106 -0.02783637 59.6328125 0 C61.57329468 0.00596695 61.57329468 0.00596695 63.55297852 0.01205444 C66.81640625 0.64697266 66.81640625 0.64697266 69.20257568 2.94361877 C70.62303306 5.32305007 71.40655483 6.85591726 71.82128906 9.54760742 C72.00102264 10.63882652 72.00102264 10.63882652 72.18438721 11.75209045 C72.29498474 12.52306564 72.40558228 13.29404083 72.51953125 14.08837891 C72.64704773 14.89307114 72.77456421 15.69776337 72.90594482 16.52684021 C73.30740808 19.08569525 73.68678883 21.64729598 74.06640625 24.20947266 C74.33587543 25.93559763 74.60669505 27.66151235 74.87890625 29.38720703 C76.81640625 41.8587853 76.81640625 41.8587853 76.81640625 46.64697266 C77.75355469 46.81970703 78.69070313 46.99244141 79.65625 47.17041016 C99.60968982 51.18881123 118.15129154 59.7357112 135.81640625 69.64697266 C137.14418816 70.32462849 138.47439983 70.99794184 139.81640625 71.64697266 C140.80898438 70.89673828 141.8015625 70.14650391 142.82421875 69.37353516 C171.27996063 47.91811012 171.27996063 47.91811012 176.00390625 47.08447266 C179.97362148 47.67016835 180.63282316 48.01666178 183.43383789 50.56958008 C184.13364777 51.20737396 184.83345764 51.84516785 185.55447388 52.50228882 C189.68552652 56.41920603 193.72937574 60.41782056 197.75 64.44775391 C199.12781395 65.82413277 199.12781395 65.82413277 200.53346252 67.22831726 C202.46037574 69.15376873 204.3855 71.08098572 206.30932617 73.00952148 C208.77622964 75.48216981 211.24766161 77.95023585 213.72041225 80.4170351 C216.08686746 82.7790198 218.44951893 85.14479355 220.8125 87.51025391 C221.70094101 88.39667068 222.58938202 89.28308746 223.50474548 90.19636536 C224.31972 91.01449203 225.13469452 91.83261871 225.97436523 92.67553711 C226.69414047 93.39610794 227.41391571 94.11667877 228.15550232 94.85908508 C230.39571302 97.27057006 230.78650753 98.42972691 231.2421875 101.74072266 C230.65720093 107.10757194 228.25896551 109.96612086 225.00390625 114.14697266 C224.42165283 114.92218262 223.83939941 115.69739258 223.23950195 116.49609375 C222.03707196 118.09639501 220.82827424 119.69193075 219.61328125 121.28271484 C216.85809144 124.90788578 214.18489424 128.59181705 211.50390625 132.27197266 C209.94333916 134.39840133 208.3798677 136.52267033 206.81640625 138.64697266 C207.14511719 139.22060547 207.47382813 139.79423828 207.8125 140.38525391 C218.74053386 159.90171547 227.20780243 179.74254982 231.81640625 201.64697266 C233.23953125 201.79392578 233.23953125 201.79392578 234.69140625 201.94384766 C243.68140734 202.91300485 252.6315756 204.13506547 261.56640625 205.52197266 C262.60152344 205.67118164 263.63664062 205.82039062 264.703125 205.97412109 C265.68410156 206.13170898 266.66507812 206.28929687 267.67578125 206.45166016 C268.54686523 206.58556152 269.41794922 206.71946289 270.31542969 206.85742188 C273.61819981 207.90009647 275.368222 209.18286892 277.81640625 211.64697266 C278.45132446 214.91040039 278.45132446 214.91040039 278.46337891 218.83056641 C278.4765213 219.90445114 278.4765213 219.90445114 278.4899292 221.00003052 C278.51190267 223.36213119 278.49738009 225.7223536 278.48046875 228.08447266 C278.48383753 229.72827513 278.48869067 231.37207518 278.4949646 233.01586914 C278.50233306 236.45922587 278.49163201 239.90193362 278.46826172 243.34521484 C278.43977305 247.75749871 278.4561773 252.16826204 278.48612404 256.58049011 C278.50419826 259.97435957 278.49843862 263.36786892 278.48548508 266.76174927 C278.48215136 268.38843974 278.486237 270.01516298 278.49788284 271.64181519 C278.5105948 273.91654951 278.49121528 276.18882747 278.46337891 278.46337891 C278.45940094 279.75703369 278.45542297 281.05068848 278.45132446 282.38354492 C277.81640625 285.64697266 277.81640625 285.64697266 275.51225281 288.03314209 C272.02842292 290.11868778 268.62512307 290.75908149 264.671875 291.35009766 C263.90208817 291.47761414 263.13230133 291.60513062 262.33918762 291.73651123 C259.89618584 292.13781333 257.45040887 292.51766246 255.00390625 292.89697266 C253.34026542 293.16639342 251.67685032 293.43721206 250.01367188 293.70947266 C245.95035122 294.37151514 241.8844065 295.0143487 237.81640625 295.64697266 C238.34314941 296.10007812 238.86989258 296.55318359 239.41259766 297.02001953 C260.44706612 315.24378547 274.20401249 339.87923545 277.81640625 367.64697266 C278.13637498 372.67079709 278.1981874 377.67631654 278.19140625 382.70947266 C278.19059052 383.7336882 278.19059052 383.7336882 278.1897583 384.77859497 C278.14939717 395.8212392 277.26153905 406.10444679 273.81640625 416.64697266 C273.49494629 417.66718506 273.49494629 417.66718506 273.16699219 418.70800781 C268.58721998 432.93063373 261.63901263 445.34629788 251.81640625 456.64697266 C251.12933594 457.46681641 250.44226563 458.28666016 249.734375 459.13134766 C232.23215226 479.44023314 205.88939917 494.57731159 178.81640625 496.64697266 C162.51930919 497.50760856 146.45690966 497.71644022 130.81640625 492.64697266 C129.79401855 492.3255127 129.79401855 492.3255127 128.75097656 491.99755859 C109.14501303 485.68283898 91.49807231 474.09401498 77.81640625 458.64697266 C77.48640625 457.98697266 77.15640625 457.32697266 76.81640625 456.64697266 C76.6555957 457.68104248 76.49478516 458.7151123 76.32910156 459.78051758 C75.72598217 463.63159298 75.1023747 467.47912002 74.47265625 471.32592773 C74.2034171 472.98844715 73.93967596 474.65186697 73.68164062 476.31616211 C73.30885238 478.71419421 72.91613354 481.10824717 72.51953125 483.50244141 C72.40893372 484.24221725 72.29833618 484.9819931 72.18438721 485.7441864 C71.37712377 490.46255232 70.26566872 493.31626618 66.81640625 496.64697266 C63.55297852 497.28189087 63.55297852 497.28189087 59.6328125 497.29394531 C58.55892776 497.30708771 58.55892776 497.30708771 57.46334839 497.32049561 C55.10124771 497.34246908 52.7410253 497.32794649 50.37890625 497.31103516 C48.73510377 497.31440394 47.09130372 497.31925708 45.44750977 497.32553101 C42.00415304 497.33289947 38.56144529 497.32219842 35.11816406 497.29882812 C30.7058802 497.27033946 26.29511687 497.2867437 21.88288879 497.31669044 C18.48901934 497.33476467 15.09550998 497.32900503 11.70162964 497.31605148 C10.07493917 497.31271777 8.44821592 497.31680341 6.82156372 497.32844925 C4.5468294 497.34116121 2.27455144 497.32178168 0 497.29394531 C-1.94048218 497.28797836 -1.94048218 497.28797836 -3.92016602 497.28189087 C-7.18359375 496.64697266 -7.18359375 496.64697266 -9.56976318 494.35032654 C-10.99022056 491.97089525 -11.77374233 490.43802806 -12.18847656 487.74633789 C-12.36821014 486.65511879 -12.36821014 486.65511879 -12.55157471 485.54185486 C-12.66217224 484.77087967 -12.77276978 483.99990448 -12.88671875 483.20556641 C-13.01423523 482.40087418 -13.14175171 481.59618195 -13.27313232 480.7671051 C-13.67459558 478.20825006 -14.05397633 475.64664934 -14.43359375 473.08447266 C-14.70306293 471.35834768 -14.97388255 469.63243296 -15.24609375 467.90673828 C-17.18359375 455.43516002 -17.18359375 455.43516002 -17.18359375 450.64697266 C-18.58931641 450.38787109 -18.58931641 450.38787109 -20.0234375 450.12353516 C-39.97687732 446.10513408 -58.51847904 437.55823411 -76.18359375 427.64697266 C-77.51137566 426.96931682 -78.84158733 426.29600347 -80.18359375 425.64697266 C-81.67246094 426.77232422 -81.67246094 426.77232422 -83.19140625 427.92041016 C-111.64714813 449.37583519 -111.64714813 449.37583519 -116.37109375 450.20947266 C-120.34080898 449.62377697 -121.00001066 449.27728354 -123.80102539 446.72436523 C-124.8507402 445.76767441 -124.8507402 445.76767441 -125.92166138 444.79165649 C-130.05271402 440.87473929 -134.09656324 436.87612476 -138.1171875 432.84619141 C-139.03573013 431.9286055 -139.95427277 431.01101959 -140.90065002 430.06562805 C-142.82756324 428.14017658 -144.7526875 426.21295959 -146.67651367 424.28442383 C-149.14341714 421.8117755 -151.61484911 419.34370947 -154.08759975 416.87691021 C-156.45405496 414.51492551 -158.81670643 412.14915176 -161.1796875 409.78369141 C-162.51234901 408.45406624 -162.51234901 408.45406624 -163.87193298 407.09757996 C-165.09439476 405.87038994 -165.09439476 405.87038994 -166.34155273 404.6184082 C-167.06132797 403.89783737 -167.78110321 403.17726654 -168.52268982 402.43486023 C-170.76290052 400.02337526 -171.15369503 398.8642184 -171.609375 395.55322266 C-171.02438843 390.18637337 -168.62615301 387.32782445 -165.37109375 383.14697266 C-164.78884033 382.3717627 -164.20658691 381.59655273 -163.60668945 380.79785156 C-162.40425946 379.1975503 -161.19546174 377.60201456 -159.98046875 376.01123047 C-157.22527894 372.38605953 -154.55208174 368.70212826 -151.87109375 365.02197266 C-150.31052666 362.89554399 -148.7470552 360.77127498 -147.18359375 358.64697266 C-147.51230469 358.07333984 -147.84101563 357.49970703 -148.1796875 356.90869141 C-159.10772136 337.39222984 -167.57498993 317.5513955 -172.18359375 295.64697266 C-173.60671875 295.50001953 -173.60671875 295.50001953 -175.05859375 295.35009766 C-184.04859484 294.38094046 -192.9987631 293.15887984 -201.93359375 291.77197266 C-202.96871094 291.62276367 -204.00382812 291.47355469 -205.0703125 291.31982422 C-206.05128906 291.16223633 -207.03226563 291.00464844 -208.04296875 290.84228516 C-208.91405273 290.70838379 -209.78513672 290.57448242 -210.68261719 290.43652344 C-213.98538731 289.39384884 -215.7354095 288.11107639 -218.18359375 285.64697266 C-218.81851196 282.38354492 -218.81851196 282.38354492 -218.83056641 278.46337891 C-218.839328 277.74745575 -218.8480896 277.03153259 -218.8571167 276.29391479 C-218.87909017 273.93181412 -218.86456759 271.57159171 -218.84765625 269.20947266 C-218.85102503 267.56567018 -218.85587817 265.92187013 -218.8621521 264.27807617 C-218.86952056 260.83471945 -218.85881951 257.39201169 -218.83544922 253.94873047 C-218.80696055 249.53644661 -218.8233648 245.12568327 -218.85331154 240.7134552 C-218.87138576 237.31958575 -218.86562612 233.92607639 -218.85267258 230.53219604 C-218.84933886 228.90550557 -218.8534245 227.27878233 -218.86507034 225.65213013 C-218.8777823 223.3773958 -218.85840278 221.10511785 -218.83056641 218.83056641 C-218.82658844 217.53691162 -218.82261047 216.24325684 -218.81851196 214.91040039 C-218.18359375 211.64697266 -218.18359375 211.64697266 -215.88694763 209.26080322 C-213.50751634 207.84034585 -211.97464915 207.05682408 -209.28295898 206.64208984 C-208.19173988 206.46235626 -208.19173988 206.46235626 -207.07847595 206.2789917 C-206.30750076 206.16839417 -205.53652557 206.05779663 -204.7421875 205.94384766 C-203.93749527 205.81633118 -203.13280304 205.6888147 -202.3037262 205.55743408 C-199.74487115 205.15597083 -197.18327043 204.77659007 -194.62109375 204.39697266 C-192.89496878 204.12750348 -191.16905405 203.85668386 -189.44335938 203.58447266 C-176.97178111 201.64697266 -176.97178111 201.64697266 -172.18359375 201.64697266 C-172.01085937 200.70982422 -171.838125 199.77267578 -171.66015625 198.80712891 C-167.64175518 178.85368909 -159.09485521 160.31208737 -149.18359375 142.64697266 C-148.50593791 141.31919075 -147.83262456 139.98897907 -147.18359375 138.64697266 C-147.93382812 137.65439453 -148.6840625 136.66181641 -149.45703125 135.63916016 C-170.91245629 107.18341828 -170.91245629 107.18341828 -171.74609375 102.45947266 C-171.16039806 98.48975743 -170.81390463 97.83055575 -168.26098633 95.02954102 C-167.62319244 94.32973114 -166.98539856 93.62992126 -166.32827759 92.90890503 C-162.41136038 88.77785239 -158.41274585 84.73400317 -154.3828125 80.71337891 C-153.46522659 79.79483627 -152.54764069 78.87629364 -151.60224915 77.92991638 C-149.67679767 76.00300317 -147.74958068 74.07787891 -145.82104492 72.15405273 C-143.3483966 69.68714927 -140.88033056 67.2157173 -138.4135313 64.74296665 C-136.05154661 62.37651144 -133.68577286 60.01385998 -131.3203125 57.65087891 C-130.43389572 56.7624379 -129.54747894 55.87399689 -128.63420105 54.95863342 C-127.40701103 53.73617165 -127.40701103 53.73617165 -126.1550293 52.48901367 C-125.07417305 51.40935081 -125.07417305 51.40935081 -123.97148132 50.30787659 C-121.55999635 48.06766589 -120.40083949 47.67687138 -117.08984375 47.22119141 C-111.72299446 47.80617798 -108.86444554 50.2044134 -104.68359375 53.45947266 C-103.90838379 54.04172607 -103.13317383 54.62397949 -102.33447266 55.22387695 C-100.7341714 56.42630695 -99.13863566 57.63510466 -97.54785156 58.85009766 C-93.92268062 61.60528747 -90.23874935 64.27848466 -86.55859375 66.95947266 C-84.43216508 68.52003975 -82.30789608 70.08351121 -80.18359375 71.64697266 C-79.60996094 71.31826172 -79.03632813 70.98955078 -78.4453125 70.65087891 C-59.20288022 59.87628481 -38.94348969 50.81629578 -17.18359375 46.64697266 C-17.085625 45.69822266 -16.98765625 44.74947266 -16.88671875 43.77197266 C-15.91756155 34.78197156 -14.69550094 25.8318033 -13.30859375 16.89697266 C-13.15938477 15.86185547 -13.01017578 14.82673828 -12.85644531 13.76025391 C-12.69885742 12.77927734 -12.54126953 11.79830078 -12.37890625 10.78759766 C-12.24500488 9.91651367 -12.11110352 9.04542969 -11.97314453 8.14794922 C-9.87720909 1.50887604 -6.71344906 0.02064374 0 0 Z M4.81640625 16.64697266 C2.50445103 28.78473754 0.28265343 40.63763784 -1.375 52.83837891 C-2.17006649 56.5832573 -2.62449722 57.95161163 -5.18359375 60.64697266 C-7.56518555 61.6484375 -7.56518555 61.6484375 -10.3828125 62.35791016 C-11.93705933 62.76553589 -11.93705933 62.76553589 -13.52270508 63.18139648 C-14.62767334 63.45878662 -15.7326416 63.73617676 -16.87109375 64.02197266 C-30.82755656 67.7453487 -43.65896519 72.24879254 -56.62109375 78.64697266 C-57.84662964 79.25182495 -57.84662964 79.25182495 -59.09692383 79.86889648 C-64.05749935 82.38634685 -68.6624826 85.19324487 -73.22143555 88.38208008 C-76.45991714 90.46974627 -78.31626259 90.98036327 -82.18359375 90.64697266 C-86.1618931 88.76851765 -89.65619805 86.25144423 -93.18359375 83.64697266 C-93.83166992 83.16873047 -94.47974609 82.69048828 -95.14746094 82.19775391 C-98.61190256 79.62814471 -102.05560936 77.03347457 -105.484375 74.41650391 C-108.63822209 72.02390202 -111.86422575 69.80327528 -115.18359375 67.64697266 C-118.1830328 68.99270152 -120.26435554 70.48234367 -122.57519531 72.81152344 C-123.21555725 73.45203644 -123.85591919 74.09254944 -124.51568604 74.75247192 C-125.19500183 75.44211029 -125.87431763 76.13174866 -126.57421875 76.84228516 C-127.2788324 77.5497287 -127.98344604 78.25717224 -128.70941162 78.98605347 C-130.95554765 81.24337127 -133.19462384 83.50754899 -135.43359375 85.77197266 C-136.95657092 87.30498219 -138.48000314 88.83753981 -140.00390625 90.36962891 C-143.7357619 94.12351838 -147.46184726 97.8830618 -151.18359375 101.64697266 C-149.9362554 105.03998384 -148.53348993 107.81384875 -146.390625 110.72119141 C-145.84567383 111.4665918 -145.30072266 112.21199219 -144.73925781 112.97998047 C-144.16401367 113.75696289 -143.58876953 114.53394531 -142.99609375 115.33447266 C-141.82012583 116.94761784 -140.64434317 118.5608981 -139.46875 120.17431641 C-137.59080825 122.73689656 -135.70344266 125.29111624 -133.8046875 127.83837891 C-133.18722656 128.68271484 -132.56976563 129.52705078 -131.93359375 130.39697266 C-131.15242188 131.44111328 -131.15242188 131.44111328 -130.35546875 132.50634766 C-128.83638301 135.28121094 -128.37497827 137.49116414 -128.18359375 140.64697266 C-129.046875 142.97119141 -129.046875 142.97119141 -130.49609375 145.33447266 C-131.04910156 146.28193359 -131.60210937 147.22939453 -132.171875 148.20556641 C-132.83574219 149.34123047 -133.49960938 150.47689453 -134.18359375 151.64697266 C-142.72278523 167.05873856 -149.46532237 182.21133968 -154.09277344 199.24023438 C-158.08554842 213.91494244 -158.08554842 213.91494244 -162.18359375 216.64697266 C-164.9506761 217.21844328 -167.67459767 217.70067288 -170.46484375 218.11962891 C-171.27473755 218.24760361 -172.08463135 218.37557831 -172.91906738 218.50743103 C-175.50620539 218.91510249 -178.09475453 219.3127608 -180.68359375 219.70947266 C-183.27213676 220.11142481 -185.86032612 220.51547956 -188.44812012 220.92222595 C-190.05805865 221.17471725 -191.6684818 221.42414171 -193.27941895 221.67018127 C-196.35414195 222.14806997 -199.22532532 222.66088318 -202.18359375 223.64697266 C-202.18359375 240.14697266 -202.18359375 256.64697266 -202.18359375 273.64697266 C-190.04582887 275.95892787 -178.19292856 278.18072548 -165.9921875 279.83837891 C-162.24730911 280.6334454 -160.87895478 281.08787612 -158.18359375 283.64697266 C-157.18212891 286.02856445 -157.18212891 286.02856445 -156.47265625 288.84619141 C-156.20090576 289.88235596 -155.92915527 290.91852051 -155.64916992 291.98608398 C-155.37177979 293.09105225 -155.09438965 294.19602051 -154.80859375 295.33447266 C-151.0852177 309.29093547 -146.58177387 322.1223441 -140.18359375 335.08447266 C-139.57874146 336.31000854 -139.57874146 336.31000854 -138.96166992 337.56030273 C-136.44421956 342.52087826 -133.63732154 347.12586151 -130.44848633 351.68481445 C-128.36082014 354.92329605 -127.85020313 356.77964149 -128.18359375 360.64697266 C-130.06204876 364.62527201 -132.57912217 368.11957696 -135.18359375 371.64697266 C-135.66183594 372.29504883 -136.14007813 372.943125 -136.6328125 373.61083984 C-139.2024217 377.07528146 -141.79709184 380.51898827 -144.4140625 383.94775391 C-146.80666438 387.101601 -149.02729113 390.32760466 -151.18359375 393.64697266 C-149.83786488 396.6464117 -148.34822274 398.72773445 -146.01904297 401.03857422 C-145.37852997 401.67893616 -144.73801697 402.3192981 -144.07809448 402.97906494 C-143.04363693 403.99803864 -143.04363693 403.99803864 -141.98828125 405.03759766 C-141.28083771 405.7422113 -140.57339417 406.44682495 -139.84451294 407.17279053 C-137.58719513 409.41892655 -135.32301742 411.65800274 -133.05859375 413.89697266 C-131.52558422 415.41994983 -129.9930266 416.94338204 -128.4609375 418.46728516 C-124.70704802 422.19914081 -120.94750461 425.92522617 -117.18359375 429.64697266 C-113.79058256 428.3996343 -111.01671766 426.99686883 -108.109375 424.85400391 C-107.36397461 424.30905273 -106.61857422 423.76410156 -105.85058594 423.20263672 C-105.07360352 422.62739258 -104.29662109 422.05214844 -103.49609375 421.45947266 C-101.88294857 420.28350473 -100.26966831 419.10772208 -98.65625 417.93212891 C-96.09366985 416.05418716 -93.53945017 414.16682156 -90.9921875 412.26806641 C-90.14785156 411.65060547 -89.30351562 411.03314453 -88.43359375 410.39697266 C-87.7375 409.87619141 -87.04140625 409.35541016 -86.32421875 408.81884766 C-83.54935546 407.29976192 -81.33940227 406.83835717 -78.18359375 406.64697266 C-75.859375 407.51025391 -75.859375 407.51025391 -73.49609375 408.95947266 C-72.54863281 409.51248047 -71.60117188 410.06548828 -70.625 410.63525391 C-69.48933594 411.29912109 -68.35367188 411.96298828 -67.18359375 412.64697266 C-51.77182785 421.18616414 -36.61922672 427.92870128 -19.59033203 432.55615234 C-4.91562397 436.54892733 -4.91562397 436.54892733 -2.18359375 440.64697266 C-1.61212313 443.41405501 -1.12989353 446.13797657 -0.7109375 448.92822266 C-0.5829628 449.73811646 -0.4549881 450.54801025 -0.32313538 451.38244629 C0.08453608 453.9695843 0.48219439 456.55813344 0.87890625 459.14697266 C1.2808584 461.73551566 1.68491315 464.32370503 2.09165955 466.91149902 C2.34415084 468.52143756 2.5935753 470.13186071 2.83961487 471.74279785 C3.31750356 474.81752086 3.83031677 477.68870423 4.81640625 480.64697266 C21.31640625 480.64697266 37.81640625 480.64697266 54.81640625 480.64697266 C57.12373833 468.53347921 59.35889149 456.63023734 61.10546875 444.45556641 C61.81640625 440.64697266 61.81640625 440.64697266 63.0625 438.51416016 C64.11098808 436.49145552 64.11098808 436.49145552 62.875 433.72119141 C62.07255859 432.04476562 62.07255859 432.04476562 61.25390625 430.33447266 C58.81680118 425.06608727 56.73402773 419.79430713 54.94140625 414.27197266 C54.61934204 413.28136841 54.61934204 413.28136841 54.29077148 412.27075195 C53.79434922 410.73108488 53.3045854 409.18927317 52.81640625 407.64697266 C51.81347534 407.75090332 51.81347534 407.75090332 50.7902832 407.85693359 C8.23302443 412.03059722 -35.35623641 402.36439597 -69.15234375 375.22509766 C-74.30507653 370.84261874 -79.28289547 366.30843567 -84.18359375 361.64697266 C-85.15039062 360.75945312 -85.15039062 360.75945312 -86.13671875 359.85400391 C-113.74559141 333.72878562 -129.32004793 292.65611932 -130.38671875 255.19384766 C-131.02044953 208.52639416 -115.21658498 168.32395877 -83.18359375 134.64697266 C-82.59191406 134.00244141 -82.00023437 133.35791016 -81.390625 132.69384766 C-55.25590669 105.07493547 -14.17036295 89.50359562 23.3046875 88.44384766 C69.82058493 87.81971332 110.15772678 103.6313944 143.81640625 135.64697266 C144.4609375 136.23865234 145.10546875 136.83033203 145.76953125 137.43994141 C172.49799026 162.73205799 188.73686398 203.09239342 189.90844727 239.5078125 C189.94986598 242.53410686 189.95298 245.55793705 189.94140625 248.58447266 C189.94527344 249.591875 189.94914062 250.59927734 189.953125 251.63720703 C189.94448071 258.35814144 189.5389359 264.96563075 188.81640625 271.64697266 C189.9765625 272.02208984 191.13671875 272.39720703 192.33203125 272.78369141 C193.91051289 273.29952844 195.48861226 273.81653611 197.06640625 274.33447266 C197.88310791 274.60195313 198.69980957 274.86943359 199.54125977 275.14501953 C205.38723064 277.09080152 210.95754871 279.32548724 216.53125 281.95947266 C217.66240234 282.29978516 217.66240234 282.29978516 218.81640625 282.64697266 C219.80640625 281.98697266 220.79640625 281.32697266 221.81640625 280.64697266 C224.5834886 280.07550204 227.30741017 279.59327244 230.09765625 279.17431641 C231.31249695 278.98235435 231.31249695 278.98235435 232.55187988 278.78651428 C235.13901789 278.37884282 237.72756703 277.98118451 240.31640625 277.58447266 C242.90494926 277.18252051 245.49313862 276.77846575 248.08093262 276.37171936 C249.69087115 276.11922807 251.3012943 275.8698036 252.91223145 275.62376404 C255.98695445 275.14587535 258.85813782 274.63306213 261.81640625 273.64697266 C261.81640625 257.14697266 261.81640625 240.64697266 261.81640625 223.64697266 C249.67864137 221.33501744 237.82574106 219.11321983 225.625 217.45556641 C221.88012161 216.66049992 220.51176728 216.20606919 217.81640625 213.64697266 C216.81494141 211.26538086 216.81494141 211.26538086 216.10546875 208.44775391 C215.83371826 207.41158936 215.56196777 206.3754248 215.28198242 205.30786133 C214.86589722 203.65040894 214.86589722 203.65040894 214.44140625 201.95947266 C210.7180302 188.00300984 206.21458637 175.17160121 199.81640625 162.20947266 C199.41317139 161.39244873 199.00993652 160.5754248 198.59448242 159.73364258 C196.07703206 154.77306705 193.27013404 150.16808381 190.08129883 145.60913086 C187.99363264 142.37064926 187.48301563 140.51430382 187.81640625 136.64697266 C189.69486126 132.66867331 192.21193467 129.17436835 194.81640625 125.64697266 C195.29464844 124.99889648 195.77289063 124.35082031 196.265625 123.68310547 C198.8352342 120.21866385 201.42990434 116.77495705 204.046875 113.34619141 C206.43947688 110.19234431 208.66010363 106.96634065 210.81640625 103.64697266 C209.47067738 100.64753361 207.98103524 98.56621087 205.65185547 96.25537109 C205.01134247 95.61500916 204.37082947 94.97464722 203.71090698 94.31488037 C203.02126862 93.63556458 202.33163025 92.95624878 201.62109375 92.25634766 C200.91365021 91.55173401 200.20620667 90.84712036 199.47732544 90.12115479 C197.22000763 87.87501876 194.95582992 85.63594257 192.69140625 83.39697266 C191.15839672 81.87399548 189.6258391 80.35056327 188.09375 78.82666016 C184.33986052 75.0948045 180.58031711 71.36871915 176.81640625 67.64697266 C173.42339506 68.89431101 170.64953016 70.29707648 167.7421875 72.43994141 C166.99678711 72.98489258 166.25138672 73.52984375 165.48339844 74.09130859 C164.3179248 74.9541748 164.3179248 74.9541748 163.12890625 75.83447266 C161.51576107 77.01044058 159.90248081 78.18622324 158.2890625 79.36181641 C155.72648235 81.23975816 153.17226267 83.12712375 150.625 85.02587891 C149.78066406 85.64333984 148.93632812 86.26080078 148.06640625 86.89697266 C147.3703125 87.41775391 146.67421875 87.93853516 145.95703125 88.47509766 C143.18216796 89.9941834 140.97221477 90.45558814 137.81640625 90.64697266 C135.4921875 89.78369141 135.4921875 89.78369141 133.12890625 88.33447266 C132.18144531 87.78146484 131.23398437 87.22845703 130.2578125 86.65869141 C129.12214844 85.99482422 127.98648437 85.33095703 126.81640625 84.64697266 C111.40464035 76.10778117 96.25203922 69.36524404 79.22314453 64.73779297 C64.54843647 60.74501798 64.54843647 60.74501798 61.81640625 56.64697266 C61.24493563 53.8798903 60.76270603 51.15596874 60.34375 48.36572266 C60.15178795 47.15088196 60.15178795 47.15088196 59.95594788 45.91149902 C59.54827642 43.32436102 59.15061811 40.73581188 58.75390625 38.14697266 C58.3519541 35.55842965 57.94789935 32.97024029 57.54115295 30.38244629 C57.28866166 28.77250775 57.0392372 27.1620846 56.79319763 25.55114746 C56.31530894 22.47642446 55.80249573 19.60524109 54.81640625 16.64697266 C38.31640625 16.64697266 21.81640625 16.64697266 4.81640625 16.64697266 Z M-34.18359375 119.64697266 C-35.27027344 120.19224609 -36.35695313 120.73751953 -37.4765625 121.29931641 C-72.07966081 139.18907767 -96.05932717 170.03366821 -108.18359375 206.64697266 C-119.03285396 241.4970235 -115.98321439 280.18454781 -99.18359375 312.64697266 C-98.63832031 313.73365234 -98.09304687 314.82033203 -97.53125 315.93994141 C-79.64148874 350.54303972 -48.79689819 374.52270608 -12.18359375 386.64697266 C7.92916163 392.90832699 28.96208052 394.30154569 49.81640625 391.64697266 C50.80214633 388.68975243 50.86272394 387.07833049 50.75390625 384.02197266 C50.71442287 379.04706662 51.06779994 374.20770228 51.62890625 369.27197266 C51.69907959 368.61374512 51.76925293 367.95551758 51.84155273 367.27734375 C52.38965077 362.72719925 53.31736349 358.32191678 54.36206055 353.859375 C54.63390671 352.69433441 54.90575287 351.52929382 55.18583679 350.32894897 C55.39392471 349.44389679 55.60201263 348.5588446 55.81640625 347.64697266 C53.85988884 347.63484238 53.85988884 347.63484238 51.86384583 347.62246704 C39.57733436 347.54501443 27.29093375 347.45727721 15.00456715 347.35944557 C8.6878816 347.30947945 2.37121281 347.26314926 -3.94555664 347.22509766 C-10.04048992 347.18824912 -16.13528317 347.14188999 -22.23009682 347.08890915 C-24.55649677 347.07036298 -26.88292674 347.05525585 -29.20937157 347.04362869 C-32.46549218 347.02677035 -35.72129195 346.99773564 -38.97729492 346.96582031 C-39.94114609 346.96366013 -40.90499725 346.96149994 -41.89805603 346.95927429 C-50.43032603 346.8522952 -50.43032603 346.8522952 -54.18359375 344.64697266 C-56.59503377 341.02981262 -56.4727883 338.39206809 -56.45825195 334.21313477 C-56.46336288 333.45822754 -56.46847382 332.70332031 -56.47373962 331.92553711 C-56.48765861 329.42504986 -56.48667592 326.92483785 -56.484375 324.42431641 C-56.48826315 322.68135984 -56.49259807 320.93840422 -56.49736023 319.19544983 C-56.5048292 315.53611183 -56.50452809 311.87687025 -56.49926758 308.2175293 C-56.49349854 303.54946843 -56.51033812 298.88180766 -56.53361225 294.21381283 C-56.54842196 290.60962144 -56.54921104 287.0055245 -56.54610252 283.40130806 C-56.54661298 281.68188249 -56.55179859 279.96245124 -56.56191444 278.24305534 C-56.63487917 264.09524177 -55.39735519 252.96473429 -45.73046875 241.99853516 C-32.54111916 229.40870146 -11.60132437 225.74210363 5.81640625 223.64697266 C4.45351276 220.60050487 2.8861698 218.52943252 0.56640625 216.14697266 C-7.73860458 206.83843968 -12.42297481 194.0405871 -13.18359375 181.64697266 C-13.24804688 180.78845703 -13.3125 179.92994141 -13.37890625 179.04541016 C-13.92415658 165.55955193 -10.59956083 152.81118753 -1.44140625 142.72900391 C8.11404993 133.4312675 20.30098429 131.31028794 33.1484375 131.43212891 C44.72164365 132.11000573 55.27726953 136.06491577 63.25390625 144.65087891 C72.18079439 156.0549785 73.86463867 170.61141467 72.53515625 184.60791016 C70.36683818 200.49500986 62.87448656 211.65061645 52.81640625 223.64697266 C53.43459229 223.74196045 54.05277832 223.83694824 54.68969727 223.93481445 C96.15038086 230.41845732 96.15038086 230.41845732 109.1953125 246.31103516 C114.5623184 254.04469667 115.87778337 261.76674309 116.37890625 270.95947266 C116.42208984 271.70003906 116.46527344 272.44060547 116.50976562 273.20361328 C116.61511057 275.01788729 116.71618941 276.83240815 116.81640625 278.64697266 C117.41791504 278.46086426 118.01942383 278.27475586 118.63916016 278.08300781 C135.55499195 272.91909006 151.75753408 269.34095196 169.515625 269.70947266 C171.7807719 269.91182194 171.7807719 269.91182194 172.81640625 268.64697266 C176.8133989 240.01137533 172.11755779 210.34919782 158.81640625 184.64697266 C157.99849609 183.01695312 157.99849609 183.01695312 157.1640625 181.35400391 C139.27430124 146.7509056 108.42971069 122.77123924 71.81640625 110.64697266 C36.96635541 99.79771244 -1.7211689 102.84735201 -34.18359375 119.64697266 Z M10.1640625 153.99853516 C6.0986456 158.97130597 3.22635919 165.22437662 2.81640625 171.64697266 C2.76613281 172.27603516 2.71585938 172.90509766 2.6640625 173.55322266 C2.13392869 185.25857714 5.65040354 197.71553512 13.515625 206.55712891 C18.26302357 210.89913164 23.20142629 213.30402447 29.62890625 214.14697266 C36.31267014 213.84847446 42.60481219 210.34844833 47.12890625 205.52197266 C55.10849871 195.1010318 57.96224299 182.27368436 56.57421875 169.40087891 C55.30654454 161.93712363 51.68991733 156.03137546 45.87890625 151.20947266 C34.96173709 145.63948839 19.69635728 145.23625862 10.1640625 153.99853516 Z M-34.24609375 254.27197266 C-34.88546875 255.05572266 -35.52484375 255.83947266 -36.18359375 256.64697266 C-37.04984375 257.66791016 -37.04984375 257.66791016 -37.93359375 258.70947266 C-40.47442996 262.64776878 -40.30588857 266.56448502 -40.29711914 271.15966797 C-40.29726517 271.80398773 -40.29741119 272.4483075 -40.29756165 273.1121521 C-40.29686725 275.23316868 -40.28909711 277.35409649 -40.28125 279.47509766 C-40.27938414 280.94911654 -40.27796103 282.42313604 -40.27696228 283.89715576 C-40.27315036 287.77036257 -40.2633314 291.64353168 -40.2522583 295.51672363 C-40.24201568 299.47159312 -40.23745855 303.42646872 -40.23242188 307.38134766 C-40.22170792 315.13657514 -40.20412187 322.8917638 -40.18359375 330.64697266 C-33.91359375 330.64697266 -27.64359375 330.64697266 -21.18359375 330.64697266 C-21.17424805 329.1177417 -21.16490234 327.58851074 -21.15527344 326.01293945 C-21.11545632 320.34906689 -21.04972017 314.68574226 -20.97607422 309.0222168 C-20.9478166 306.5691633 -20.92662606 304.11601794 -20.91259766 301.6628418 C-20.89123503 298.14014487 -20.84461723 294.61855813 -20.79296875 291.09619141 C-20.79112579 289.44607307 -20.79112579 289.44607307 -20.78924561 287.76261902 C-20.75966766 286.23137138 -20.75966766 286.23137138 -20.72949219 284.66918945 C-20.72060974 283.76984177 -20.71172729 282.87049408 -20.70257568 281.94389343 C-20.18359375 279.64697266 -20.18359375 279.64697266 -18.37213135 277.85652161 C-15.18309108 276.09402033 -12.75921869 276.25690448 -9.18359375 276.64697266 C-7.08000994 278.18960078 -6.34305216 279.32805583 -5.18359375 281.64697266 C-5.06519262 283.21903908 -5.00656342 284.79580535 -4.97827148 286.37207031 C-4.94835365 287.84336899 -4.94835365 287.84336899 -4.91783142 289.34439087 C-4.90111893 290.40588348 -4.88440643 291.4673761 -4.8671875 292.56103516 C-4.8464064 293.64581146 -4.82562531 294.73058777 -4.80421448 295.84823608 C-4.73868741 299.32274886 -4.67981928 302.79733889 -4.62109375 306.27197266 C-4.57791154 308.62354323 -4.53429735 310.97510592 -4.49023438 313.32666016 C-4.38300282 319.10001536 -4.28124231 324.87344786 -4.18359375 330.64697266 C4.53484628 330.67009877 13.25327581 330.68788911 21.97173977 330.69878483 C26.01966367 330.70401307 30.06756666 330.71110964 34.11547852 330.72241211 C38.01876596 330.73324309 41.92203324 330.73924994 45.82533455 330.7418499 C47.31774272 330.74370377 48.81014973 330.74732366 50.30254936 330.75270271 C52.38588764 330.75991596 54.46914156 330.76096348 56.55249023 330.76049805 C58.33453102 330.76382896 58.33453102 330.76382896 60.15257263 330.76722717 C62.73761318 330.95059861 62.73761318 330.95059861 63.81640625 329.64697266 C63.92842457 328.16463975 63.9731265 326.67713761 63.98999023 325.19067383 C64.00348007 324.24266403 64.01696991 323.29465424 64.03086853 322.31791687 C64.04130692 321.28568497 64.0517453 320.25345306 64.0625 319.18994141 C64.09544244 317.0239218 64.12865402 314.85790628 64.16210938 312.69189453 C64.20952737 309.26182919 64.25393708 305.83177993 64.29321289 302.40161133 C64.33290776 299.10170824 64.38446614 295.80215326 64.4375 292.50244141 C64.44591415 291.4762822 64.45432831 290.45012299 64.46299744 289.39286804 C64.47963943 288.43540176 64.49628143 287.47793549 64.51342773 286.49145508 C64.5237352 285.65063889 64.53404266 284.80982269 64.54466248 283.94352722 C64.84359369 281.4172068 65.46650546 279.79463097 66.81640625 277.64697266 C69.90814377 276.1011039 72.41070177 276.35337744 75.81640625 276.64697266 C78.53181053 278.71533281 79.66925822 279.93071184 80.36230469 283.30419922 C80.39372559 284.78098145 80.39372559 284.78098145 80.42578125 286.28759766 C80.45800781 287.35751953 80.49023438 288.42744141 80.5234375 289.52978516 C80.53761719 290.64095703 80.55179687 291.75212891 80.56640625 292.89697266 C80.59605469 294.02361328 80.62570312 295.15025391 80.65625 296.31103516 C80.72689537 299.08975287 80.77961902 301.86763414 80.81640625 304.64697266 C81.26008545 304.26387939 81.70376465 303.88078613 82.16088867 303.48608398 C85.77239884 300.37744844 89.40914332 297.31375401 93.12890625 294.33447266 C93.97066406 293.65771484 94.81242188 292.98095703 95.6796875 292.28369141 C97.81640625 290.64697266 97.81640625 290.64697266 99.81640625 289.64697266 C99.90405694 285.62627841 99.95701643 281.60583256 100.00390625 277.58447266 C100.02904297 276.45074219 100.05417969 275.31701172 100.08007812 274.14892578 C100.14801472 266.38150825 99.7338386 261.14789147 94.62890625 255.02197266 C67.4378864 232.060667 -7.50194544 228.48013823 -34.24609375 254.27197266 Z M100.81640625 309.64697266 C100.14222656 310.17677734 99.46804688 310.70658203 98.7734375 311.25244141 C80.15182669 326.30583936 69.62404907 350.86853752 67.09765625 374.21337891 C65.0688493 398.98173039 72.27377739 424.89102699 88.47265625 444.04931641 C107.33339064 464.95329702 129.31218584 477.61805243 157.69140625 480.52197266 C185.15880531 481.78194509 210.48289451 472.25567898 230.87109375 453.93603516 C248.57889869 437.44432531 260.07375431 414.42942892 261.1953125 390.16650391 C261.91687619 362.84303627 255.2172207 338.36918366 236.1171875 318.04931641 C235.35792969 317.25654297 234.59867188 316.46376953 233.81640625 315.64697266 C232.78580078 314.50421875 232.78580078 314.50421875 231.734375 313.33837891 C214.77395375 295.18223223 189.04294234 286.20102023 164.62890625 285.33447266 C140.88879937 285.92797533 118.83333918 294.11942597 100.81640625 309.64697266 Z " fill="#000000" transform="translate(226.18359375,7.35302734375)"/>
<path d="M0 0 C5.26486661 3.6697319 9.02296599 8.15492287 10.23046875 14.5546875 C11.15860933 23.31480887 9.79784258 29.04476801 5.23046875 36.5546875 C2.59617417 39.79274662 -0.31982877 42.6691048 -3.32421875 45.5625 C-4.55387863 46.77799026 -4.55387863 46.77799026 -5.80838013 48.01803589 C-8.40877149 50.58410702 -11.02574866 53.13240091 -13.64453125 55.6796875 C-16.25260354 58.23752094 -18.85705657 60.79895815 -21.45925903 63.36276245 C-23.07234374 64.9497898 -24.68935518 66.53283978 -26.31100464 68.1111145 C-30.46705571 72.17660754 -34.41257874 76.33399129 -38.20153809 80.74353027 C-41.67376009 84.75422376 -45.42167785 88.50988757 -49.14770508 92.28295898 C-50.10398317 93.25583969 -51.05485814 94.23406095 -52.00024414 95.2175293 C-58.73077463 102.21574473 -65.23460093 108.30364852 -75.0546875 110.18359375 C-75.97121094 110.16167969 -76.88773437 110.13976562 -77.83203125 110.1171875 C-79.21068359 110.11912109 -79.21068359 110.11912109 -80.6171875 110.12109375 C-89.71598831 108.48624106 -95.48493149 103.57696765 -101.8203125 97.1328125 C-102.64154099 96.31399597 -103.46276947 95.49517944 -104.30888367 94.65155029 C-106.03336637 92.9260927 -107.75169116 91.19446086 -109.46411133 89.45703125 C-112.07591459 86.81088459 -114.71090905 84.18960881 -117.34960938 81.5703125 C-119.02878096 79.88424261 -120.70656343 78.19678791 -122.3828125 76.5078125 C-123.16513748 75.73044739 -123.94746246 74.95308228 -124.75349426 74.15216064 C-131.02686012 67.74297025 -135.35456284 61.90816283 -135.26953125 52.5546875 C-134.98057398 44.09365755 -133.03903126 39.43574211 -126.89453125 33.6796875 C-121.05311469 28.97439967 -116.0816187 28.33205791 -108.74609375 28.19140625 C-99.0550296 29.37417392 -94.2905513 34.3956173 -87.76953125 41.2421875 C-86.89941406 42.13486328 -86.02929688 43.02753906 -85.1328125 43.94726562 C-82.99988233 46.13879278 -80.87955614 48.34113633 -78.76953125 50.5546875 C-73.14008683 45.91915506 -68.03497849 40.89165782 -62.94012642 35.67818642 C-60.99184558 33.68723374 -59.03369628 31.70610289 -57.07619381 29.72422314 C-53.44741836 26.05001433 -49.82275972 22.37195643 -46.21459961 18.67749023 C-43.6887463 16.09198542 -41.15062425 13.51908901 -38.60416985 10.9538784 C-37.64321328 9.98125271 -36.68678518 9.00412933 -35.7352314 8.02230263 C-25.39606765 -2.63761599 -14.00483417 -7.88189395 0 0 Z M-19.359375 16.33984375 C-20.04628418 16.98066895 -20.73319336 17.62149414 -21.44091797 18.28173828 C-22.20936035 19.03181152 -22.97780273 19.78188477 -23.76953125 20.5546875 C-24.65527832 21.41433105 -25.54102539 22.27397461 -26.45361328 23.15966797 C-28.92646093 25.57768952 -31.37475576 28.01927208 -33.81518555 30.4699707 C-35.32945705 31.98960418 -36.84900555 33.50381267 -38.36914062 35.01757812 C-43.08387763 39.72908909 -47.6781351 44.49323712 -52.01928711 49.55541992 C-55.62399066 53.67299802 -59.44496466 57.58001236 -63.26953125 61.4921875 C-64.08550781 62.35392578 -64.90148437 63.21566406 -65.7421875 64.10351562 C-71.74180661 70.21388212 -71.74180661 70.21388212 -76.55078125 71.80859375 C-82.53444822 71.33658119 -85.84126655 67.69509686 -89.82421875 63.484375 C-90.77805175 62.49552036 -91.73249777 61.50725673 -92.6875 60.51953125 C-94.17085874 58.97426353 -95.64901688 57.42491919 -97.11669922 55.86474609 C-98.54721267 54.349157 -99.99632354 52.85347953 -101.44921875 51.359375 C-102.30241699 50.46202637 -103.15561523 49.56467773 -104.03466797 48.64013672 C-107.3586181 46.1054838 -109.62537105 45.68207822 -113.76953125 45.5546875 C-116.81374711 47.50610792 -117.584144 48.81313848 -118.45703125 52.3046875 C-116.56641599 61.24214145 -105.22190166 69.25468841 -98.87060547 75.58398438 C-97.00630824 77.44287214 -95.14747859 79.30710953 -93.2890625 81.171875 C-92.10058134 82.35969618 -90.91179045 83.54720758 -89.72265625 84.734375 C-89.16950745 85.28954803 -88.61635864 85.84472107 -88.04644775 86.41671753 C-83.68619127 90.91307834 -83.68619127 90.91307834 -77.9618988 93.01599121 C-73.64643014 92.39239707 -71.59905448 90.19126545 -68.69165039 87.17382812 C-68.11680405 86.60146423 -67.5419577 86.02910034 -66.94969177 85.43939209 C-65.05332035 83.54393861 -63.1792045 81.62798699 -61.3046875 79.7109375 C-59.98606155 78.38365061 -58.66617148 77.0576185 -57.34507751 75.73278809 C-53.86707186 72.237545 -50.40786379 68.72423934 -46.95184326 65.20727539 C-44.14428808 62.35631065 -41.32391357 59.51822817 -38.50266361 56.68082428 C-35.11994499 53.27838009 -31.74262425 49.87060455 -28.3671875 46.4609375 C-27.73055742 45.81788162 -27.09392735 45.17482574 -26.43800545 44.51228333 C-20.01906267 38.01853513 -13.67446887 31.52633919 -7.76953125 24.5546875 C-7.43953125 24.2246875 -7.10953125 23.8946875 -6.76953125 23.5546875 C-6.36922248 19.95190855 -6.32690618 18.1776413 -8.45703125 15.1796875 C-12.59630691 12.2710073 -15.80555207 12.99231133 -19.359375 16.33984375 Z " fill="#000000" transform="translate(452.76953125,342.4453125)"/>
</svg>
