<?xml version="1.0" encoding="UTF-8"?>
<svg version="1.1" xmlns="http://www.w3.org/2000/svg" width="512" height="512">
<path d="M0 0 C6.27446318 5.36090264 10.27497707 11.26656695 14.125 18.5 C15.23516455 20.52573511 16.34721185 22.55043931 17.4609375 24.57421875 C18.03295898 25.62013184 18.60498047 26.66604492 19.19433594 27.74365234 C22.28675703 33.32054696 25.52069078 38.81410388 28.75 44.3125 C29.93275099 46.32915776 31.11508052 48.3460628 32.296875 50.36328125 C32.79541992 51.21188721 33.29396484 52.06049316 33.80761719 52.93481445 C34.57742141 54.2681015 35.31148669 55.62297338 36 57 C36.99386719 56.84144531 37.98773438 56.68289062 39.01171875 56.51953125 C50.49951093 54.89409094 61.38581925 54.79809952 71.20703125 61.5078125 C78.0927445 67.00105313 82.35807503 74.34257743 84 83 C84.94318717 92.25774483 83.53700763 100.45850655 77.73046875 107.9140625 C75.55052049 110.35148497 73.32923054 112.70560838 71 115 C72.27447124 119.18068101 73.84681318 122.76744927 76.0546875 126.53515625 C76.96903564 128.10608032 76.96903564 128.10608032 77.90185547 129.70874023 C78.55299316 130.81548096 79.20413086 131.92222168 79.875 133.0625 C80.5476915 134.21584617 81.21972231 135.36957792 81.89111328 136.52368164 C83.25736015 138.87150096 84.62581729 141.21800691 85.99609375 143.56347656 C88.97723375 148.67587015 91.93108661 153.80360226 94.875 158.9375 C95.38015137 159.81220947 95.88530273 160.68691895 96.40576172 161.58813477 C96.86740723 162.39307373 97.32905273 163.1980127 97.8046875 164.02734375 C98.20671387 164.72593506 98.60874023 165.42452637 99.02294922 166.14428711 C102.54884866 172.84102915 102.23270746 182.93871485 100.05859375 190.1015625 C96.24281023 198.02021042 90.62364312 202.85324851 83 207 C76.07369065 209.30876978 65.59108863 209.28112642 58.84765625 206.18359375 C48.78750765 199.73914338 48.78750765 199.73914338 47.38842773 194.87280273 C47.19615601 193.94576538 47.19615601 193.94576538 47 193 C7.67905318 194.78336153 -28.45768611 202.09860603 -65.33813477 216.09545898 C-67.88482987 216.96086349 -70.35315287 217.53919583 -73 218 C-69.02469036 224.07152821 -64.88847814 229.98638428 -60.5625 235.8125 C-59.96050781 236.62654297 -59.35851562 237.44058594 -58.73828125 238.27929688 C-53.73356156 245.03670248 -48.68463916 251.76075902 -43.6340332 258.48388672 C-39.15243701 264.45349232 -34.68927363 270.4363458 -30.25 276.4375 C-29.66541016 277.22447266 -29.08082031 278.01144531 -28.47851562 278.82226562 C-20.72662473 289.32630713 -20.72662473 289.32630713 -20.125 294.3125 C-20.02445313 295.00988281 -19.92390625 295.70726562 -19.8203125 296.42578125 C-20.36282922 304.19792299 -24.13601313 308.83740104 -29.8125 313.8125 C-30.41642578 314.37130859 -31.02035156 314.93011719 -31.64257812 315.50585938 C-37.8376658 321.10077709 -42.95138105 323.64688185 -51.3984375 323.328125 C-58.48464268 322.43436939 -62.16278619 316.75478977 -66.33203125 311.49609375 C-72.02074259 304.09707927 -77.49684192 296.53715835 -83 289 C-85.28819251 285.87243965 -87.58017793 282.74769885 -89.875 279.625 C-90.43678955 278.85937744 -90.9985791 278.09375488 -91.57739258 277.30493164 C-94.81922655 272.90357299 -98.10628286 268.5412032 -101.4375 264.20703125 C-102.17629395 263.24522949 -102.91508789 262.28342773 -103.67626953 261.29248047 C-105.12068525 259.41695333 -106.56945246 257.54476786 -108.02294922 255.67626953 C-108.67279785 254.83306152 -109.32264648 253.98985352 -109.9921875 253.12109375 C-110.57339355 252.3727124 -111.15459961 251.62433105 -111.75341797 250.85327148 C-113 249 -113 249 -113 247 C-114.02480469 247.42152344 -115.04960937 247.84304688 -116.10546875 248.27734375 C-117.46605181 248.8309603 -118.82673416 249.38433286 -120.1875 249.9375 C-120.86103516 250.21529297 -121.53457031 250.49308594 -122.22851562 250.77929688 C-134.68316497 255.821911 -149.60432393 255.77894085 -162.21484375 251.1875 C-175.6041256 245.47874589 -186.41131404 236.10702778 -192.50390625 222.6875 C-198.38974672 207.93097689 -198.70630736 193.2649222 -192.96875 178.3125 C-185.84720087 162.91455593 -173.65996549 154.64356792 -159.3125 146.5625 C-158.15101758 145.90403737 -156.9898051 145.24509834 -155.82885742 144.58569336 C-153.56659832 143.30144915 -151.30336838 142.01891326 -149.0390625 140.73828125 C-146.48215275 139.27578146 -143.95278451 137.78246038 -141.4375 136.25 C-140.80674561 135.87029053 -140.17599121 135.49058105 -139.52612305 135.09936523 C-137.95601981 134.14933981 -136.39361465 133.18662189 -134.83203125 132.22265625 C-132 131 -132 131 -128.625 131.1796875 C-123.41782418 130.92157318 -120.99892392 128.4131922 -117.1875 125.0625 C-116.48753906 124.47001465 -115.78757812 123.8775293 -115.06640625 123.26708984 C-113.02653003 121.53065462 -111.00949773 119.77144237 -109 118 C-107.52466797 116.70255859 -107.52466797 116.70255859 -106.01953125 115.37890625 C-104.38232728 113.91430673 -102.75413704 112.43954577 -101.13671875 110.953125 C-99.23087653 109.21103887 -97.28496698 107.54045187 -95.3125 105.875 C-84.96254497 96.8293076 -75.38739286 86.88364074 -67 76 C-65.98514935 74.72464385 -64.9694622 73.44995307 -63.953125 72.17578125 C-58.15545768 64.84237627 -52.61959148 57.32364725 -47.5 49.5 C-47.00064941 48.78320068 -46.50129883 48.06640137 -45.98681641 47.32788086 C-43.4438977 43.32590355 -43.4438977 43.32590355 -43.37695312 38.73022461 C-43.91934624 37.19338966 -44.50745696 35.67197135 -45.13867188 34.16943359 C-47.55572641 28.08158025 -47.02060697 20.12257132 -45.015625 13.98828125 C-43.82118578 11.52198545 -42.52397348 9.27491694 -41 7 C-40.401875 6.071875 -39.80375 5.14375 -39.1875 4.1875 C-28.89667323 -6.10332677 -12.21069704 -8.60983395 0 0 Z M-26 13 C-30.02282897 17.34042073 -31.49505074 20.3389539 -31.41113281 26.35107422 C-30.58698508 31.66105219 -27.59987222 36.01448867 -24.875 40.5625 C-24.24190918 41.65457764 -23.60881836 42.74665527 -22.95654297 43.87182617 C-20.98853028 47.25847439 -18.99539321 50.62943015 -17 54 C-15.8365251 55.99361616 -14.67498517 57.98836316 -13.515625 59.984375 C-11.2294265 63.91754537 -8.93395383 67.84508687 -6.6328125 71.76953125 C-2.70522451 78.48461274 1.14949706 85.24058722 5 92 C10.53953103 101.72142984 16.13375187 111.40895304 21.78344727 121.06689453 C26.0261746 128.32212046 30.23949413 135.5938114 34.4375 142.875 C35.05367188 143.94234375 35.66984375 145.0096875 36.3046875 146.109375 C39.23075658 151.18122807 42.14978024 156.25684417 45.04728699 161.34506226 C46.06181375 163.12570843 47.07853736 164.90508187 48.09594727 166.68408203 C49.36907954 168.91170789 50.63807335 171.14170622 51.90209961 173.37451172 C57.99577559 185.14682186 57.99577559 185.14682186 68 193 C72.74523221 193.6967906 76.04966298 193.47516851 80.375 191.3125 C84.44877606 187.72369728 86.15777746 185.06291338 86.51171875 179.6328125 C86.40976478 172.39800193 82.61284559 166.99714511 78.9375 161 C78.20425802 159.76709562 77.47325725 158.53285586 76.74438477 157.29736328 C75.24444094 154.7602079 73.7340152 152.22978836 72.21484375 149.70410156 C68.87616121 144.14047522 65.66471561 138.50372457 62.4375 132.875 C61.19875237 130.72868412 59.95916822 128.58285083 58.71875 126.4375 C56.2157051 122.10591493 53.71578227 117.77255397 51.21875 113.4375 C45.19560261 102.98287049 39.15477555 92.53951558 33.0625 82.125 C28.33261469 74.03788136 23.65570489 65.92187742 19.01620483 57.78268433 C13.45492072 48.02676338 7.88049897 38.27868942 2.25 28.5625 C1.39148438 27.07073242 1.39148438 27.07073242 0.515625 25.54882812 C-5.17656674 15.53274064 -5.17656674 15.53274064 -15 10 C-19.56397781 10 -21.96733087 10.91165349 -26 13 Z M-34 56 C-34.45886597 56.70793701 -34.45886597 56.70793701 -34.92700195 57.43017578 C-44.17828516 71.64728462 -53.896826 84.93396149 -65.5 97.31640625 C-67.63629423 99.60958458 -69.70702766 101.93663261 -71.75 104.3125 C-76.73073506 110.03857071 -82.11455831 115.19730106 -87.8671875 120.140625 C-89.30989552 121.39837046 -90.73153876 122.6806258 -92.1328125 123.984375 C-99.95924285 131.25366963 -108.45965459 137.59994666 -117 144 C-115.5839494 147.78518732 -113.84578935 151.19749321 -111.83203125 154.69921875 C-111.19289795 155.81433838 -110.55376465 156.92945801 -109.89526367 158.07836914 C-109.20118861 159.28151632 -108.50692981 160.48455753 -107.8125 161.6875 C-107.09915445 162.92753176 -106.38602257 164.16768646 -105.6730957 165.40795898 C-104.19543806 167.97764484 -102.7158213 170.54619127 -101.23535156 173.11425781 C-99.40180449 176.29757961 -97.57915711 179.48696433 -95.7613678 182.67930603 C-94.72957705 184.49071397 -93.6956445 186.30088016 -92.66088867 188.1105957 C-91.36609541 190.37548273 -90.07448126 192.64219078 -88.78637695 194.91088867 C-87.90792114 196.44193237 -87.90792114 196.44193237 -87.01171875 198.00390625 C-86.50084717 198.89924072 -85.98997559 199.7945752 -85.46362305 200.71704102 C-84.13488437 202.78960738 -82.81729995 204.35451996 -81 206 C-80.34854004 205.73896484 -79.69708008 205.47792969 -79.02587891 205.20898438 C-41.38991702 190.21499572 -3.55852692 180.33836438 37 178 C35.65544302 174.45565573 34.08771656 171.19200807 32.234375 167.88671875 C31.68144775 166.89873291 31.12852051 165.91074707 30.55883789 164.89282227 C29.66346313 163.30618774 29.66346313 163.30618774 28.75 161.6875 C28.12665771 160.57882568 27.50331543 159.47015137 26.86108398 158.32788086 C21.52126695 148.86059123 16.05876975 139.46700035 10.5625 130.08984375 C6.8678663 123.78429479 3.21159419 117.45698676 -0.4375 111.125 C-1.05568604 110.05282227 -1.67387207 108.98064453 -2.31079102 107.87597656 C-5.53192804 102.28759863 -8.74941864 96.69713486 -11.96484375 91.10546875 C-20.0802457 76.98748279 -20.0802457 76.98748279 -28.3125 62.9375 C-28.66747559 62.33010986 -29.02245117 61.72271973 -29.38818359 61.09692383 C-31.1556442 58.00805633 -31.1556442 58.00805633 -34 56 Z M46 71 C44.60832035 74.02988763 44.60832035 74.02988763 46.35522461 76.91088867 C47.02712663 78.08596486 47.71028926 79.25464723 48.40234375 80.41796875 C48.75889542 81.03521317 49.11544708 81.65245758 49.48280334 82.28840637 C50.62489455 84.26045683 51.78093655 86.22390907 52.9375 88.1875 C53.71382284 89.52224469 54.48922537 90.85752512 55.26367188 92.19335938 C57.16515409 95.46855393 59.07918938 98.73610655 61 102 C65.17182 100.05884176 66.35328828 98.28740081 68.234375 94.14453125 C69.9630576 89.30245601 69.41828831 85.45952082 67.375 80.875 C64.91725246 76.35450006 61.63601532 73.31800766 57 71 C55.12620395 70.92966231 53.24998898 70.9156978 51.375 70.9375 C49.87066406 70.95103516 49.87066406 70.95103516 48.3359375 70.96484375 C47.17964844 70.98224609 47.17964844 70.98224609 46 71 Z M-144.59887695 155.50634766 C-146.52704177 156.60479988 -148.45963782 157.69513555 -150.39257812 158.78515625 C-164.47256251 166.77649256 -175.20688953 174.29315656 -181 190 C-181.89830839 193.05272465 -181.89830839 193.05272465 -182 196 C-182.061875 196.62777344 -182.12375 197.25554687 -182.1875 197.90234375 C-182.80081285 208.50115652 -178.7979829 218.31497905 -172.3359375 226.5546875 C-164.16175646 235.11160612 -154.24590975 239.06187463 -142.625 239.4375 C-130.94232083 239.62839345 -121.19252705 233.7479423 -111.37207031 228.02709961 C-109.48048432 226.9261413 -107.58084851 225.84018378 -105.6796875 224.75585938 C-98.83010442 221.05393802 -98.83010442 221.05393802 -93 216 C-93.37584229 215.34854004 -93.75168457 214.69708008 -94.13891602 214.02587891 C-95.28322426 212.04241128 -96.42750901 210.0589301 -97.57177734 208.07543945 C-98.9143823 205.74835632 -100.25713074 203.42135663 -101.60009766 201.09448242 C-105.07731577 195.06922902 -108.55180265 189.04243967 -112.01953125 183.01171875 C-120.12895389 168.90353164 -120.12895389 168.90353164 -128.375 154.875 C-128.73835449 154.25923096 -129.10170898 153.64346191 -129.47607422 153.0090332 C-130.28837612 151.65486109 -131.13924502 150.32390233 -132 149 C-135.87584934 149 -141.13274447 153.52855448 -144.59887695 155.50634766 Z M-93.125 234 C-93.78371094 234.3815625 -94.44242187 234.763125 -95.12109375 235.15625 C-96.74962748 236.10032752 -98.37510657 237.04967068 -100 238 C-99.38485225 241.47929139 -98.05602284 243.54719357 -95.89453125 246.31640625 C-94.92483398 247.57130859 -94.92483398 247.57130859 -93.93554688 248.8515625 C-93.23494141 249.74617188 -92.53433594 250.64078125 -91.8125 251.5625 C-90.33854225 253.4690466 -88.86591038 255.3766189 -87.39453125 257.28515625 C-86.65283691 258.24566895 -85.91114258 259.20618164 -85.14697266 260.19580078 C-82.03934085 264.25473403 -79.0154258 268.37235931 -76 272.5 C-70.86292707 279.51335068 -65.64536486 286.46123955 -60.375 293.375 C-59.69953125 294.26123047 -59.0240625 295.14746094 -58.328125 296.06054688 C-55.26055847 300.07508486 -52.18203402 304.07495296 -49 308 C-45.28954753 306.42219077 -42.70093616 304.09296752 -39.75 301.375 C-38.85796875 300.55773437 -37.9659375 299.74046875 -37.046875 298.8984375 C-36.37140625 298.27195312 -35.6959375 297.64546875 -35 297 C-39.56826332 289.20303929 -44.87909675 282.18864432 -50.46362305 275.10546875 C-54.58291443 269.86460151 -58.56051793 264.54725606 -62.4375 259.125 C-67.30324861 252.33683107 -72.21126843 245.58274305 -77.1875 238.875 C-77.83581787 237.99086426 -78.48413574 237.10672852 -79.15209961 236.19580078 C-79.75546143 235.3861084 -80.35882324 234.57641602 -80.98046875 233.7421875 C-81.51567139 233.0188623 -82.05087402 232.29553711 -82.60229492 231.55029297 C-83.0635376 231.03869629 -83.52478027 230.52709961 -84 230 C-87.44235117 230 -90.21759941 232.29586025 -93.125 234 Z " fill="#000000" transform="translate(354,17)"/>
<path d="M0 0 C2.0016651 2.56213133 2.04452015 4.77105739 2.09375 7.96484375 C1.27344012 11.10735441 0.20963232 12.06297769 -2.4375 14 C-5.85317432 15.1902401 -9.35007928 15.95277224 -12.875 16.75 C-42.27367811 23.96427174 -69.42786141 36.98357615 -91.4375 58 C-92.35402344 58.82177734 -92.35402344 58.82177734 -93.2890625 59.66015625 C-106.89491482 72.30303728 -116.74698718 91.76017898 -117.78515625 110.26171875 C-118.68666186 135.64420467 -109.71082635 154.79333011 -93.1015625 173.65234375 C-81.21211315 186.15404049 -66.58481867 194.53866028 -51.5 202.5625 C-50.695625 202.995625 -49.89125 203.42875 -49.0625 203.875 C-48.06089844 204.39707031 -48.06089844 204.39707031 -47.0390625 204.9296875 C-45.4375 206 -45.4375 206 -43.4375 209 C-43.16907234 216.47580502 -45.46166168 224.10995435 -47.1953125 231.31640625 C-47.46262177 232.45407944 -47.72993103 233.59175262 -48.00534058 234.76390076 C-48.85169794 238.36488904 -49.7061549 241.96387477 -50.5625 245.5625 C-51.69675012 250.33309673 -52.8232654 255.10542673 -53.9453125 259.87890625 C-54.20982208 260.97981094 -54.47433167 262.08071564 -54.74685669 263.21498108 C-54.98395355 264.22370773 -55.22105042 265.23243439 -55.46533203 266.27172852 C-55.78390671 267.60881615 -55.78390671 267.60881615 -56.10891724 268.97291565 C-56.21734955 269.64185349 -56.32578186 270.31079132 -56.4375 271 C-56.1075 271.33 -55.7775 271.66 -55.4375 272 C-44.14137111 264.31074594 -32.90153305 256.54674378 -21.71484375 248.69921875 C-15.90118734 244.6213777 -10.07726047 240.5583711 -4.25 236.5 C-3.30608398 235.84153076 -2.36216797 235.18306152 -1.38964844 234.50463867 C-0.48375977 233.87404541 0.42212891 233.24345215 1.35546875 232.59375 C2.1446167 232.04396484 2.93376465 231.49417969 3.74682617 230.92773438 C4.67599854 230.29158203 5.6051709 229.65542969 6.5625 229 C7.21139191 228.49099655 7.86028381 227.9819931 8.52883911 227.45756531 C14.41002107 223.07386567 18.60255133 222.19440648 25.84375 222.51953125 C26.80736954 222.53635956 27.77098907 222.55318787 28.7638092 222.57052612 C30.81042485 222.6077506 32.85684335 222.6577136 34.90286255 222.71957397 C40.20387983 222.87547872 45.50567675 222.9263534 50.80859375 222.9765625 C52.35739479 222.99335304 52.35739479 222.99335304 53.93748474 223.01048279 C70.05070906 223.12593547 85.94171808 220.94012567 101.5625 217 C101.58437378 216.14619751 101.58437378 216.14619751 101.60668945 215.27514648 C101.68179165 212.66196172 101.77824189 210.04996901 101.875 207.4375 C101.89755859 206.54224609 101.92011719 205.64699219 101.94335938 204.72460938 C102.22686478 197.68852074 103.27838975 192.7048674 107.9375 187.1875 C112.2555051 183.58916242 115.82717541 182.74764341 121.38745117 182.82397461 C122.53602097 182.83315414 123.68459076 182.84233368 124.8679657 182.85179138 C126.71802971 182.8768148 126.71802971 182.8768148 128.60546875 182.90234375 C130.55986298 182.90536819 132.51425903 182.90833711 134.46865559 182.90814304 C139.27136055 182.90828606 144.07304756 182.92313715 148.87524414 182.99633789 C151.57267267 183.03635873 154.2681908 183.05215276 156.96589661 183.04164124 C159.4981521 183.03233304 162.03083404 183.05698782 164.56230164 183.12083435 C171.3414102 183.04581029 175.09936183 182.20370474 180.23901367 177.62402344 C181.711779 176.1128507 183.15751989 174.57439247 184.5625 173 C185.08109085 172.46288391 185.5996817 171.92576782 186.13398743 171.37237549 C202.00314561 154.6225925 209.17623158 134.2857579 208.83203125 111.43359375 C208.03630151 88.85133253 194.65997179 69.51427617 179.03125 54.20703125 C176.62123861 52.05251158 174.12938918 50.18885209 171.5 48.3125 C168.28443412 45.90366619 167.66231634 45.309956 166.375 41.3125 C166.55202552 38.18504911 166.73083424 36.50648999 168.5625 34 C171.83694544 32.36277728 173.91371676 32.53666245 177.5625 33 C180.88605794 34.96336108 183.67868501 37.4471146 186.5625 40 C187.36945313 40.67546875 188.17640625 41.3509375 189.0078125 42.046875 C207.00905394 57.50875636 221.63335262 80.03678479 224.5625 104 C226.09837944 132.02311043 220.29121596 156.45825649 201.30859375 177.84765625 C200.06229635 179.23393272 198.81440116 180.618782 197.5625 182 C198.68221191 182.01458252 199.80192383 182.02916504 200.95556641 182.04418945 C205.12678274 182.10234886 209.29746919 182.17958023 213.46826172 182.26245117 C215.27025729 182.29561773 217.07235467 182.32367525 218.87451172 182.34643555 C221.47146823 182.38013432 224.06749866 182.43245649 226.6640625 182.48828125 C227.4642984 182.49467117 228.2645343 182.5010611 229.08901978 182.50764465 C234.6304103 182.65190621 238.99993808 183.60786976 243.20703125 187.53515625 C247.32828431 192.92448717 247.71866629 196.0748867 247.73950195 202.74487305 C247.74607315 203.65075668 247.75264435 204.55664032 247.75941467 205.48997498 C247.77917454 208.49722369 247.79081746 211.50442236 247.80078125 214.51171875 C247.80485678 215.53820841 247.8089323 216.56469807 247.81313133 217.62229347 C247.83400549 223.05735702 247.84830028 228.49239524 247.85766602 233.92749023 C247.86872141 239.53866294 247.90310763 245.14943808 247.94283772 250.76047039 C247.96900231 255.07653026 247.97735783 259.3924955 247.98094749 263.7086277 C247.98581538 265.77664684 247.9974351 267.84466171 248.01598549 269.91260338 C248.04036876 272.81143885 248.03941303 275.70924737 248.0324707 278.6081543 C248.05168579 279.8841449 248.05168579 279.8841449 248.07128906 281.18591309 C248.02110352 286.95091761 247.02472059 290.3312961 243.5625 295 C238.24953925 300.10739977 232.54892583 299.5674814 225.59375 299.51757812 C223.79272827 299.52809204 223.79272827 299.52809204 221.95532227 299.53881836 C218.674168 299.55337567 215.39366246 299.55000807 212.11251831 299.53730202 C208.672004 299.52714501 205.23153172 299.53657516 201.79101562 299.54284668 C196.01424426 299.55011528 190.23767773 299.54055626 184.4609375 299.52148438 C177.79087152 299.4997169 171.12129467 299.50676884 164.45124054 299.52879 C158.7151497 299.54696664 152.97920575 299.54949134 147.2430954 299.53903532 C143.82124316 299.53281273 140.39962051 299.5319304 136.9777832 299.54518127 C133.16193574 299.55533945 129.34702751 299.53985368 125.53125 299.51757812 C124.40275635 299.52567505 123.2742627 299.53377197 122.11157227 299.54211426 C115.95501104 299.47553113 112.21190384 299.18119523 107.5625 295 C103.58239902 289.83662576 102.43342868 286.1773842 102.44897461 279.77246094 C102.44905014 278.73168396 102.44912567 277.69090698 102.44920349 276.61859131 C102.45436478 275.50179993 102.45952606 274.38500854 102.46484375 273.234375 C102.46696617 271.51157318 102.46696617 271.51157318 102.46913147 269.75396729 C102.47472857 266.08595169 102.48728056 262.41799715 102.5 258.75 C102.50501537 256.26302171 102.50957822 253.77604247 102.51367188 251.2890625 C102.52469705 245.1926875 102.54143231 239.09634811 102.5625 233 C101.35078125 233.26554688 100.1390625 233.53109375 98.890625 233.8046875 C83.35079334 237.12107618 68.15109477 239.48838134 52.23046875 238.6328125 C25.35739378 237.18370579 25.35739378 237.18370579 2.65625 250.4296875 C1.82738281 251.18991211 0.99851563 251.95013672 0.14453125 252.73339844 C-4.30069655 256.63558214 -9.2262733 259.82541092 -14.125 263.125 C-16.04403079 264.45492846 -17.96073326 265.78822338 -19.875 267.125 C-20.80441406 267.77210938 -21.73382813 268.41921875 -22.69140625 269.0859375 C-26.17862331 271.51657244 -29.66296845 273.95127032 -33.14477539 276.38964844 C-34.78296535 277.53584927 -36.42274938 278.67977557 -38.06420898 279.82128906 C-42.36861238 282.82024093 -46.62857851 285.86628714 -50.84765625 288.984375 C-52.18824097 289.96059814 -52.18824097 289.96059814 -53.5559082 290.95654297 C-55.26239004 292.20058548 -56.95834461 293.45924975 -58.64135742 294.73486328 C-63.84324351 298.49765303 -67.00009614 299.82330634 -73.4375 299 C-75.375 297.875 -75.375 297.875 -76.4375 296 C-77.63570355 291.16582332 -77.14358123 287.28123548 -75.99047852 282.52587891 C-75.82481384 281.80323853 -75.65914917 281.08059814 -75.48846436 280.33605957 C-74.94179282 277.9636056 -74.37924215 275.59522876 -73.81640625 273.2265625 C-73.43284581 271.57626872 -73.0502866 269.92574194 -72.66868591 268.2749939 C-71.66430924 263.94242639 -70.64640054 259.61314919 -69.62561035 255.28442383 C-68.58529069 250.86210106 -67.55784263 246.4367918 -66.52929688 242.01171875 C-64.51126145 233.33818007 -62.47891299 224.66806397 -60.4375 216 C-61.47349838 215.45204773 -62.50949677 214.90409546 -63.57688904 214.33953857 C-64.94640402 213.61283472 -66.31587283 212.88604384 -67.68530273 212.15917969 C-68.36692223 211.79895721 -69.04854172 211.43873474 -69.75081635 211.06759644 C-97.78146605 196.1716455 -119.71845485 172.21546601 -130.75390625 142.44921875 C-137.64733678 119.7032999 -134.48478831 94.49368219 -123.65991211 73.5769043 C-103.1431573 36.12990773 -63.80961732 14.57761355 -24.23486328 2.90136719 C-5.83687723 -2.3946163 -5.83687723 -2.3946163 0 0 Z M117.5625 199 C117.45676672 201.60612081 117.41571925 204.1858777 117.41723633 206.79272461 C117.41387772 207.60895798 117.4105191 208.42519135 117.40705872 209.26615906 C117.39751967 211.97823588 117.39560413 214.69025117 117.39453125 217.40234375 C117.39132074 219.2794243 117.38795683 221.15650459 117.38444519 223.03358459 C117.37844653 226.97381165 117.37660605 230.91401675 117.37719727 234.85424805 C117.37729893 239.91316633 117.36364518 244.9719444 117.34642506 250.03082943 C117.33532839 253.9091914 117.33327734 257.78751923 117.33380699 261.66589546 C117.3326234 263.53148444 117.32818057 265.39707419 117.32047462 267.26264763 C117.31072156 269.8678264 117.31353408 272.47269756 117.31958008 275.07788086 C117.31396057 275.8545813 117.30834106 276.63128174 117.30255127 277.43151855 C117.17682374 281.67638834 117.17682374 281.67638834 119.5625 285 C121.61286398 285.30054413 121.61286398 285.30054413 124.00354004 285.24723816 C124.93737015 285.25143265 125.87120026 285.25562714 126.83332825 285.25994873 C127.86092758 285.25432922 128.88852692 285.24870972 129.94726562 285.24291992 C131.02699142 285.24481827 132.10671722 285.24671661 133.21916199 285.24867249 C136.80243092 285.25238922 140.38549895 285.24166322 143.96875 285.23046875 C146.44974748 285.22927735 148.93074541 285.2288237 151.41174316 285.2290802 C157.28483482 285.22731285 163.15785199 285.2159161 169.03092241 285.20057994 C175.04864281 285.18570654 181.06631673 285.18507199 187.08405304 285.18575573 C192.20884935 285.1854843 197.33362901 285.18000739 202.4584198 285.17275429 C204.92408624 285.16956335 207.38975458 285.16759923 209.85542297 285.16686058 C213.29622636 285.16470152 216.73694836 285.15596663 220.17773438 285.14526367 C221.71913338 285.14594345 221.71913338 285.14594345 223.29167175 285.14663696 C224.22550186 285.14237198 225.15933197 285.13810699 226.12145996 285.13371277 C227.34262638 285.131199 227.34262638 285.131199 228.58846283 285.12863445 C230.63949307 285.12321463 230.63949307 285.12321463 232.5625 284 C232.5625 255.62 232.5625 227.24 232.5625 198 C211.33580693 197.96998209 211.33580693 197.96998209 190.10911083 197.94974613 C182.52073228 197.94419442 174.93236466 197.93713496 167.34399414 197.92456055 C160.69803835 197.913553 154.05209131 197.90772378 147.40612602 197.90512276 C144.86427054 197.90326799 142.32241574 197.8996464 139.78056526 197.89426994 C136.23398538 197.88706333 132.6874551 197.8860089 129.14086914 197.88647461 C128.07848022 197.88287933 127.01609131 197.87928406 125.92150879 197.87557983 C124.48062645 197.87764183 124.48062645 197.87764183 123.01063538 197.87974548 C122.17088197 197.87882369 121.33112856 197.8779019 120.46592808 197.87695217 C118.55207809 197.79041594 118.55207809 197.79041594 117.5625 199 Z " fill="#000000" transform="translate(142.4375,204)"/>
<path d="M0 0 C1.71896484 -0.0309375 1.71896484 -0.0309375 3.47265625 -0.0625 C4.57996094 -0.06765625 5.68726562 -0.0728125 6.828125 -0.078125 C7.84293945 -0.0874707 8.85775391 -0.09681641 9.90332031 -0.10644531 C13.23922998 0.31125864 15.07491504 1.2363821 17.75 3.25 C19.59992489 6.81281831 20.71307707 10.09175889 21.625 14 C22.48570666 17.34331699 22.48570666 17.34331699 25 19.25 C28.4785067 20.51491153 30.2250087 20.35155978 33.75 19.25 C34.471875 18.569375 35.19375 17.88875 35.9375 17.1875 C39.68986031 14.60254068 42.48043028 14.50303966 46.97265625 14.671875 C51.84298834 15.68567127 54.47201591 18.69539278 57.75 22.25 C59.04104997 23.4798144 60.33269098 24.70900871 61.625 25.9375 C65.17177308 29.39354168 67.0339599 32.47833555 67.1875 37.5 C67.12634192 42.16330359 65.42818367 44.60914057 62.8125 48.33203125 C61.44803597 50.44051733 61.44803597 50.44051733 61.6875 54.0625 C62.5169683 57.1905826 62.5169683 57.1905826 64.25 59.0625 C66.66538427 60.20980753 68.57774185 60.64299808 71.1875 61.125 C75.67826426 61.99799865 77.84699943 63.62124928 80.75 67.25 C82.79184918 71.33369837 82.06718347 76.51133506 82.125 81 C82.18107422 82.62808594 82.18107422 82.62808594 82.23828125 84.2890625 C82.33721528 93.28106692 82.33721528 93.28106692 79.375 96.9375 C75.72589933 100.15218392 72.8071305 100.99483057 68.125 102.125 C64.78941627 103.00555618 64.78941627 103.00555618 62.75 104.9375 C61.24713685 108.41287104 61.81153736 110.6212778 62.75 114.25 C63.430625 115.19875 64.11125 116.1475 64.8125 117.125 C67.39420782 121.28904487 67.56561955 124.46908116 66.75 129.25 C63.52960094 136.12994345 55.91276773 144.57112487 48.75 147.25 C44.81594088 147.95251056 41.19404976 148.03863234 37.6328125 146.09375 C36.30990869 145.16720259 34.98826062 144.23885928 33.66796875 143.30859375 C31.55881182 141.94295475 31.55881182 141.94295475 27.9375 142.25 C24.74055676 143.25296259 23.76343364 143.71435014 21.75 146.25 C21.14556049 148.31770987 21.14556049 148.31770987 20.875 150.5625 C19.94149017 155.41200447 18.22300861 157.77699139 14.75 161.25 C10.66677778 163.29161111 5.42527192 162.47906579 0.9375 162.5 C-0.7031543 162.5309375 -0.7031543 162.5309375 -2.37695312 162.5625 C-3.9634668 162.57023437 -3.9634668 162.57023437 -5.58203125 162.578125 C-6.54858643 162.5874707 -7.5151416 162.59681641 -8.51098633 162.60644531 C-11.76732716 162.18267692 -13.61308658 161.17971389 -16.25 159.25 C-18.3411146 155.91970637 -19.36241357 152.86843594 -20.125 149.0625 C-20.90560767 145.2097555 -20.90560767 145.2097555 -23.5 143.1875 C-26.98534574 141.99931395 -28.73111836 142.17279133 -32.25 143.25 C-33.178125 143.930625 -34.10625 144.61125 -35.0625 145.3125 C-39.12943959 147.78456132 -42.59256992 148.30568415 -47.25 147.25 C-51.82817006 144.61464106 -55.40908098 141.37363844 -59.0625 137.625 C-59.55169922 137.13515625 -60.04089844 136.6453125 -60.54492188 136.140625 C-65.28857586 131.33792138 -65.5813641 128.55940816 -65.546875 121.9375 C-65.1542212 118.38294981 -63.66466757 116.81101106 -61.25 114.25 C-60.19406624 110.87101195 -60.04945728 108.96861142 -61 105.5625 C-64.11781517 102.35807886 -67.3025519 102.05612225 -71.578125 101.06640625 C-75.3723202 99.90706883 -76.8600817 98.3568938 -79.25 95.25 C-81.35355595 91.0428881 -80.52374276 85.55994707 -80.5625 80.9375 C-80.59150391 79.79603516 -80.62050781 78.65457031 -80.65039062 77.47851562 C-80.71446251 69.04566967 -80.71446251 69.04566967 -78.37109375 65.03125 C-75.48981677 62.61161408 -72.94530132 61.57576378 -69.2578125 60.8671875 C-64.69020927 59.96776903 -64.69020927 59.96776903 -61.1875 57 C-59.99931395 53.51465426 -60.17279133 51.76888164 -61.25 48.25 C-61.930625 47.3425 -62.61125 46.435 -63.3125 45.5 C-65.989035 41.01032838 -66.41437339 37.35106438 -65.25 32.25 C-63.34827815 29.10152999 -60.91856244 26.75834856 -58.25 24.25 C-56.81231305 22.77101504 -55.37480966 21.29185162 -53.9375 19.8125 C-50.49338718 16.35485432 -48.60324356 15.0750146 -43.6875 14.875 C-38.57678126 14.88238543 -35.50615418 16.3803548 -31.35546875 19.25390625 C-28.58197567 20.56604119 -27.13168461 20.15526605 -24.25 19.25 C-21.72096586 17.51580516 -20.47630183 16.16720818 -19.734375 13.16015625 C-19.59515625 12.38542969 -19.4559375 11.61070313 -19.3125 10.8125 C-18.49413279 6.29660092 -16.84753984 4.20182756 -13.25 1.25 C-10.66941637 -1.33058363 -3.46803264 0.01539637 0 0 Z M-4.25 14.25 C-4.48074219 14.98605469 -4.71148437 15.72210938 -4.94921875 16.48046875 C-6.86622243 22.21632562 -8.39302438 26.36441951 -13.25 30.25 C-13.86875 30.806875 -14.4875 31.36375 -15.125 31.9375 C-20.13371027 35.03111516 -25.46995938 35.74827936 -31.25 35.25 C-33.59097262 34.56241381 -35.85894653 33.78013774 -38.13671875 32.90625 C-40.51786976 32.05228948 -40.51786976 32.05228948 -44.25 32.25 C-47.00041666 34.66666771 -47.00041666 34.66666771 -49.25 37.25 C-48.96125 37.95125 -48.6725 38.6525 -48.375 39.375 C-48.00375 40.32375 -47.6325 41.2725 -47.25 42.25 C-46.87875 43.178125 -46.5075 44.10625 -46.125 45.0625 C-43.84197209 53.37924454 -45.62939701 60.63773874 -49.8125 68 C-54.45382889 72.28430359 -60.16923357 74.72980839 -66.25 76.25 C-66.25 79.55 -66.25 82.85 -66.25 86.25 C-64.72375 86.641875 -63.1975 87.03375 -61.625 87.4375 C-55.99273783 89.15581727 -52.24606515 91.0280556 -49.03515625 96.2109375 C-45.79012557 102.42384321 -43.88466463 108.55070617 -45.921875 115.5625 C-46.45636636 117.09538088 -47.01224889 118.62104687 -47.59375 120.13671875 C-48.44771052 122.51786976 -48.44771052 122.51786976 -48.25 126.25 C-46.96881303 127.79960501 -46.96881303 127.79960501 -45.25 129 C-44.26 129.7425 -43.27 130.485 -42.25 131.25 C-41.63253906 130.96125 -41.01507813 130.6725 -40.37890625 130.375 C-33.66728076 127.43291759 -28.02364968 125.71868193 -20.86328125 128.015625 C-15.33386553 130.31878659 -10.53809155 132.79467488 -7.66796875 138.265625 C-7.26191406 139.33296875 -6.85585937 140.4003125 -6.4375 141.5 C-6.01855469 142.57765625 -5.59960938 143.6553125 -5.16796875 144.765625 C-4.86503906 145.58546875 -4.56210938 146.4053125 -4.25 147.25 C-0.95 147.25 2.35 147.25 5.75 147.25 C6.141875 145.88875 6.53375 144.5275 6.9375 143.125 C8.96631243 137.1140534 11.7813777 133.25380459 17.3125 129.9375 C23.22368542 127.03564534 29.54316567 125.9783383 35.97265625 127.921875 C37.90289759 128.68675568 39.82676578 129.46766744 41.75 130.25 C45.5808053 130.69160248 45.5808053 130.69160248 47.234375 128.9375 C47.65203125 128.380625 48.0696875 127.82375 48.5 127.25 C49.2425 126.26 49.985 125.27 50.75 124.25 C50.46125 123.63253906 50.1725 123.01507813 49.875 122.37890625 C46.61826582 114.9494814 45.35255913 108.89160251 47.9375 101.0625 C50.68692156 94.65991183 54.56869837 90.92914552 60.78515625 88.01171875 C62.75 87.25 62.75 87.25 66.75 86.25 C66.75 82.95 66.75 79.65 66.75 76.25 C65.95335937 75.981875 65.15671875 75.71375 64.3359375 75.4375 C55.50974301 72.17331128 51.33523425 68.77300045 47.375 60.3125 C45.61524064 51.68967912 47.38012614 45.29858265 50.75 37.25 C48.77 35.27 46.79 33.29 44.75 31.25 C44.069375 31.53875 43.38875 31.8275 42.6875 32.125 C34.24910524 35.35672565 27.45397685 36.37512836 18.890625 33.21484375 C12.68153633 30.41622167 10.00110504 26.49425151 7.51171875 20.43359375 C6.80580213 18.40996609 6.26980693 16.32922773 5.75 14.25 C2.45 14.25 -0.85 14.25 -4.25 14.25 Z " fill="#000000" transform="translate(89.25,8.75)"/>
<path d="M0 0 C8.15586133 7.28105772 14.18480756 17.45893025 15.23730469 28.48632812 C16.30572071 50.40055452 11.64793822 68.48931868 2 88 C1.68691895 88.65307129 1.37383789 89.30614258 1.05126953 89.97900391 C-5.99037204 104.60280479 -15.83797106 117.26892645 -27 129 C-27.53367187 129.6084375 -28.06734375 130.216875 -28.6171875 130.84375 C-36.25266649 139.20099069 -47.2428742 145.6157357 -58 149 C-58.58394531 149.18949219 -59.16789062 149.37898437 -59.76953125 149.57421875 C-72.81178143 152.06389523 -85.25010383 149.69577281 -96.27734375 142.359375 C-100.47612576 139.04605042 -103.49510513 135.36809615 -104.30859375 129.94140625 C-104.73621446 122.04986035 -101.90921059 116.70268453 -98 110 C-97.51055908 109.14075928 -97.51055908 109.14075928 -97.01123047 108.26416016 C-88.46177728 93.30775744 -88.46177728 93.30775744 -80 91 C-73.35774273 90.00960379 -69.05192948 91.57163076 -63.359375 95.00390625 C-60.36422484 96.26841501 -59.03142479 96.13192624 -56 95 C-44.75047255 84.71079806 -33.31499354 64.10533285 -31 49 C-31.74765625 48.56429687 -32.4953125 48.12859375 -33.265625 47.6796875 C-40.08357247 43.55679256 -44.42722751 40.71831747 -47 33 C-48.02719017 25.00259081 -46.06212525 19.7822984 -42 13 C-41.63519531 12.36126953 -41.27039063 11.72253906 -40.89453125 11.06445312 C-39.6597044 8.90450519 -38.39682705 6.76334658 -37.125 4.625 C-36.72684082 3.9345459 -36.32868164 3.2440918 -35.91845703 2.53271484 C-32.52967162 -2.99080245 -29.02843768 -5.61882137 -22.8125 -7.75 C-13.84710303 -8.98660648 -7.05663365 -5.12423125 0 0 Z M-19 7 C-22.93392572 10.47270684 -25.2717281 14.48307218 -27.8125 19 C-28.23208984 19.7115625 -28.65167969 20.423125 -29.08398438 21.15625 C-29.47521484 21.8471875 -29.86644531 22.538125 -30.26953125 23.25 C-30.80477417 24.18585938 -30.80477417 24.18585938 -31.35083008 25.140625 C-32.17881872 27.51217878 -31.93411919 28.68982246 -31 31 C-28.57015794 32.8376413 -28.57015794 32.8376413 -25.625 34.4375 C-20.79882853 37.18166874 -18.2403699 39.617173 -16.3125 44.875 C-15.43153947 50.86553164 -16.24031976 55.80046397 -18.4375 61.375 C-18.70336914 62.06126465 -18.96923828 62.7475293 -19.24316406 63.45458984 C-24.70545961 77.10414264 -32.05855917 89.36848467 -41 101 C-41.57878906 101.76441406 -42.15757812 102.52882813 -42.75390625 103.31640625 C-46.40093694 107.87757518 -49.6093378 110.52327182 -55.47265625 111.34765625 C-61.98069207 111.70463712 -66.26071749 110.36869069 -71.80859375 106.99609375 C-73.90716078 105.86836404 -73.90716078 105.86836404 -76.03125 105.95703125 C-79.09248549 107.57875719 -80.40449735 110.33012636 -82.0625 113.25 C-82.40087891 113.82363281 -82.73925781 114.39726562 -83.08789062 114.98828125 C-84.06825887 116.65320063 -85.03436302 118.32649361 -86 120 C-86.59683594 120.86109375 -87.19367188 121.7221875 -87.80859375 122.609375 C-89.19865658 124.94815439 -89.19865658 124.94815439 -88.984375 127.63671875 C-87.66370248 130.80738095 -86.35164729 131.40062298 -83.25 132.8125 C-74.6129307 136.33213367 -66.52301917 136.28319569 -57.8125 133 C-31.98318063 120.84701749 -14.82400434 91.62503103 -5 66 C-1.74438636 56.58831694 0.20227046 48.1853559 0.3125 38.25 C0.34150391 37.3940625 0.37050781 36.538125 0.40039062 35.65625 C0.49171395 26.38341999 -2.82236784 19.49930849 -9.05078125 12.73046875 C-12.09580904 10.02716752 -15.25865544 8.57530297 -19 7 Z " fill="#000000" transform="translate(488,235)"/>
<path d="M0 0 C8.99667967 8.75992494 14.35985422 20.25849325 14.6875 32.8125 C14.56899843 43.5171421 11.10191442 53.02194446 4.375 61.3125 C3.87355469 61.93769531 3.37210937 62.56289062 2.85546875 63.20703125 C-4.22457926 71.11394618 -14.91264779 75.71422162 -25.39453125 76.52734375 C-38.12161767 76.93578683 -48.87226442 73.31493163 -58.4375 64.8125 C-59.5203125 63.575 -59.5203125 63.575 -60.625 62.3125 C-61.45 61.44625 -62.275 60.58 -63.125 59.6875 C-71.08978627 49.98356736 -72.49198521 38.41259789 -71.625 26.3125 C-69.50390339 14.49110167 -63.84717464 5.30946597 -54.4375 -2.125 C-36.40535972 -14.22093983 -17.29424402 -11.1177283 0 0 Z M-51.625 16.3125 C-56.11819253 23.37694143 -57.39837299 30.00146355 -56.625 38.3125 C-54.69091025 45.94939152 -50.98518576 52.39307127 -44.37890625 56.81640625 C-36.99275219 61.07345071 -30.23350831 62.74181514 -21.8046875 60.59375 C-12.55159333 57.46736396 -7.08698849 53.08493776 -2.625 44.3125 C0.55530805 35.98312176 0.22814116 28.75684163 -3.37109375 20.66796875 C-7.36851317 13.1587977 -13.41244864 8.26715043 -21.57421875 5.69921875 C-33.65422084 3.4212755 -43.50617249 7.20177953 -51.625 16.3125 Z " fill="#000000" transform="translate(118.625,56.6875)"/>
<path d="M0 0 C1.07895098 -0.00935994 1.07895098 -0.00935994 2.17969894 -0.01890898 C4.59051012 -0.03486688 7.0003141 -0.0222246 9.41113281 -0.00964355 C11.13920685 -0.01506346 12.86727627 -0.02218538 14.59533691 -0.03088379 C19.2895488 -0.0491358 23.98340946 -0.0420419 28.67762756 -0.02936745 C33.5871781 -0.01924949 38.4966983 -0.02862977 43.40625 -0.03491211 C51.65142219 -0.04219203 59.89645112 -0.03259177 68.14160156 -0.0135498 C77.67793127 0.00821959 87.21391891 0.00116847 96.75024033 -0.02085543 C104.93378505 -0.03899961 113.11722673 -0.04157256 121.30078506 -0.03110075 C126.19028583 -0.02486042 131.07962574 -0.02404501 135.96911621 -0.0372467 C140.56568944 -0.04879031 145.1618211 -0.04080686 149.75834656 -0.01766968 C151.44662238 -0.01237459 153.13493528 -0.01391002 154.82319641 -0.02272034 C157.12547337 -0.03362844 159.42632957 -0.01997156 161.72851562 0 C163.0175177 0.0015081 164.30651978 0.0030162 165.63458252 0.00457001 C169.42236654 0.59491921 170.61177359 1.45791721 172.86425781 4.50793457 C173.42675781 7.44543457 173.42675781 7.44543457 172.86425781 10.50793457 C170.24556493 13.83603349 168.7578775 15.33926151 164.54556274 16.13434696 C163.27352997 16.13493327 162.00149719 16.13551958 160.69091797 16.13612366 C159.97963556 16.14321804 159.26835316 16.15031243 158.53551674 16.1576218 C156.15756444 16.17519212 153.78124888 16.15710397 151.40332031 16.13903809 C149.69642391 16.14417732 147.98953282 16.15145863 146.28265381 16.16072083 C141.65033079 16.17924263 137.01858299 16.16629144 132.38628387 16.14663053 C127.53860297 16.13024912 122.69095864 16.13905621 117.84326172 16.14414978 C109.70238045 16.14867131 101.56172891 16.13279724 93.42089844 16.1048584 C84.0089564 16.07280623 74.59742869 16.07282204 65.18545723 16.09007317 C56.13145884 16.10593691 47.07761235 16.09920567 38.02362061 16.08213615 C34.17043006 16.07526353 30.3173612 16.07630028 26.46417236 16.08368111 C21.92665776 16.09134223 17.38961468 16.07922359 12.85218048 16.0518322 C11.18690643 16.04494545 9.52158836 16.04485353 7.85631561 16.05204773 C5.58288343 16.06073754 3.31090804 16.04479668 1.03759766 16.02259827 C-0.87045151 16.01838789 -0.87045151 16.01838789 -2.81704712 16.01409245 C-6.73844606 15.4160119 -8.4145863 14.35917591 -11.13574219 11.50793457 C-11.69824219 8.00793457 -11.69824219 8.00793457 -11.13574219 4.50793457 C-7.94199781 0.11273354 -5.26150524 0.00615584 0 0 Z " fill="#000000" transform="translate(107.1357421875,338.4920654296875)"/>
<path d="M0 0 C1.09355804 -0.0112793 2.18711609 -0.02255859 3.31381226 -0.03417969 C5.10620834 -0.0220343 5.10620834 -0.0220343 6.93481445 -0.00964355 C8.19693756 -0.01665283 9.45906067 -0.02366211 10.75942993 -0.03088379 C14.21818541 -0.04911266 17.67646342 -0.04205186 21.1352272 -0.02936745 C24.7555291 -0.01923732 28.37579024 -0.02863315 31.99609375 -0.03491211 C38.07567685 -0.04218852 44.15506556 -0.03260114 50.23461914 -0.0135498 C57.26253812 0.00821913 64.28999293 0.00116774 71.31790066 -0.02085543 C77.35285381 -0.03900977 83.38766726 -0.04156765 89.42263889 -0.03110075 C93.02665884 -0.02486592 96.63046064 -0.02402964 100.23446655 -0.0372467 C104.25204947 -0.05095142 108.26883274 -0.03195523 112.28637695 -0.00964355 C114.07877304 -0.02178894 114.07877304 -0.02178894 115.90737915 -0.03417969 C117.54771622 -0.01726074 117.54771622 -0.01726074 119.22119141 0 C120.17097366 0.0015081 121.12075592 0.0030162 122.09931946 0.00457001 C125.38631408 0.66342091 126.57909866 1.8858499 128.6105957 4.50793457 C129.1105957 8.00793457 129.1105957 8.00793457 128.6105957 11.50793457 C126.57909866 14.13001924 125.38631408 15.35244823 122.09931946 16.01129913 C121.1495372 16.01280724 120.19975494 16.01431534 119.22119141 16.01586914 C118.12763336 16.02714844 117.03407532 16.03842773 115.90737915 16.05004883 C114.71244843 16.0419519 113.5175177 16.03385498 112.28637695 16.0255127 C111.02425385 16.03252197 109.76213074 16.03953125 108.46176147 16.04675293 C105.00300599 16.0649818 101.54472799 16.057921 98.0859642 16.04523659 C94.4656623 16.03510646 90.84540117 16.04450229 87.22509766 16.05078125 C81.14551456 16.05805766 75.06612585 16.04847028 68.98657227 16.02941895 C61.95865329 16.00765001 54.93119848 16.0147014 47.90329075 16.03672457 C41.8683376 16.05487891 35.83352415 16.05743679 29.79855251 16.04696989 C26.19453257 16.04073506 22.59073077 16.03989878 18.98672485 16.05311584 C14.96914193 16.06682056 10.95235867 16.04782437 6.93481445 16.0255127 C5.73988373 16.03360962 4.544953 16.04170654 3.31381226 16.05004883 C2.22025421 16.03876953 1.12669617 16.02749023 0 16.01586914 C-1.42467339 16.01360699 -1.42467339 16.01360699 -2.87812805 16.01129913 C-6.16512268 15.35244823 -7.35790726 14.13001924 -9.3894043 11.50793457 C-9.8894043 8.00793457 -9.8894043 8.00793457 -9.3894043 4.50793457 C-6.52148305 0.80626423 -4.62586035 0.00734513 0 0 Z " fill="#000000" transform="translate(105.389404296875,286.4920654296875)"/>
<path d="M0 0 C4.14513146 0.26691431 6.26020533 1.13769494 9.84155273 3.17529297 C10.95675293 3.80153564 12.07195312 4.42777832 13.22094727 5.07299805 C14.39825854 5.75485972 15.57517251 6.43740778 16.75170898 7.12060547 C17.95939126 7.80855647 19.16756483 8.49564571 20.3762207 9.18188477 C27.12699055 13.03276967 33.82878419 16.97058273 40.43920898 21.05810547 C41.08881592 21.4594873 41.73842285 21.86086914 42.40771484 22.27441406 C46.68627254 24.98973259 46.68627254 24.98973259 47.81420898 27.24560547 C48.25170898 30.55810547 48.25170898 30.55810547 47.81420898 34.24560547 C44.0223817 37.83906613 40.04542081 40.44709828 35.48999023 43.02294922 C34.90307907 43.35678116 34.31616791 43.6906131 33.71147156 44.03456116 C31.85301293 45.08971677 29.98995791 46.1364372 28.12670898 47.18310547 C26.89789234 47.87984045 25.66937447 48.57710266 24.44116211 49.27490234 C22.04334705 50.6351277 19.64127895 51.98727457 17.23461914 53.33178711 C15.02023631 54.57079832 12.81117537 55.81938959 10.60864258 57.0793457 C9.63878418 57.6266333 8.66892578 58.1739209 7.66967773 58.73779297 C6.82429443 59.21974121 5.97891113 59.70168945 5.10791016 60.19824219 C2.77113836 61.26527263 1.3574538 61.6183204 -1.18579102 61.43310547 C-4.18579102 60.24560547 -4.18579102 60.24560547 -5.84838867 58.36083984 C-7.85484321 53.68717063 -7.61390387 49.24922467 -7.58422852 44.21435547 C-7.58709869 43.14568237 -7.58996887 42.07700928 -7.59292603 40.97595215 C-7.59496449 38.7199653 -7.58944988 36.4639607 -7.5769043 34.20800781 C-7.56084822 30.75789816 -7.57676106 27.30896 -7.59594727 23.85888672 C-7.5939648 21.66487372 -7.59012105 19.47086145 -7.58422852 17.27685547 C-7.59030121 16.24653198 -7.5963739 15.2162085 -7.60263062 14.15466309 C-7.54247502 8.01917637 -7.45236686 0.574533 0 0 Z M7.81420898 20.24560547 C7.81420898 26.84560547 7.81420898 33.44560547 7.81420898 40.24560547 C11.9179968 38.60409034 15.351225 36.86100256 19.12670898 34.62060547 C20.1953418 33.98896484 21.26397461 33.35732422 22.36499023 32.70654297 C23.17323242 32.22443359 23.98147461 31.74232422 24.81420898 31.24560547 C21.6349712 27.68863646 18.28128626 25.68848565 14.06420898 23.49560547 C12.00170898 22.42310547 9.93920898 21.35060547 7.81420898 20.24560547 Z " fill="#000000" transform="translate(297.185791015625,414.75439453125)"/>
<path d="M0 0 C5.36993796 0.24832083 5.36993796 0.24832083 7.90234375 1.71875 C9.50257888 4.54269435 9.85022308 6.29563263 9.96484375 9.59375 C8.64500247 13.0020934 6.8201287 16.07671608 4.96484375 19.21875 C4.45953125 20.10159668 3.95421875 20.98444336 3.43359375 21.89404297 C2.42246101 23.65610943 1.40435217 25.4141933 0.37890625 27.16796875 C-0.84464599 29.26693544 -2.04166572 31.3769216 -3.22265625 33.5 C-7.62712516 41.32172927 -7.62712516 41.32172927 -11.03515625 43.59375 C-15.08996026 44.21078539 -16.57885602 43.91413101 -19.97265625 41.53125 C-22.03515625 38.59375 -22.03515625 38.59375 -21.86645508 35.29736328 C-21.00385831 31.454311 -19.78093474 28.78676973 -17.796875 25.3984375 C-17.14138672 24.27050781 -16.48589844 23.14257812 -15.81054688 21.98046875 C-15.46741455 21.40345215 -15.12428223 20.82643555 -14.77075195 20.23193359 C-13.72497784 18.47265554 -12.6961751 16.70431625 -11.66992188 14.93359375 C-3.52225566 1.02760626 -3.52225566 1.02760626 0 0 Z " fill="#000000" transform="translate(430.03515625,8.40625)"/>
<path d="M0 0 C1.2757489 -0.00574036 1.2757489 -0.00574036 2.57727051 -0.01159668 C4.37265204 -0.01431458 6.16807324 -0.00696182 7.96337891 0.00976562 C10.70955793 0.03117833 13.45312097 0.00996129 16.19921875 -0.015625 C17.94531827 -0.0129817 19.69141616 -0.00785667 21.4375 0 C22.25738403 -0.00809692 23.07726807 -0.01619385 23.92199707 -0.02453613 C27.68553394 0.03728423 29.618811 0.09886573 32.73632812 2.34570312 C34.91624298 5.5595697 34.76016158 7.74136896 34.21875 11.53125 C32.58162465 13.94487749 31.29993122 15.31329418 28.37670898 15.90258789 C26.05427187 16.06214057 23.76534587 16.08548909 21.4375 16.0625 C20.1617511 16.06824036 20.1617511 16.06824036 18.86022949 16.07409668 C17.06484796 16.07681458 15.26942676 16.06946182 13.47412109 16.05273438 C10.72794207 16.03132167 7.98437903 16.05253871 5.23828125 16.078125 C3.49218173 16.0754817 1.74608384 16.07035667 0 16.0625 C-0.81988403 16.07059692 -1.63976807 16.07869385 -2.48449707 16.08703613 C-6.24803394 16.02521577 -8.181311 15.96363427 -11.29882812 13.71679688 C-13.47874298 10.5029303 -13.32266158 8.32113104 -12.78125 4.53125 C-9.40975032 -0.43937997 -5.49839197 -0.05430044 0 0 Z " fill="#000000" transform="translate(468.78125,118.46875)"/>
<path d="M0 0 C2 1.625 2 1.625 3 4 C3 7.5 3 7.5 2 11 C-3.05573447 15.5724862 -9.08182741 18.75970364 -14.9375 22.1875 C-16.00935547 22.82880859 -17.08121094 23.47011719 -18.18554688 24.13085938 C-19.22646484 24.74123047 -20.26738281 25.35160156 -21.33984375 25.98046875 C-22.28206787 26.53629639 -23.22429199 27.09212402 -24.19506836 27.66479492 C-27.21113082 29.10050261 -29.6753725 29.73452451 -33 30 C-35.32731556 28.86220128 -37.16840714 27.83159286 -39 26 C-39.375 22.75 -39.375 22.75 -39 19 C-35.78779318 15.25260728 -32.41656876 12.84831244 -28.11328125 10.484375 C-27.01048828 9.87335937 -25.90769531 9.26234375 -24.77148438 8.6328125 C-23.63001953 8.01148438 -22.48855469 7.39015625 -21.3125 6.75 C-20.15943359 6.11320312 -19.00636719 5.47640625 -17.81835938 4.8203125 C-6.41950789 -1.46409829 -6.41950789 -1.46409829 0 0 Z " fill="#000000" transform="translate(489,53)"/>
</svg>
