<?xml version="1.0" encoding="UTF-8"?>
<svg version="1.1" xmlns="http://www.w3.org/2000/svg" width="512" height="512">
<path d="M0 0 C5.67419102 5.09715464 8.51669587 10.97430709 9.47265625 18.5234375 C9.84780398 28.03524769 6.99798873 34.6661395 1.046875 41.92578125 C-1.95048884 44.38961433 -5.40402339 45.89774878 -8.90625 47.53125 C-8.92083252 48.29268311 -8.93541504 49.05411621 -8.95043945 49.83862305 C-9.02505541 53.29916888 -9.12167259 56.75876445 -9.21875 60.21875 C-9.25258789 62.01602539 -9.25258789 62.01602539 -9.28710938 63.84960938 C-9.32255859 65.00654297 -9.35800781 66.16347656 -9.39453125 67.35546875 C-9.42071533 68.41854248 -9.44689941 69.48161621 -9.47387695 70.5769043 C-9.96385819 73.92487884 -10.86478286 75.84732734 -12.90625 78.53125 C-16.26077129 79.64942376 -18.77043264 79.6515087 -22.30541992 79.64477539 C-23.27168053 79.64499443 -23.27168053 79.64499443 -24.25746155 79.6452179 C-26.38391502 79.64452195 -28.5102806 79.63674448 -30.63671875 79.62890625 C-32.11216687 79.62704094 -33.58761561 79.62561757 -35.06306458 79.62461853 C-38.94450595 79.62080226 -42.82590985 79.61097956 -46.70733643 79.59991455 C-51.36544775 79.58788178 -56.02357161 79.58329395 -60.68169403 79.57746124 C-67.75657208 79.56776734 -74.83136791 79.54860458 -81.90625 79.53125 C-81.90625 97.02125 -81.90625 114.51125 -81.90625 132.53125 C-75.96625 132.53125 -70.02625 132.53125 -63.90625 132.53125 C-63.95265625 131.06171875 -63.9990625 129.5921875 -64.046875 128.078125 C-64.08439483 126.14585365 -64.12079476 124.21356033 -64.15625 122.28125 C-64.18976563 121.31316406 -64.22328125 120.34507812 -64.2578125 119.34765625 C-64.27714844 117.94580078 -64.27714844 117.94580078 -64.296875 116.515625 C-64.3282959 115.22736816 -64.3282959 115.22736816 -64.36035156 113.91308594 C-63.74079974 110.66343668 -62.44306613 109.60770111 -59.90625 107.53125 C-57.46188736 107.03905869 -57.46188736 107.03905869 -54.67974854 107.05023193 C-53.62248062 107.04473328 -52.56521271 107.03923462 -51.47590637 107.03356934 C-50.32144516 107.04795044 -49.16698395 107.06233154 -47.97753906 107.07714844 C-46.75775864 107.07656433 -45.53797821 107.07598022 -44.28123474 107.07537842 C-40.94028073 107.07768706 -37.60031651 107.09774 -34.2595377 107.12567425 C-30.76686586 107.15068694 -27.27418069 107.15302978 -23.78143311 107.15777588 C-17.16927815 107.17020612 -10.55738788 107.20302812 -3.94534945 107.24317384 C3.5829786 107.28789026 11.11131933 107.30987822 18.63974714 107.32995558 C34.12459411 107.37176099 49.60907653 107.4451136 65.09375 107.53125 C64.76375 94.00125 64.43375 80.47125 64.09375 66.53125 C61.45375 65.21125 58.81375 63.89125 56.09375 62.53125 C50.18333239 58.04351699 47.35580141 53.12052784 45.40625 46.03125 C44.38723416 37.87912332 45.27057081 30.68263374 49.9453125 23.80859375 C55.67327503 16.93706273 61.12845887 13.2739485 70.04296875 12.1640625 C77.92828034 11.82078389 84.76575788 13.24995079 91.12890625 18.07421875 C97.61340661 24.09062354 100.65913225 30.98987373 101.34375 39.71875 C100.77838512 48.34056435 98.26529842 54.07580643 92.51953125 60.5234375 C90.09375 62.53125 90.09375 62.53125 82.09375 66.53125 C81.76375 80.06125 81.43375 93.59125 81.09375 107.53125 C84.85942383 107.51030273 88.62509766 107.48935547 92.50488281 107.46777344 C104.93002317 107.40157081 117.35516073 107.35713792 129.78042984 107.32400131 C137.31578812 107.30337155 144.85097939 107.27524329 152.38623047 107.22949219 C158.95358031 107.18963679 165.52080921 107.16382019 172.08827662 107.15489602 C175.56611652 107.14967898 179.04361038 107.13740914 182.52133942 107.10832977 C186.40263886 107.07613883 190.28359904 107.07528976 194.16503906 107.07714844 C195.31950027 107.06276733 196.47396149 107.04838623 197.66340637 107.03356934 C198.72067429 107.03906799 199.7779422 107.04456665 200.86724854 107.05023193 C202.24440725 107.04470118 202.24440725 107.04470118 203.64938736 107.03905869 C206.86815171 107.68718177 208.06814174 109.00235575 210.09375 111.53125 C210.54785156 114.00488281 210.54785156 114.00488281 210.484375 116.734375 C210.46503906 118.20390625 210.46503906 118.20390625 210.4453125 119.703125 C210.39503906 121.22679687 210.39503906 121.22679687 210.34375 122.78125 C210.32570313 123.8125 210.30765625 124.84375 210.2890625 125.90625 C210.24198723 128.4483145 210.17024546 130.98990067 210.09375 133.53125 C216.03375 133.53125 221.97375 133.53125 228.09375 133.53125 C228.09375 116.04125 228.09375 98.55125 228.09375 80.53125 C223.37578125 80.55445312 218.6578125 80.57765625 213.796875 80.6015625 C210.80728616 80.61178201 207.81771887 80.62140997 204.828125 80.62890625 C200.08328781 80.6408601 195.33852785 80.65499913 190.59375 80.68212891 C186.76824853 80.70386545 182.94282988 80.71582034 179.11727142 80.72100449 C177.65803473 80.72469879 176.19880256 80.73191283 174.73960114 80.74271011 C172.69511635 80.757236 170.65097343 80.75922751 168.60644531 80.75830078 C167.44284485 80.762742 166.27924438 80.76718323 165.0803833 80.77175903 C162.1587357 80.5364832 160.5232124 80.12249838 158.09375 78.53125 C155.73928135 75.23778024 155.86107476 72.19482521 155.8984375 68.234375 C155.90488281 67.02910156 155.91132813 65.82382813 155.91796875 64.58203125 C155.93472656 63.32777344 155.95148438 62.07351562 155.96875 60.78125 C155.97777344 59.51152344 155.98679687 58.24179688 155.99609375 56.93359375 C156.01965995 53.79928907 156.05256168 50.66536459 156.09375 47.53125 C155.14902832 47.23178467 154.20430664 46.93231934 153.23095703 46.6237793 C147.35521877 44.57755916 142.81358384 40.17103327 139.65625 34.84375 C136.00515117 27.10342048 135.76139182 18.2971363 138.65625 10.21875 C141.8131134 3.31795737 146.9405827 -1.64348924 153.86328125 -4.75 C161.05481394 -7.06741158 169.03132427 -7.30667887 176.09375 -4.46875 C183.1373251 -0.35469077 188.95844352 5.34622152 191.58984375 13.1953125 C193.20385784 20.67733132 193.0453059 28.82896438 189.09375 35.53125 C185.21008603 40.99045723 181.15302891 44.67982463 175.09375 47.53125 C174.43375 47.53125 173.77375 47.53125 173.09375 47.53125 C173.09375 53.14125 173.09375 58.75125 173.09375 64.53125 C176.05347778 64.4998291 176.05347778 64.4998291 179.07299805 64.46777344 C185.5988412 64.4032227 192.12460868 64.35728845 198.6506834 64.32400131 C202.60674083 64.30314348 206.56245225 64.27485964 210.51831055 64.22949219 C214.33735864 64.18596879 218.15607433 64.16209931 221.97535133 64.15174103 C223.43101038 64.1443612 224.88665162 64.1299498 226.34216881 64.10832977 C228.38435267 64.07920724 230.42517054 64.07529736 232.4675293 64.07714844 C233.62890915 64.06826599 234.790289 64.05938354 235.98686218 64.05023193 C239.86593078 64.65080144 241.48431078 65.60527851 244.09375 68.53125 C244.69502258 71.5178833 244.69502258 71.5178833 244.66137695 75.04394531 C244.66210709 75.68826508 244.66283722 76.33258484 244.66358948 76.99642944 C244.66011616 79.11827899 244.62127539 81.23791091 244.58203125 83.359375 C244.57270201 84.83338217 244.56558642 86.30740487 244.56059265 87.78143311 C244.54153097 91.65506029 244.49243918 95.52774526 244.43707275 99.40100098 C244.38586125 103.35574599 244.36307467 107.31064375 244.33789062 111.265625 C244.28431769 119.02131197 244.19639078 126.77602876 244.09375 134.53125 C249.70375 134.53125 255.31375 134.53125 261.09375 134.53125 C261.75375 133.21125 262.41375 131.89125 263.09375 130.53125 C264.18634331 129.53918586 265.29101282 128.56028889 266.40625 127.59375 C268.13456611 125.82675599 268.13456611 125.82675599 269.09375 123.53125 C268.69666142 120.19392129 267.79384525 117.17145978 266.859375 113.9453125 C265.30921267 107.03285394 266.78874668 100.27103156 270.28125 94.15625 C275.13611908 87.34810997 280.81751047 83.12841903 289.09375 81.53125 C298.13801928 80.45864998 305.23297489 82.50676771 312.90625 87.28125 C319.03292782 93.58297576 321.60047407 100.20386993 322.40625 108.90625 C321.68824277 117.2351339 319.19952894 124.62243167 313.09375 130.53125 C306.88740079 134.79612587 301.71334751 136.6721096 294.15625 136.65625 C292.93035156 136.65882813 291.70445312 136.66140625 290.44140625 136.6640625 C287.09375 136.53125 287.09375 136.53125 284.8984375 135.80078125 C282.93727343 135.29137155 282.93727343 135.29137155 281.12890625 136.97265625 C280.47792969 137.67261719 279.82695312 138.37257812 279.15625 139.09375 C278.46402344 139.82851562 277.77179688 140.56328125 277.05859375 141.3203125 C275.40846338 143.17711924 273.79586359 145.05000647 272.21875 146.96875 C270.09375 149.53125 270.09375 149.53125 268.09375 150.53125 C266.2451792 150.62226612 264.39328621 150.64878146 262.54248047 150.64477539 C261.36516357 150.64465454 260.18784668 150.64453369 258.97485352 150.64440918 C257.73276123 150.63929321 256.49066895 150.63417725 255.2109375 150.62890625 C254.07277588 150.62789917 252.93461426 150.62689209 251.76196289 150.62585449 C247.49754839 150.62061008 243.23314822 150.6066489 238.96875 150.59375 C229.44 150.573125 219.91125 150.5525 210.09375 150.53125 C210.09375 177.59125 210.09375 204.65125 210.09375 232.53125 C219.66375 232.53125 229.23375 232.53125 239.09375 232.53125 C239.42375 230.55125 239.75375 228.57125 240.09375 226.53125 C244.41927488 219.75124123 249.68773104 215.34598574 257.40234375 213.08203125 C264.98354302 211.53058118 272.0132344 212.3045416 279.09375 215.53125 C285.03390309 219.48794405 289.46321322 224.43998208 291.66796875 231.32421875 C293.27592229 239.6590238 293.02540425 247.93359242 288.7109375 255.34375 C284.6537427 260.83174297 278.97333717 266.18889153 272.09375 267.53125 C263.68205074 268.28397477 256.14317739 268.59418039 249.09375 263.53125 C248.206875 262.95375 247.32 262.37625 246.40625 261.78125 C243.31733047 258.77581478 240.96904902 255.41750797 239.09375 251.53125 C239.09375 250.54125 239.09375 249.55125 239.09375 248.53125 C229.52375 248.53125 219.95375 248.53125 210.09375 248.53125 C210.09375 275.26125 210.09375 301.99125 210.09375 329.53125 C228.49291634 329.254734 228.49291634 329.254734 246.890625 328.90063477 C249.20831033 328.8801781 251.52602093 328.86234348 253.84375 328.84765625 C255.03355469 328.81184448 256.22335937 328.77603271 257.44921875 328.73913574 C263.38313241 328.73479446 267.19511322 328.96039247 271.79882812 332.91967773 C274.28131783 335.46330481 276.4545018 338.19347177 278.59375 341.03125 C281.46052974 344.00021199 282.64278462 344.51008896 286.83984375 344.70703125 C289.65317646 344.5159081 292.44525585 344.1816156 295.24609375 343.859375 C302.8705954 343.20916369 308.47091749 346.07110924 314.3046875 350.8125 C320.30482551 356.57682473 322.63325472 363.2984929 323.09375 371.53125 C322.75857212 379.37008746 320.43503269 385.72795763 315.09375 391.53125 C306.84026869 398.22135857 299.41357939 399.32568052 289.06298828 398.75341797 C282.73184869 398.0391436 277.86231465 394.69893027 273.65625 390.09375 C268.41541495 383.26882074 266.06587859 376.16234667 267.09375 367.53125 C267.74515348 365.90007161 268.41260701 364.27523538 269.09375 362.65625 C270.11453573 359.41286677 270.23831522 357.96137615 269.14453125 354.70703125 C267.05881681 351.42144514 265.34421519 349.7075206 262.09375 347.53125 C258.98402341 346.87200865 255.9333354 346.79487185 252.76171875 346.75390625 C251.92717163 346.72623169 251.09262451 346.69855713 250.23278809 346.67004395 C248.18695606 346.60489938 246.14033261 346.56548626 244.09375 346.53125 C244.10374275 347.73941376 244.10374275 347.73941376 244.11393738 348.97198486 C244.17406016 356.56425114 244.2197302 364.1564019 244.24918652 371.74884415 C244.26483945 375.65216481 244.28607061 379.55528869 244.32006836 383.45849609 C244.35267557 387.22565392 244.37060582 390.99262252 244.37838173 394.75991058 C244.38392284 396.19683562 244.39474336 397.63375035 244.41094017 399.07059479 C244.43272989 401.08374422 244.43397554 403.09708424 244.43432617 405.11035156 C244.44431892 406.82910492 244.44431892 406.82910492 244.45451355 408.58258057 C244.05080125 411.88228784 243.47808448 413.2400429 241.09375 415.53125 C237.78540248 416.90283551 234.30518095 416.65174494 230.76464844 416.64477539 C229.48362244 416.64469986 228.20259644 416.64462433 226.88275146 416.64454651 C225.48954225 416.63944026 224.09633343 416.63422427 222.703125 416.62890625 C221.27394663 416.62704032 219.84476762 416.62561724 218.41558838 416.62461853 C214.66074852 416.62080715 210.90594757 416.61098867 207.15112305 416.59991455 C203.31689988 416.58967075 199.48267041 416.58511455 195.6484375 416.58007812 C188.13018857 416.56936513 180.6119797 416.55177953 173.09375 416.53125 C173.09375 421.81125 173.09375 427.09125 173.09375 432.53125 C175.07375 433.19125 177.05375 433.85125 179.09375 434.53125 C186.1998984 438.09147324 189.63970138 444.16910413 192.09375 451.53125 C192.80979963 459.90081374 192.34632949 467.15827128 188.09375 474.53125 C185.65625 477.40625 185.65625 477.40625 183.09375 479.53125 C182.289375 480.253125 181.485 480.975 180.65625 481.71875 C173.64253986 486.67966693 165.33891642 486.34379233 157.09375 485.53125 C148.92076888 483.20692336 143.23551196 477.90590707 139 470.66015625 C135.70120881 463.31423697 136.01195948 454.70710722 138.65625 447.21875 C141.84469687 440.21092685 146.91179194 435.37062877 154.09375 432.53125 C154.75375 432.53125 155.41375 432.53125 156.09375 432.53125 C156.07803955 431.73952393 156.0623291 430.94779785 156.04614258 430.13208008 C155.98368301 426.53604305 155.94472365 422.9401203 155.90625 419.34375 C155.86854492 417.47493164 155.86854492 417.47493164 155.83007812 415.56835938 C155.82041016 414.36630859 155.81074219 413.16425781 155.80078125 411.92578125 C155.7850708 410.82081299 155.76936035 409.71584473 155.75317383 408.57739258 C156.13946231 405.12239514 156.97889864 403.27155542 159.09375 400.53125 C162.44827129 399.41307624 164.95793264 399.4109913 168.49291992 399.41772461 C169.13709366 399.41757858 169.7812674 399.41743256 170.44496155 399.4172821 C172.57141502 399.41797805 174.6977806 399.42575552 176.82421875 399.43359375 C178.29966687 399.43545906 179.77511561 399.43688243 181.25056458 399.43788147 C185.13200595 399.44169774 189.01340985 399.45152044 192.89483643 399.46258545 C197.55294775 399.47461822 202.21107161 399.47920605 206.86919403 399.48503876 C213.94407208 399.49473266 221.01886791 399.51389542 228.09375 399.53125 C228.09375 382.04125 228.09375 364.55125 228.09375 346.53125 C222.15375 346.53125 216.21375 346.53125 210.09375 346.53125 C210.14015625 348.00078125 210.1865625 349.4703125 210.234375 350.984375 C210.27189483 352.91664635 210.30829476 354.84893967 210.34375 356.78125 C210.37726563 357.74933594 210.41078125 358.71742188 210.4453125 359.71484375 C210.45820313 360.64941406 210.47109375 361.58398438 210.484375 362.546875 C210.50532227 363.40571289 210.52626953 364.26455078 210.54785156 365.14941406 C209.92829974 368.39906332 208.63056613 369.45479889 206.09375 371.53125 C203.64938736 372.02344131 203.64938736 372.02344131 200.86724854 372.01226807 C199.80998062 372.01776672 198.75271271 372.02326538 197.66340637 372.02893066 C195.93171455 372.00735901 195.93171455 372.00735901 194.16503906 371.98535156 C192.33536842 371.98622772 192.33536842 371.98622772 190.46873474 371.98712158 C187.12778073 371.98481294 183.78781651 371.96476 180.4470377 371.93682575 C176.95436586 371.91181306 173.46168069 371.90947022 169.96893311 371.90472412 C163.35677815 371.89229388 156.74488788 371.85947188 150.13284945 371.81932616 C142.6045214 371.77460974 135.07618067 371.75262178 127.54775286 371.73254442 C112.06290589 371.69073901 96.57842347 371.6173864 81.09375 371.53125 C81.42375 386.38125 81.75375 401.23125 82.09375 416.53125 C84.73375 417.85125 87.37375 419.17125 90.09375 420.53125 C96.04895785 425.67438405 100.21484335 431.58113986 101.09375 439.53125 C101.32003311 448.74600109 99.48275373 455.62589289 93.30078125 462.53515625 C87.37423367 468.20145624 81.25014237 470.59060014 73.09375 470.90625 C64.30963598 470.55325624 58.3874132 467.79225946 52.04296875 461.69140625 C46.17447247 455.18784224 44.84711694 448.19703882 45.09375 439.53125 C46.09312942 431.57107671 49.94369706 425.62163198 56.09375 420.53125 C58.73375 419.21125 61.37375 417.89125 64.09375 416.53125 C64.58875 394.25625 64.58875 394.25625 65.09375 371.53125 C61.32807617 371.55743408 57.56240234 371.58361816 53.68261719 371.6105957 C41.25750045 371.69334883 28.83238807 371.74888993 16.40707016 371.79031086 C8.87166046 371.81609823 1.33651173 371.85125845 -6.19873047 371.90844727 C-12.76608094 371.95826651 -19.33324244 371.99053715 -25.90077662 372.00169247 C-29.37870217 372.00821394 -32.85608707 372.02355083 -36.33383942 372.05990028 C-40.2151761 372.10013935 -44.09598273 372.10120037 -47.97753906 372.09887695 C-49.13200027 372.11685333 -50.28646149 372.13482971 -51.47590637 372.15335083 C-59.25361266 372.10278779 -59.25361266 372.10278779 -62.62341309 369.1517334 C-64.01331532 366.31254496 -64.37401458 364.59265644 -64.296875 361.44921875 C-64.28398438 360.51787109 -64.27109375 359.58652344 -64.2578125 358.62695312 C-64.22429687 357.66724609 -64.19078125 356.70753906 -64.15625 355.71875 C-64.13820313 354.73970703 -64.12015625 353.76066406 -64.1015625 352.75195312 C-64.05459034 350.34462997 -63.98285146 347.93781257 -63.90625 345.53125 C-69.84625 345.53125 -75.78625 345.53125 -81.90625 345.53125 C-81.90625 363.02125 -81.90625 380.51125 -81.90625 398.53125 C-77.18828125 398.50804687 -72.4703125 398.48484375 -67.609375 398.4609375 C-64.61978616 398.45071799 -61.63021887 398.44109003 -58.640625 398.43359375 C-53.89578781 398.4216399 -49.15102785 398.40750087 -44.40625 398.38037109 C-40.58074853 398.35863455 -36.75532988 398.34667966 -32.92977142 398.34149551 C-31.47053473 398.33780121 -30.01130256 398.33058717 -28.55210114 398.31978989 C-26.50761635 398.305264 -24.46347343 398.30327249 -22.41894531 398.30419922 C-21.25534485 398.299758 -20.09174438 398.29531677 -18.8928833 398.29074097 C-15.9712357 398.5260168 -14.3357124 398.94000162 -11.90625 400.53125 C-9.55178135 403.82471976 -9.67357476 406.86767479 -9.7109375 410.828125 C-9.72060547 412.63603516 -9.72060547 412.63603516 -9.73046875 414.48046875 C-9.75560547 416.36185547 -9.75560547 416.36185547 -9.78125 418.28125 C-9.79027344 419.55097656 -9.79929688 420.82070313 -9.80859375 422.12890625 C-9.83215995 425.26321093 -9.86506168 428.39713541 -9.90625 431.53125 C-8.96152832 431.83071533 -8.01680664 432.13018066 -7.04345703 432.4387207 C-1.16771877 434.48494084 3.37391616 438.89146673 6.53125 444.21875 C10.18234883 451.95907952 10.42610818 460.7653637 7.53125 468.84375 C4.3743866 475.74454263 -0.7530827 480.70598924 -7.67578125 483.8125 C-14.86731394 486.12991158 -22.84382427 486.36917887 -29.90625 483.53125 C-36.9498251 479.41719077 -42.77094352 473.71627848 -45.40234375 465.8671875 C-47.01635784 458.38516868 -46.8578059 450.23353562 -42.90625 443.53125 C-39.02258603 438.07204277 -34.96552891 434.38267537 -28.90625 431.53125 C-28.24625 431.53125 -27.58625 431.53125 -26.90625 431.53125 C-26.90625 426.25125 -26.90625 420.97125 -26.90625 415.53125 C-29.86597778 415.57052612 -29.86597778 415.57052612 -32.88549805 415.6105957 C-39.41131197 415.69128377 -45.93700767 415.74870129 -52.4631834 415.79031086 C-56.41934303 415.81638382 -60.37496205 415.85173809 -64.33081055 415.90844727 C-68.14987802 415.96285179 -71.9684262 415.99268786 -75.78785133 416.00563622 C-77.24354031 416.01486119 -78.69920146 416.03287618 -80.15466881 416.05990028 C-82.19707579 416.09630743 -84.23734903 416.10119116 -86.2800293 416.09887695 C-87.44140915 416.10998001 -88.602789 416.12108307 -89.79936218 416.13252258 C-93.96031787 415.3272574 -95.40730903 413.9155621 -97.90625 410.53125 C-98.50752258 407.46232605 -98.50752258 407.46232605 -98.47387695 403.99682617 C-98.4734993 402.69585495 -98.47312164 401.39488373 -98.47273254 400.05448914 C-98.44720295 398.64438917 -98.42112303 397.23429908 -98.39453125 395.82421875 C-98.38519903 394.37406129 -98.37808485 392.923888 -98.37309265 391.47370911 C-98.35405435 387.667491 -98.30498306 383.86223568 -98.24957275 380.05639648 C-98.19831055 376.16858951 -98.17556387 372.28062607 -98.15039062 368.39257812 C-98.09685936 360.77169776 -98.01158738 353.15160908 -97.90625 345.53125 C-100.63270345 345.58473942 -103.3532436 345.66689337 -106.078125 345.765625 C-107.22837158 345.78375244 -107.22837158 345.78375244 -108.40185547 345.80224609 C-113.61891602 346.02079106 -116.37454018 346.88794043 -120.15625 350.78125 C-122.27997302 354.06506841 -122.97444521 355.74992779 -122.6328125 359.6640625 C-122.05482848 361.86464387 -121.42243013 364.0515059 -120.7421875 366.22265625 C-119.01954126 373.04079346 -120.64058419 379.86034175 -124.09375 385.90625 C-129.32259666 393.21751524 -135.05779648 396.85381805 -143.90625 398.53125 C-151.1119984 399.51199458 -158.38412654 397.92893968 -164.40234375 393.83203125 C-170.5825911 388.66660284 -175.08483466 382.74540338 -175.90625 374.53125 C-176.62312361 366.2155161 -174.40913712 358.34289826 -169.28125 351.65625 C-163.93329885 346.05235157 -156.86720115 343.1384234 -149.23828125 342.45703125 C-146.90625 342.53125 -146.90625 342.53125 -144.35546875 343.19921875 C-141.11292064 343.97348856 -139.1886355 344.26688292 -135.90625 343.53125 C-131.38987375 340.04659281 -127.84685299 335.437618 -124.37915039 330.94580078 C-121.35935985 328.0456406 -117.386556 328.40858875 -113.40332031 328.41772461 C-112.28715332 328.41784546 -111.17098633 328.41796631 -110.02099609 328.41809082 C-108.85391113 328.42320679 -107.68682617 328.42832275 -106.484375 328.43359375 C-105.40720215 328.43460083 -104.3300293 328.43560791 -103.22021484 328.43664551 C-99.19888239 328.44187499 -95.17756512 328.45583626 -91.15625 328.46875 C-82.16375 328.489375 -73.17125 328.51 -63.90625 328.53125 C-63.90625 301.47125 -63.90625 274.41125 -63.90625 246.53125 C-79.74625 247.02625 -79.74625 247.02625 -95.90625 247.53125 C-97.22625 250.17125 -98.54625 252.81125 -99.90625 255.53125 C-103.97478264 260.39088621 -109.29329595 264.32693198 -115.34375 266.34375 C-116.6121875 266.4365625 -116.6121875 266.4365625 -117.90625 266.53125 C-118.56238281 266.58152344 -119.21851563 266.63179688 -119.89453125 266.68359375 C-128.12512295 267.03897336 -135.49508281 264.80265413 -141.90625 259.53125 C-148.44993912 252.20294588 -150.40460603 245.65222633 -150.21484375 235.8515625 C-149.50362096 228.19916543 -146.61842318 222.12901159 -140.86328125 217.00390625 C-132.90079813 211.01217743 -124.70989057 210.33976277 -114.90625 211.53125 C-107.08789063 213.85008099 -101.75153749 218.54238443 -97.75 225.55859375 C-96.90625 227.53125 -96.90625 227.53125 -96.90625 230.53125 C-86.01625 230.53125 -75.12625 230.53125 -63.90625 230.53125 C-63.90625 203.80125 -63.90625 177.07125 -63.90625 149.53125 C-82.30541634 149.807766 -82.30541634 149.807766 -100.703125 150.16186523 C-103.02081033 150.1823219 -105.33852093 150.20015652 -107.65625 150.21484375 C-108.84605469 150.25065552 -110.03585938 150.28646729 -111.26171875 150.32336426 C-117.11607456 150.32764734 -120.97805258 150.12961181 -125.53515625 146.23852539 C-127.91333724 143.81507705 -129.98525219 141.1893936 -132.09375 138.53125 C-134.46562485 136.08897704 -135.43057965 135.55434685 -138.8828125 135.38671875 C-141.13555853 135.6109382 -143.38475374 135.87368291 -145.62890625 136.171875 C-153.3434007 137.01780288 -159.63408952 134.88748592 -165.86328125 130.3671875 C-172.38560762 124.50582346 -175.50810046 117.38867438 -176.21875 108.71875 C-175.93323973 100.5182605 -173.41863301 94.13348684 -167.73046875 88.21875 C-161.73593958 82.67348962 -155.32591044 79.99015724 -147.0703125 80.29296875 C-138.06969339 81.28401165 -131.88082063 84.70316928 -125.90625 91.53125 C-121.66237854 97.90878059 -119.9812843 104.87682373 -120.90625 112.53125 C-121.58128309 114.16146826 -122.2694049 115.78631244 -122.96875 117.40625 C-124.0414087 120.78120054 -124.10817691 122.05878024 -122.69921875 125.35546875 C-120.04166792 128.9175015 -117.36185265 131.99581183 -112.84599304 132.98048401 C-110.57205527 133.18827695 -108.32990158 133.27711953 -106.046875 133.30859375 C-105.26199707 133.33626831 -104.47711914 133.36394287 -103.66845703 133.39245605 C-101.74826508 133.45748539 -99.82723704 133.49697524 -97.90625 133.53125 C-97.91735306 132.72802811 -97.92845612 131.92480621 -97.93989563 131.09724426 C-98.04016613 123.52004159 -98.11624892 115.94316149 -98.16531086 108.36546803 C-98.19138253 104.46983809 -98.22673427 100.57475727 -98.28344727 96.67944336 C-98.33785664 92.91872974 -98.36768883 89.15854356 -98.38063622 85.39746666 C-98.38986035 83.96410508 -98.40787371 82.53077172 -98.43490028 81.09763527 C-98.47129759 79.08726894 -98.47329327 77.07636953 -98.47387695 75.06567383 C-98.48498001 73.92205887 -98.49608307 72.77844391 -98.50752258 71.60017395 C-97.69711175 67.46379838 -96.27121357 66.01765871 -92.90625 63.53125 C-89.79936218 62.92997742 -89.79936218 62.92997742 -86.2800293 62.96362305 C-85.63556351 62.96289291 -84.99109772 62.96216278 -84.32710266 62.96141052 C-82.21068211 62.96487609 -80.09650152 63.00367973 -77.98046875 63.04296875 C-76.50789085 63.05230076 -75.03529737 63.05941504 -73.56269836 63.06440735 C-69.69730346 63.08344726 -65.83285633 63.13252011 -61.96783447 63.18792725 C-58.01970235 63.23918587 -54.07141623 63.26193537 -50.12304688 63.28710938 C-42.38363362 63.34064385 -34.64519565 63.42855279 -26.90625 63.53125 C-26.90625 58.25125 -26.90625 52.97125 -26.90625 47.53125 C-29.87625 46.54125 -29.87625 46.54125 -32.90625 45.53125 C-39.33016809 41.44224608 -43.7408311 35.83208894 -45.90625 28.53125 C-47.15628653 19.60680885 -46.39207629 11.85413129 -40.90625 4.53125 C-29.65633806 -7.55274221 -13.56480177 -10.45156858 0 0 Z M-25.90625 13.53125 C-28.23742811 16.95031123 -28.90625 18.94168888 -28.90625 23.09375 C-27.72008817 27.17118129 -26.14340865 28.84677698 -22.90625 31.53125 C-19.36429654 33.30222673 -15.63458681 32.55975671 -11.90625 31.53125 C-8.97059092 29.0748822 -7.30038325 27.33300198 -6.46875 23.53125 C-6.25075612 19.93435098 -6.79099809 17.72059242 -8.65625 14.65625 C-11.77367736 11.71201305 -13.56526166 10.67390833 -17.84375 10.21875 C-21.43000446 10.58469433 -23.1090103 11.26321781 -25.90625 13.53125 Z M155.09375 15.53125 C153.25407158 19.57854253 152.74261739 21.47785218 154.15625 25.71875 C156.27241087 28.79059642 157.87602001 30.6298641 161.09375 32.53125 C165.62227543 33.27228143 167.49216029 32.90582473 171.40625 30.46875 C174.49781692 27.08959546 175.53646016 25.06918156 176.09375 20.53125 C174.53973567 15.86920702 172.32697949 13.03270379 168.09375 10.53125 C162.03663353 9.54008549 159.18718615 11.05702909 155.09375 15.53125 Z M65.09375 33.53125 C62.44607934 36.86961735 62.65903657 40.40147243 63.09375 44.53125 C65.21502244 47.94043784 67.22050063 50.31394305 71.09375 51.53125 C75.22526725 51.98196097 77.34425691 51.99760126 80.90625 49.78125 C83.64250094 47.01569365 83.64250094 47.01569365 85.09375 43.53125 C84.90157148 38.24634072 83.84042267 35.27792267 80.09375 31.53125 C74.49627739 27.8579086 70.00611294 29.95524776 65.09375 33.53125 Z M-156.734375 100.84375 C-159.02607274 104.14379475 -159.32804367 107.60372865 -158.90625 111.53125 C-157.30044955 114.802325 -155.95995218 116.75853507 -153.03125 118.90625 C-149.04280324 120.07932258 -146.03290879 120.02907598 -142.21875 118.34375 C-138.64362676 115.54162638 -137.13932243 113.09616487 -136.46875 108.59375 C-137.11433145 104.07467984 -139.0703358 100.9240125 -142.71875 98.15625 C-148.17987261 96.59592925 -152.44763997 96.7874846 -156.734375 100.84375 Z M285.09375 102.53125 C282.79975138 105.80839089 282.47657603 108.59676597 283.09375 112.53125 C285.53614312 116.77284375 287.90530567 119.14925004 292.59375 120.65625 C296.65470955 120.51121573 298.74225883 119.81635762 302.09375 117.53125 C304.48773482 114.65846821 305.05399433 112.80457022 305.59375 109.09375 C304.92999442 104.36449149 303.43693209 102.87443209 300.09375 99.53125 C294.4159956 96.6923728 289.24343338 98.1374676 285.09375 102.53125 Z M-47.90625 123.53125 C-47.90625 200.09125 -47.90625 276.65125 -47.90625 355.53125 C31.95375 355.53125 111.81375 355.53125 194.09375 355.53125 C194.09375 278.97125 194.09375 202.41125 194.09375 123.53125 C114.23375 123.53125 34.37375 123.53125 -47.90625 123.53125 Z M-131.90625 233.53125 C-133.74592842 237.57854253 -134.25738261 239.47785218 -132.84375 243.71875 C-130.72758913 246.79059642 -129.12397999 248.6298641 -125.90625 250.53125 C-121.88076071 251.1063199 -119.73586106 250.98376513 -116.15625 249.03125 C-113.26496671 245.81871301 -111.57067551 242.83340516 -110.90625 238.53125 C-112.3505656 233.8372243 -114.68684261 231.02453618 -118.90625 228.53125 C-124.96336647 227.54008549 -127.81281385 229.05702909 -131.90625 233.53125 Z M255.09375 233.53125 C253.47159826 236.77555347 253.54082207 240.02503642 254.09375 243.53125 C256.01544063 246.94070111 257.4659956 248.90753103 261.18359375 250.33203125 C264.61585222 251.00674873 267.02656897 251.06285691 270.1953125 249.484375 C273.56319299 246.90649117 274.92610254 245.06213363 276.21875 240.96875 C276.03391914 235.88590143 274.31141027 233.78273417 270.84375 230.21875 C264.23878534 226.1657035 259.99481925 228.63018075 255.09375 233.53125 Z M-155.90625 361.53125 C-158.30023482 364.40403179 -158.86649433 366.25792978 -159.40625 369.96875 C-158.74249442 374.69800851 -157.24943209 376.18806791 -153.90625 379.53125 C-150.70011153 381.13431924 -147.38485003 381.01865461 -143.90625 380.53125 C-140.5060801 378.46158136 -137.98812304 376.42599294 -136.90625 372.53125 C-136.9828797 367.70357863 -137.19374143 365.51618832 -140.03125 361.59375 C-145.60918165 357.59219034 -150.28063222 357.69560152 -155.90625 361.53125 Z M286.09375 362.53125 C283.96636862 365.24549521 283.16465439 367.0551777 282.65625 370.46875 C283.30183145 374.98782016 285.2578358 378.1384875 288.90625 380.90625 C292.20350883 381.84832395 294.6750099 381.94385656 298.09375 381.53125 C301.66518799 379.48098004 303.48377548 378.29628266 304.828125 374.40625 C305.54255528 370.17682276 305.32825189 368.00893904 303.40625 364.09375 C300.31048761 360.66331059 298.72447792 359.70473169 294.15625 359.21875 C290.60118041 359.5815122 288.89792623 360.33338214 286.09375 362.53125 Z M65.09375 434.53125 C62.29763453 437.59795728 61.85735957 440.00501782 62.03125 444.03125 C62.60239396 447.67077378 63.16377396 448.61493718 65.65625 451.59375 C70.13074068 454.11573566 72.02463294 454.25540958 77.09375 453.53125 C80.5368646 451.43544111 82.8405718 449.4047099 84.09375 445.53125 C84.65356714 442.3822786 84.60855285 440.42528485 82.99609375 437.625 C80.40864549 434.25786733 78.70208095 432.72678495 74.59375 431.40625 C70.53279045 431.55128427 68.44524117 432.24614238 65.09375 434.53125 Z M-27.55078125 450.78515625 C-29.59772479 453.42199706 -30.04483933 455.20510614 -29.90625 458.53125 C-28.23971212 463.1605219 -26.15783617 466.01894908 -21.90625 468.53125 C-17.37772457 469.27228143 -15.50783971 468.90582473 -11.59375 466.46875 C-8.50218308 463.08959546 -7.46353984 461.06918156 -6.90625 456.53125 C-8.34049461 452.38787668 -9.96604291 449.55459959 -13.90625 447.53125 C-20.08622704 445.80896132 -22.94718596 446.22369913 -27.55078125 450.78515625 Z M154.28125 451.21875 C152.5347766 454.61977715 152.42537345 457.83681697 153.09375 461.53125 C155.18955889 464.9743646 157.2202901 467.2780718 161.09375 468.53125 C164.50208571 468.89383891 166.61140687 468.73316108 169.78125 467.40625 C172.74023516 465.00707284 173.84719487 463.13240926 175.09375 459.53125 C175.09375 455.23376799 174.54116437 453.15491851 172.03125 449.65625 C165.57609843 444.98656588 160.0153877 445.88007007 154.28125 451.21875 Z " fill="#000000" transform="translate(182.90625,16.46875)"/>
<path d="M0 0 C1.13901512 -0.00786278 1.13901512 -0.00786278 2.30104065 -0.0158844 C3.90388773 -0.02229542 5.50678192 -0.02097947 7.10961914 -0.01245117 C9.55505651 -0.00394573 11.99815293 -0.03270359 14.44335938 -0.06445312 C16.00390555 -0.0660655 17.56445585 -0.06548691 19.125 -0.0625 C20.21584145 -0.07935097 20.21584145 -0.07935097 21.32872009 -0.09654236 C24.91483946 -0.04760527 27.0013805 0.35531751 30.08178711 2.24609375 C32.93869532 5.29891397 32.87071392 7.75789096 33.25390625 11.87109375 C33.82091911 15.9465597 34.34856234 18.75638446 37.58203125 21.5625 C42.3495829 23.79967998 45.98215928 25.11279341 51.12890625 23.43359375 C53.19119982 22.08852853 53.19119982 22.08852853 55.06640625 20.43359375 C58.40552757 17.82882806 60.74551363 16.33618503 65.12890625 16.43359375 C70.76461093 19.33713585 74.95289199 23.77754772 79.42333984 28.19262695 C80.87367683 29.61596169 82.34621128 31.01345815 83.8203125 32.41210938 C91.64612721 40.12299953 91.64612721 40.12299953 92.51953125 44.75390625 C92.05688666 49.1120183 90.97201471 50.83134832 88.12890625 54.12109375 C84.89306248 57.57569338 84.89306248 57.57569338 84.30859375 61.9765625 C84.57929688 62.78738281 84.85 63.59820312 85.12890625 64.43359375 C85.27585937 65.20960938 85.4228125 65.985625 85.57421875 66.78515625 C86.41322394 69.59148394 87.13820512 71.25229358 89.12890625 73.43359375 C93.03195208 74.68027769 96.52502423 75.23413096 100.59765625 75.703125 C104.67347414 76.5462422 105.6992426 77.11473342 108.12890625 80.43359375 C108.52672055 83.34439347 108.69049625 85.86908116 108.66015625 88.77734375 C108.66398315 89.58345093 108.66781006 90.38955811 108.67175293 91.22009277 C108.67447015 92.92131807 108.66712215 94.62258528 108.65039062 96.32373047 C108.62897615 98.92510271 108.65019644 101.52371347 108.67578125 104.125 C108.67313794 105.779954 108.66801288 107.43490629 108.66015625 109.08984375 C108.66825317 109.86598022 108.6763501 110.6421167 108.68469238 111.44177246 C108.62375443 114.95806758 108.41573315 117.04122782 106.31420898 119.91601562 C103.21016568 122.07161089 100.42506465 122.07835965 96.69140625 122.43359375 C92.46851109 123.03389983 89.75606798 123.65699999 86.96484375 127.11328125 C84.37315268 132.90273129 84.37315268 132.90273129 84.83984375 139.04296875 C86.15689799 141.48550571 87.63861781 143.60076763 89.31640625 145.80859375 C91.39424342 148.9048782 92.1078845 150.19394584 92.44140625 153.99609375 C90.58115455 158.86818154 87.77480198 161.75848412 84.12890625 165.43359375 C82.98282286 166.61694537 81.83701236 167.80056131 80.69140625 168.984375 C79.4429477 170.2606243 78.19293248 171.53535257 76.94140625 172.80859375 C76.33530518 173.42806885 75.7292041 174.04754395 75.10473633 174.68579102 C74.52103271 175.27030029 73.9373291 175.85480957 73.3359375 176.45703125 C72.81491455 176.98216309 72.2938916 177.50729492 71.75708008 178.04833984 C68.8678102 180.50653707 66.81544982 181.41986288 63.00390625 181.49609375 C59.30091318 180.90266537 57.14201952 178.99318743 54.25390625 176.68359375 C50.81655723 174.00982008 50.81655723 174.00982008 46.6640625 173.5703125 C44.35126398 174.35920384 42.29404835 175.30482765 40.12890625 176.43359375 C39.24976563 176.65402344 38.370625 176.87445313 37.46484375 177.1015625 C34.75367778 178.29204703 34.75367778 178.29204703 34.125 181.76953125 C33.91663341 183.1126331 33.73121589 184.4594544 33.56640625 185.80859375 C32.68283239 192.64156494 32.68283239 192.64156494 30.59594727 195.62548828 C27.1291615 198.16631118 23.92238548 198.00800475 19.78515625 197.96484375 C18.97904907 197.96867065 18.17294189 197.97249756 17.34240723 197.97644043 C15.64118193 197.97915765 13.93991472 197.97180965 12.23876953 197.95507812 C9.63739729 197.93366365 7.03878653 197.95488394 4.4375 197.98046875 C2.782546 197.97782544 1.12759371 197.97270038 -0.52734375 197.96484375 C-1.30348022 197.97294067 -2.0796167 197.9810376 -2.87927246 197.98937988 C-6.39495767 197.9284525 -8.47782573 197.72133479 -11.35131836 195.61889648 C-13.50798069 192.5178066 -13.55279343 189.72645806 -13.93359375 185.99609375 C-14.52660584 181.8994544 -15.08860317 179.10202222 -18.36328125 176.3046875 C-21.92950337 174.64454962 -24.99816079 173.23972269 -28.984375 173.65234375 C-31.24803295 174.58967624 -32.7651225 175.83837879 -34.62109375 177.43359375 C-37.8883106 179.92030879 -40.58336787 181.67558872 -44.7644043 181.80444336 C-47.47367179 181.32751935 -48.55044312 180.30877125 -50.5625 178.44921875 C-51.25746582 177.81153564 -51.95243164 177.17385254 -52.66845703 176.5168457 C-53.75876221 175.48563599 -53.75876221 175.48563599 -54.87109375 174.43359375 C-55.60440918 173.74934326 -56.33772461 173.06509277 -57.09326172 172.36010742 C-59.35727179 170.22204 -61.5854658 168.05158106 -63.80859375 165.87109375 C-64.57494141 165.14212891 -65.34128906 164.41316406 -66.13085938 163.66210938 C-71.55688944 158.32258821 -71.55688944 158.32258821 -73.015625 154.1953125 C-72.85294328 151.08677265 -72.24435323 149.44872267 -70.62109375 146.80859375 C-69.96367187 145.70644531 -69.96367187 145.70644531 -69.29296875 144.58203125 C-67.87109375 142.43359375 -67.87109375 142.43359375 -66.1953125 140.296875 C-64.64892478 138.51712366 -64.64892478 138.51712366 -64.93359375 136.24609375 C-65.24296875 135.31796875 -65.55234375 134.38984375 -65.87109375 133.43359375 C-66.08958984 132.33724609 -66.08958984 132.33724609 -66.3125 131.21875 C-67.13221352 128.32867434 -67.83382101 126.6698358 -69.87109375 124.43359375 C-73.73824165 123.13302222 -77.40635065 122.48129474 -81.4375 121.96875 C-84.87109375 121.43359375 -84.87109375 121.43359375 -87.87109375 119.43359375 C-89.75165991 113.79189528 -89.17745476 107.44576996 -89.22119141 101.52832031 C-89.23775832 99.88527265 -89.26505854 98.24229729 -89.30322266 96.59960938 C-89.35809079 94.22358047 -89.37987593 91.84923392 -89.39453125 89.47265625 C-89.41720062 88.74229156 -89.43987 88.01192688 -89.46322632 87.25942993 C-89.44701582 83.33104879 -89.00470293 81.60364691 -86.54931641 78.47851562 C-83.24579856 75.95615779 -80.97477768 75.72426863 -76.87109375 75.30859375 C-71.61593703 74.41471009 -71.61593703 74.41471009 -67.8125 70.9453125 C-65.41744174 65.86557324 -65.41744174 65.86557324 -65.0859375 60.359375 C-66.05373731 57.98561727 -67.36056793 56.12830461 -68.87109375 54.05859375 C-71.28737579 50.50695026 -72.97180282 47.86479291 -72.87109375 43.43359375 C-69.75510853 37.41171062 -64.85234747 33.00793747 -60.12109375 28.24609375 C-58.79851562 26.87420898 -58.79851562 26.87420898 -57.44921875 25.47460938 C-49.04147493 16.99805218 -49.04147493 16.99805218 -42.87109375 16.43359375 C-40.61328125 16.97265625 -40.61328125 16.97265625 -38.74609375 18.05859375 C-38.07707031 18.43628906 -37.40804687 18.81398437 -36.71875 19.203125 C-34.87109375 20.43359375 -34.87109375 20.43359375 -32.18359375 22.74609375 C-30.04529641 24.65464465 -30.04529641 24.65464465 -27.62109375 24.43359375 C-26.71359375 24.10359375 -25.80609375 23.77359375 -24.87109375 23.43359375 C-24.15308594 23.29824219 -23.43507813 23.16289062 -22.6953125 23.0234375 C-19.75090902 22.21866601 -18.13917964 21.51409359 -15.87109375 19.43359375 C-14.64255995 15.99369912 -13.7968055 12.77326984 -13.18725586 9.18530273 C-12.25470052 3.84994452 -12.25470052 3.84994452 -10.30371094 1.73242188 C-6.91895469 -0.07477435 -3.74565996 -0.01507833 0 0 Z M3.12890625 16.43359375 C2.69578125 18.51671875 2.26265625 20.59984375 1.81640625 22.74609375 C0.23806362 30.33717021 0.23806362 30.33717021 -2.87109375 32.43359375 C-5.47062707 33.52216605 -8.02770869 34.50897012 -10.68359375 35.43359375 C-14.61087248 36.82352465 -18.39205659 38.18916345 -22.109375 40.0859375 C-26.14587353 42.05565743 -29.4833622 42.38488345 -33.87109375 41.43359375 C-36.83511294 39.73776188 -39.35635413 37.73591667 -41.87109375 35.43359375 C-45.0863368 36.84204093 -47.19293243 38.53704161 -49.62109375 41.05859375 C-50.54148437 42.00605469 -50.54148437 42.00605469 -51.48046875 42.97265625 C-51.939375 43.45476562 -52.39828125 43.936875 -52.87109375 44.43359375 C-51.80000681 47.46834008 -50.70295438 49.65613115 -48.74609375 52.24609375 C-46.41474844 56.20938078 -45.90410878 59.01721464 -46.87109375 63.43359375 C-48.20087364 66.74517463 -49.70433784 69.9120025 -51.3046875 73.1015625 C-52.77850802 76.23664706 -53.73732218 79.2356401 -54.68359375 82.55859375 C-56.24168233 87.03160638 -56.24168233 87.03160638 -58.87109375 88.7109375 C-61.20240178 89.50247958 -63.44900851 90.0028202 -65.87109375 90.43359375 C-67.22931474 90.81528359 -68.58408559 91.20965833 -69.93359375 91.62109375 C-71.38765625 92.02328125 -71.38765625 92.02328125 -72.87109375 92.43359375 C-72.87109375 97.05359375 -72.87109375 101.67359375 -72.87109375 106.43359375 C-71.8346875 106.59472656 -70.79828125 106.75585938 -69.73046875 106.921875 C-58.98360348 108.93468786 -58.98360348 108.93468786 -56.1953125 112.69140625 C-55.30859375 115.37109375 -55.30859375 115.37109375 -54.6328125 118.296875 C-53.76177673 121.88375561 -52.30183664 124.77787594 -50.62109375 128.05859375 C-48.2206573 133.23300396 -46.20688864 137.75822759 -47.87109375 143.43359375 C-49.59145124 146.37995313 -51.57008478 148.92028931 -53.87109375 151.43359375 C-52.46264657 154.6488368 -50.76764589 156.75543243 -48.24609375 159.18359375 C-47.29863281 160.10398437 -47.29863281 160.10398437 -46.33203125 161.04296875 C-45.84992188 161.501875 -45.3678125 161.96078125 -44.87109375 162.43359375 C-41.83634742 161.36250681 -39.64855635 160.26545438 -37.05859375 158.30859375 C-33.09530672 155.97724844 -30.28747286 155.46660878 -25.87109375 156.43359375 C-22.55951287 157.76337364 -19.392685 159.26683784 -16.203125 160.8671875 C-13.06804044 162.34100802 -10.0690474 163.29982218 -6.74609375 164.24609375 C-2.27308112 165.80418233 -2.27308112 165.80418233 -0.59375 168.43359375 C0.19779208 170.76490178 0.6981327 173.01150851 1.12890625 175.43359375 C1.51059609 176.79181474 1.90497083 178.14658559 2.31640625 179.49609375 C2.58453125 180.46546875 2.85265625 181.43484375 3.12890625 182.43359375 C7.74890625 182.43359375 12.36890625 182.43359375 17.12890625 182.43359375 C17.56203125 181.25796875 17.99515625 180.08234375 18.44140625 178.87109375 C18.72113281 178.1440625 19.00085938 177.41703125 19.2890625 176.66796875 C19.81266574 175.2749406 20.3054756 173.86946022 20.75 172.44921875 C21.92870599 169.02291811 22.82593746 167.60483698 26.00390625 165.80859375 C27.37382694 165.33529497 28.74998475 164.87999037 30.12890625 164.43359375 C32.38257251 163.58914772 34.63232135 162.73420265 36.87890625 161.87109375 C37.9875 161.45730469 39.09609375 161.04351562 40.23828125 160.6171875 C43.25185951 159.49466109 43.25185951 159.49466109 46.12890625 157.43359375 C50.34678871 156.55275083 53.87629721 156.78367292 57.71875 158.77734375 C59.92603934 160.25584404 62.0490612 161.78151825 64.12890625 163.43359375 C67.3441493 162.02514657 69.45074493 160.33014589 71.87890625 157.80859375 C72.4925 157.17695313 73.10609375 156.5453125 73.73828125 155.89453125 C74.1971875 155.41242188 74.65609375 154.9303125 75.12890625 154.43359375 C74.10705635 151.4531982 73.15009318 149.45799082 71.06640625 147.05859375 C68.57603497 143.68454233 68.32112804 141.61975721 68.12890625 137.43359375 C68.9011057 134.64829899 70.10069587 132.14461715 71.37890625 129.55859375 C72.04113019 128.15262393 72.70001694 126.74507717 73.35546875 125.3359375 C73.6690332 124.66546387 73.98259766 123.99499023 74.30566406 123.30419922 C75.33626291 120.96242923 76.06658826 118.58330936 76.75390625 116.12109375 C78.12890625 112.43359375 78.12890625 112.43359375 80.19140625 110.49609375 C83.75316194 109.20779914 87.28895784 108.49240162 91.01953125 107.86328125 C93.10616787 107.64024402 93.10616787 107.64024402 94.12890625 106.43359375 C94.20162366 104.0804582 94.21261493 101.72525707 94.19140625 99.37109375 C94.18238281 98.08074219 94.17335938 96.79039062 94.1640625 95.4609375 C94.15246094 94.46191406 94.14085937 93.46289062 94.12890625 92.43359375 C91.32686105 91.47531855 88.55565773 90.53909053 85.6796875 89.828125 C79.62868088 88.25465208 79.62868088 88.25465208 77.37890625 84.55859375 C76.94653691 83.18845038 76.53290825 81.81236802 76.12890625 80.43359375 C75.30967129 78.24077484 74.47505797 76.05366745 73.62890625 73.87109375 C73.025625 72.26041016 73.025625 72.26041016 72.41015625 70.6171875 C71.16825463 67.38585808 71.16825463 67.38585808 69.4765625 64.2421875 C67.62871082 60.39115748 67.93140338 58.51919178 69.12890625 54.43359375 C70.93547662 51.59398452 72.95154821 48.99714985 75.12890625 46.43359375 C73.72045907 43.2183507 72.02545839 41.11175507 69.50390625 38.68359375 C68.87226563 38.07 68.240625 37.45640625 67.58984375 36.82421875 C66.86667969 36.13585937 66.86667969 36.13585937 66.12890625 35.43359375 C63.09959745 36.50276156 60.94350395 37.57685916 58.37890625 39.55859375 C54.02115815 42.07267919 51.04701292 42.41721508 46.12890625 41.43359375 C42.77219751 40.12960915 39.58542506 38.63072755 36.36328125 37.0234375 C32.67460109 35.21028191 28.92007929 33.77609276 25.0546875 32.390625 C23.12890625 31.43359375 23.12890625 31.43359375 21.12890625 28.43359375 C19.97133366 24.46704915 19.08059718 20.45665087 18.12890625 16.43359375 C13.17890625 16.43359375 8.22890625 16.43359375 3.12890625 16.43359375 Z " fill="#000000" transform="translate(245.87109375,156.56640625)"/>
<path d="M0 0 C11.52686134 8.40999803 18.74909993 20.92125711 21 35 C22.03667668 50.96880808 18.58623045 64.30783874 8.3125 76.75 C-0.94367307 86.58688355 -13.58274955 92.29649737 -27.0078125 93.203125 C-42.49486349 93.43601298 -55.54659258 88.97259357 -66.93359375 78.2578125 C-77.18620772 67.05552351 -81.36668921 53.61632618 -81.2109375 38.6953125 C-80.41667748 24.78105366 -74.27063799 12.39994376 -64 3 C-44.86773348 -11.68357841 -20.31884955 -13.44405083 0 0 Z M-47 12 C-47.68320313 12.4125 -48.36640625 12.825 -49.0703125 13.25 C-56.39702703 18.15304851 -61.77174069 25.45483577 -64 34 C-64.78923979 42.8560046 -64.95395502 51.29040751 -60 59 C-59.38125 60.02480469 -59.38125 60.02480469 -58.75 61.0703125 C-53.84695149 68.39702703 -46.54516423 73.77174069 -38 76 C-29.1439954 76.78923979 -20.70959249 76.95395502 -13 72 C-12.31679688 71.5875 -11.63359375 71.175 -10.9296875 70.75 C-4.2575171 66.28497342 0.21128806 60.04404439 3.4375 52.75 C5.16883395 41.20777368 4.81287423 31.02322563 -2.0625 21.375 C-7.3400939 14.99045314 -13.93743822 10.10973668 -22 8 C-30.8560046 7.21076021 -39.29040751 7.04604498 -47 12 Z " fill="#000000" transform="translate(286,214)"/>
</svg>
