<?xml version="1.0" encoding="UTF-8"?>
<svg version="1.1" xmlns="http://www.w3.org/2000/svg" width="512" height="512">
<path d="M0 0 C0.92320038 0.00215515 1.84640076 0.0043103 2.7975769 0.00653076 C16.84184242 0.05905652 30.57195364 0.49622308 44.375 3.3125 C45.36097168 3.51117676 46.34694336 3.70985352 47.36279297 3.91455078 C78.68783862 10.43144901 108.91014238 22.13604592 135.375 40.3125 C135.96490723 40.71001465 136.55481445 41.1075293 137.16259766 41.51708984 C149.14604757 49.62018455 160.3972279 58.82011502 170.375 69.3125 C171.15875 70.09625 171.9425 70.88 172.75 71.6875 C173.61625 72.55375 174.4825 73.42 175.375 74.3125 C176.32632813 75.21162109 176.32632813 75.21162109 177.296875 76.12890625 C211.87784522 109.42228716 233.25088005 158.41881095 240.375 205.3125 C240.64884521 207.07980469 240.64884521 207.07980469 240.92822266 208.8828125 C242.46463171 219.78406572 242.77468065 230.56278141 242.75 241.5625 C242.74918427 242.93796494 242.74918427 242.93796494 242.74835205 244.34121704 C242.68306386 268.40774851 239.36885808 291.24473828 232.375 314.3125 C232.12943359 315.13556641 231.88386719 315.95863281 231.63085938 316.80664062 C224.7446682 339.39116734 213.83541881 360.95284434 200.375 380.3125 C199.89208496 381.00875488 199.40916992 381.70500977 198.91162109 382.42236328 C190.21332131 394.80328214 180.06327908 405.64209429 169.375 416.3125 C168.72660156 416.99570312 168.07820313 417.67890625 167.41015625 418.3828125 C160.95169262 425.1098459 153.80893937 430.72299645 146.375 436.3125 C145.81683594 436.7367627 145.25867188 437.16102539 144.68359375 437.59814453 C103.32412077 468.87441267 52.38525958 484.84952252 0.75 484.625 C-0.12485046 484.62317719 -0.99970093 484.62135437 -1.90106201 484.61947632 C-15.67030937 484.57131454 -29.07550824 483.93944228 -42.625 481.3125 C-43.49543945 481.15152832 -44.36587891 480.99055664 -45.26269531 480.82470703 C-89.39691931 472.46217933 -131.33509899 452.03980068 -163.85546875 420.90625 C-166.54450625 418.3184508 -166.54450625 418.3184508 -169.2890625 416.19140625 C-171.40600039 414.48865186 -173.07120032 412.82254949 -174.8125 410.75 C-177.58259955 407.4952826 -180.44946722 404.36562287 -183.375 401.25 C-211.22719197 370.61258883 -229.61794133 330.45483369 -237.875 290.125 C-238.10171387 289.02369751 -238.10171387 289.02369751 -238.33300781 287.90014648 C-241.2177554 272.85941116 -242.00191305 257.96734415 -241.9375 242.6875 C-241.93534485 241.76429962 -241.9331897 240.84109924 -241.93096924 239.8899231 C-241.87844348 225.84565758 -241.44127692 212.11554636 -238.625 198.3125 C-238.42632324 197.32652832 -238.22764648 196.34055664 -238.02294922 195.32470703 C-228.47304993 149.4208091 -206.88393921 104.93138361 -172.625 72.3125 C-171.84125 71.52875 -171.0575 70.745 -170.25 69.9375 C-169.38375 69.07125 -168.5175 68.205 -167.625 67.3125 C-167.02558594 66.67828125 -166.42617187 66.0440625 -165.80859375 65.390625 C-123.74022191 21.69529955 -59.60049537 -0.25124928 0 0 Z M-157.625 74.3125 C-155.94347927 78.05270498 -153.93460527 79.87384348 -150.625 82.3125 C-149.94953125 81.96316406 -149.2740625 81.61382812 -148.578125 81.25390625 C-147.68609375 80.79886719 -146.7940625 80.34382813 -145.875 79.875 C-144.99328125 79.42253906 -144.1115625 78.97007813 -143.203125 78.50390625 C-135.20247213 74.80663485 -124.6315238 75.10597287 -116.15625 77.1484375 C-105.07512404 81.40381834 -98.64237242 87.99425595 -93.71875 98.67578125 C-90.09006562 107.42350252 -90.26037675 118.72506848 -93.5 127.625 C-94.758351 130.59377626 -96.18113414 133.42476829 -97.625 136.3125 C-79.145 154.7925 -60.665 173.2725 -41.625 192.3125 C-37.90685364 190.82524145 -35.31693002 189.56306682 -32.0625 187.4375 C-23.77025609 182.37824404 -15.05845577 180.4088235 -5.625 178.3125 C-5.625 151.5825 -5.625 124.8525 -5.625 97.3125 C-9.585 95.9925 -13.545 94.6725 -17.625 93.3125 C-26.23169988 88.61793643 -31.76805956 82.35665705 -35.5625 73.25 C-38.24899709 63.81367897 -38.05197418 52.15544692 -33.75 43.3125 C-33.193125 42.3225 -33.193125 42.3225 -32.625 41.3125 C-32.0475 40.260625 -31.47 39.20875 -30.875 38.125 C-24.09203838 29.64629797 -16.04814978 24.91828745 -5.625 22.3125 C-5.625 19.0125 -5.625 15.7125 -5.625 12.3125 C-61.55057995 10.17672821 -117.40163734 36.77687355 -157.625 74.3125 Z M6.375 12.3125 C6.375 15.6125 6.375 18.9125 6.375 22.3125 C7.26960937 22.56902344 8.16421875 22.82554688 9.0859375 23.08984375 C19.64889931 26.43440629 27.60876823 31.08876684 33.375 41 C38.25055881 50.51809459 38.87126907 61.18821887 36.6875 71.5859375 C33.39154738 81.39139656 28.19357053 87.25398759 19.546875 92.76953125 C15.37038282 94.80119924 10.82356041 95.97793188 6.375 97.3125 C6.375 124.0425 6.375 150.7725 6.375 178.3125 C15.78 180.7875 15.78 180.7875 25.375 183.3125 C30.89399865 185.99162556 35.5569159 188.6029045 40.375 192.3125 C44.26895116 190.72850411 46.88652235 188.07053057 49.78613281 185.12841797 C50.31340973 184.60143311 50.84068665 184.07444824 51.38394165 183.53149414 C53.12012072 181.79392524 54.849114 180.04938686 56.578125 178.3046875 C57.78266437 177.09641678 58.98764697 175.88858778 60.1930542 174.68118286 C63.36048106 171.50612923 66.52185513 168.32511478 69.68200684 165.14282227 C72.90937089 161.89497924 76.14242228 158.65280867 79.375 155.41015625 C85.71391303 149.04981018 92.04644624 142.68315247 98.375 136.3125 C98.02566406 135.56484375 97.67632812 134.8171875 97.31640625 134.046875 C96.86136719 133.06203125 96.40632813 132.0771875 95.9375 131.0625 C95.48503906 130.08796875 95.03257812 129.1134375 94.56640625 128.109375 C90.88745058 119.47287578 91.00671156 108.16816248 94 99.3125 C98.27546863 89.3413896 105.09173316 82.65760071 114.8125 77.9375 C124.77952086 74.2767732 136.52491225 75.15155229 146.17578125 79.2421875 C148.24966314 80.25150124 150.31866982 81.26786544 152.375 82.3125 C154.355 80.3325 156.335 78.3525 158.375 76.3125 C148.17214556 52.25524322 103.40369901 34.70904913 81.24731445 25.72338867 C65.28929184 19.55783632 48.26163012 15.82952829 31.375 13.3125 C30.55644531 13.18101563 29.73789062 13.04953125 28.89453125 12.9140625 C21.45801195 11.88160016 13.86474137 12.2297912 6.375 12.3125 Z M-22.625 45.3125 C-26.60894166 52.25226935 -27.56291022 59.78752882 -25.5 67.5 C-22.29142455 76.61235428 -17.31523364 81.10162256 -8.625 85.3125 C-0.17783361 88.00840417 7.67292392 86.2735677 15.375 82.3125 C21.15507387 78.71600959 24.79892783 72.90615539 26.75 66.4375 C28.18226695 59.41388324 27.18430267 52.42849937 23.65625 46.19140625 C18.96911705 39.31789726 13.47496474 35.3648149 5.375 33.3125 C-6.19412533 31.56723537 -15.52870655 36.28860761 -22.625 45.3125 Z M-169.8046875 86.375 C-201.80148179 121.24686856 -221.49129174 164.66902294 -228.625 211.3125 C-228.82416016 212.54806641 -228.82416016 212.54806641 -229.02734375 213.80859375 C-230.05298183 221.2409574 -229.7076553 228.82760374 -229.625 236.3125 C-226.325 236.3125 -223.025 236.3125 -219.625 236.3125 C-219.40585938 235.5390625 -219.18671875 234.765625 -218.9609375 233.96875 C-215.67043938 223.16093503 -210.45280789 214.90931777 -200.54296875 209.08984375 C-191.27316654 204.29156023 -180.51454792 203.87717752 -170.34375 205.99609375 C-160.54448875 209.31297853 -154.68646323 214.48930349 -149.16796875 223.140625 C-147.13630076 227.31711718 -145.95956812 231.86393959 -144.625 236.3125 C-117.895 236.3125 -91.165 236.3125 -63.625 236.3125 C-61.975 230.0425 -60.325 223.7725 -58.625 217.3125 C-55.94587444 211.79350135 -53.3345955 207.1305841 -49.625 202.3125 C-51.20899589 198.41854884 -53.86696943 195.80097765 -56.80908203 192.90136719 C-57.33606689 192.37409027 -57.86305176 191.84681335 -58.40600586 191.30355835 C-60.14357476 189.56737928 -61.88811314 187.838386 -63.6328125 186.109375 C-64.84108322 184.90483563 -66.04891222 183.69985303 -67.25631714 182.4944458 C-70.43137077 179.32701894 -73.61238522 176.16564487 -76.79467773 173.00549316 C-80.04252076 169.77812911 -83.28469133 166.54507772 -86.52734375 163.3125 C-92.88768982 156.97358697 -99.25434753 150.64105376 -105.625 144.3125 C-106.37265625 144.66183594 -107.1203125 145.01117188 -107.890625 145.37109375 C-108.87546875 145.82613281 -109.8603125 146.28117187 -110.875 146.75 C-111.84953125 147.20246094 -112.8240625 147.65492188 -113.828125 148.12109375 C-122.9114787 151.99039945 -134.95161062 151.83527066 -144.125 148.3125 C-154.71981493 143.1021732 -160.14460151 136.11346064 -164.625 125.3125 C-168.31899248 114.23052256 -165.4803039 102.11616685 -160.4921875 92.01953125 C-160.20601563 91.45621094 -159.91984375 90.89289063 -159.625 90.3125 C-160.5770721 89.30653703 -161.53687346 88.30788437 -162.5 87.3125 C-163.03367187 86.755625 -163.56734375 86.19875 -164.1171875 85.625 C-166.69331913 83.38256418 -167.38916362 84.089343 -169.8046875 86.375 Z M166.375 84.3125 C164.395 86.6225 162.415 88.9325 160.375 91.3125 C160.72433594 91.98796875 161.07367188 92.6634375 161.43359375 93.359375 C161.88863281 94.25140625 162.34367187 95.1434375 162.8125 96.0625 C163.26496094 96.94421875 163.71742188 97.8259375 164.18359375 98.734375 C168.04557523 107.09144967 167.67038479 118.67252341 164.75 127.3125 C160.40708632 137.44090359 153.50340359 144.34458632 143.375 148.6875 C130.31444728 153.00473826 118.33381967 150.29190984 106.375 144.3125 C87.895 162.7925 69.415 181.2725 50.375 200.3125 C51.86225855 204.03064636 53.12443318 206.62056998 55.25 209.875 C60.30925596 218.16724391 62.2786765 226.87904423 64.375 236.3125 C91.105 236.3125 117.835 236.3125 145.375 236.3125 C146.365 233.0125 147.355 229.7125 148.375 226.3125 C152.88295216 216.71068148 159.68159916 210.46983652 169.4375 206.375 C178.87361151 203.68856256 190.53837368 203.88295109 199.37890625 208.19140625 C200.03761719 208.56136719 200.69632813 208.93132812 201.375 209.3125 C202.40625 209.869375 203.4375 210.42625 204.5 211 C213.23917922 218.02933981 217.67851631 225.52656523 220.375 236.3125 C223.675 236.3125 226.975 236.3125 230.375 236.3125 C232.02913852 192.99857644 215.62706531 146.30748815 190.375 111.3125 C189.67890625 110.343125 188.9828125 109.37375 188.265625 108.375 C184.20092542 102.84008993 179.94936872 97.46892859 175.5625 92.1875 C175.10641357 91.63070557 174.65032715 91.07391113 174.18041992 90.50024414 C171.65041544 87.50125412 169.97636292 86.11318146 166.375 84.3125 Z M-146.625 93.3125 C-153.21267982 100.35978539 -155.79493901 106.71748217 -155.625 116.3125 C-154.59890151 124.40057045 -150.69271828 130.0032465 -144.625 135.3125 C-138.39553116 139.45784508 -132.08710263 140.92414776 -124.625 140.3125 C-116.65840013 138.15162487 -110.18101239 134.17753725 -105.27734375 127.46875 C-101.8712102 121.51106839 -100.81378931 114.55473296 -102.1015625 107.8203125 C-104.78039623 99.0773057 -109.68168816 93.53140073 -117.3125 88.5625 C-127.94495241 84.55025381 -137.77325965 86.27134291 -146.625 93.3125 Z M107.375 97.3125 C102.86032287 104.19023127 101.32194688 111.37328039 102.765625 119.515625 C104.74100905 126.75869983 109.25560735 132.60845022 115.53515625 136.73046875 C122.73632051 140.45892202 129.92127844 141.46465133 137.8125 139.3125 C144.77570688 136.74647394 150.4675638 131.64364934 153.875 125.0625 C156.97499723 118.11620991 157.39384074 111.48289094 154.8125 104.3125 C151.50178101 96.76173739 146.80375926 91.42576541 139.26953125 88.00390625 C126.77114931 83.44264109 115.94554512 87.67707753 107.375 97.3125 Z M-41.40234375 209.28125 C-50.87966753 221.0495299 -53.64820317 234.53289864 -52.625 249.3125 C-50.39934204 264.53674859 -42.0940146 276.94090299 -29.875 286.125 C-18.26923745 293.79568368 -5.10494805 296.91220361 8.625 294.81640625 C23.80139468 291.6486918 35.84307126 284.14247688 44.62109375 271.21484375 C52.67516011 257.88706801 55.21102954 243.25829572 51.546875 228.140625 C47.59434235 214.17313417 38.59582205 203.70044642 26.5390625 196.0390625 C2.70484318 183.03322924 -23.66190854 189.63030639 -41.40234375 209.28125 Z M-202.96484375 225.05078125 C-207.54529492 231.29097238 -209.39744047 237.8579049 -209.0703125 245.578125 C-207.90372991 252.74135143 -204.00428065 258.95101373 -198.7109375 263.83984375 C-192.93765644 267.91573693 -185.65581077 270.31690154 -178.625 269.3125 C-169.64785426 266.84741005 -163.53956712 263.94982412 -158.8125 255.6875 C-155.14618689 248.73455669 -154.16672612 241.36734571 -156.37890625 233.69921875 C-159.70578165 225.93650949 -164.13631466 221.16945448 -171.625 217.3125 C-183.2580269 213.02664798 -194.66036688 215.82547942 -202.96484375 225.05078125 Z M162.375 224.3125 C157.21584378 232.28318549 155.51185453 238.79425206 156.375 248.3125 C158.70320671 256.38281239 163.09564949 262.00146581 170.296875 266.2421875 C177.5251349 269.96501309 184.16477199 270.19648142 191.8125 267.8125 C199.19819385 264.9211226 204.21783264 260.08375162 207.875 253.0625 C210.31613177 246.70242126 210.58290693 240.06449411 208.4921875 233.5703125 C204.83732104 225.60706042 200.09537882 220.10684756 191.875 216.875 C181.20735407 213.52686656 170.12868038 216.0049853 162.375 224.3125 Z M-229.625 248.3125 C-231.48188652 296.93541752 -211.21145733 348.05595638 -180.625 385.3125 C-180.1496582 385.89999023 -179.67431641 386.48748047 -179.18457031 387.09277344 C-177.71639652 388.90368157 -176.23614759 390.70382329 -174.75 392.5 C-174.07130859 393.33011597 -174.07130859 393.33011597 -173.37890625 394.17700195 C-170.8639778 397.16254108 -169.21253435 398.51873282 -165.625 400.3125 C-162.655 396.8475 -162.655 396.8475 -159.625 393.3125 C-159.97433594 392.63703125 -160.32367188 391.9615625 -160.68359375 391.265625 C-161.13863281 390.37359375 -161.59367187 389.4815625 -162.0625 388.5625 C-162.51496094 387.68078125 -162.96742188 386.7990625 -163.43359375 385.890625 C-167.29557523 377.53355033 -166.92038479 365.95247659 -164 357.3125 C-159.65708632 347.18409641 -152.75340359 340.28041368 -142.625 335.9375 C-129.56444728 331.62026174 -117.58381967 334.33309016 -105.625 340.3125 C-87.145 321.8325 -68.665 303.3525 -49.625 284.3125 C-51.11225855 280.59435364 -52.37443318 278.00443002 -54.5 274.75 C-59.55925596 266.45775609 -61.5286765 257.74595577 -63.625 248.3125 C-90.355 248.3125 -117.085 248.3125 -144.625 248.3125 C-145.945 252.2725 -147.265 256.2325 -148.625 260.3125 C-153.31956357 268.91919988 -159.58084295 274.45555956 -168.6875 278.25 C-178.12361151 280.93643744 -189.78837368 280.74204891 -198.62890625 276.43359375 C-199.28761719 276.06363281 -199.94632813 275.69367188 -200.625 275.3125 C-201.65625 274.755625 -202.6875 274.19875 -203.75 273.625 C-212.48917922 266.59566019 -216.92851631 259.09843477 -219.625 248.3125 C-222.925 248.3125 -226.225 248.3125 -229.625 248.3125 Z M64.375 248.3125 C62.725 254.5825 61.075 260.8525 59.375 267.3125 C56.69587444 272.83149865 54.0845955 277.4944159 50.375 282.3125 C51.95899589 286.20645116 54.61696943 288.82402235 57.55908203 291.72363281 C58.34955933 292.51454819 58.34955933 292.51454819 59.15600586 293.32144165 C60.89357476 295.05762072 62.63811314 296.786614 64.3828125 298.515625 C65.59108322 299.72016437 66.79891222 300.92514697 68.00631714 302.1305542 C71.18137077 305.29798106 74.36238522 308.45935513 77.54467773 311.61950684 C80.79252076 314.84687089 84.03469133 318.07992228 87.27734375 321.3125 C93.63768982 327.65141303 100.00434753 333.98394624 106.375 340.3125 C107.12265625 339.96316406 107.8703125 339.61382812 108.640625 339.25390625 C109.62546875 338.79886719 110.6103125 338.34382813 111.625 337.875 C112.59953125 337.42253906 113.5740625 336.97007812 114.578125 336.50390625 C123.6614787 332.63460055 135.70161062 332.78972934 144.875 336.3125 C155.46981493 341.5228268 160.89460151 348.51153936 165.375 359.3125 C169.06899248 370.39447744 166.2303039 382.50883315 161.2421875 392.60546875 C160.95601563 393.16878906 160.66984375 393.73210937 160.375 394.3125 C162.355 396.2925 164.335 398.2725 166.375 400.3125 C189.25366636 390.5000942 206.71728184 348.37162912 215.40673828 326.74462891 C222.03857217 309.43391032 226.57499423 291.62023002 229.375 273.3125 C229.50777344 272.48878906 229.64054688 271.66507812 229.77734375 270.81640625 C230.80298183 263.3840426 230.4576553 255.79739626 230.375 248.3125 C227.075 248.3125 223.775 248.3125 220.375 248.3125 C220.15585937 249.0859375 219.93671875 249.859375 219.7109375 250.65625 C216.42043938 261.46406497 211.20280789 269.71568223 201.29296875 275.53515625 C192.02316654 280.33343977 181.26454792 280.74782248 171.09375 278.62890625 C161.29448875 275.31202147 155.43646323 270.13569651 149.91796875 261.484375 C147.88630076 257.30788282 146.70956812 252.76106041 145.375 248.3125 C118.645 248.3125 91.915 248.3125 64.375 248.3125 Z M-45.42767334 295.86633301 C-46.20234955 296.65179504 -46.20234955 296.65179504 -46.99267578 297.453125 C-47.53916779 297.99932495 -48.08565979 298.5455249 -48.64871216 299.10827637 C-50.46069058 300.92165233 -52.26547542 302.74201843 -54.0703125 304.5625 C-55.32255223 305.81846835 -56.57523316 307.07399696 -57.82833862 308.32910156 C-61.13059049 311.63900178 -64.42679342 314.95486353 -67.72180176 318.27197266 C-71.08305977 321.65366323 -74.44996327 325.02972238 -77.81640625 328.40625 C-84.42483056 335.03614541 -91.02688273 341.672348 -97.625 348.3125 C-97.27566406 349.06015625 -96.92632812 349.8078125 -96.56640625 350.578125 C-96.11136719 351.56296875 -95.65632813 352.5478125 -95.1875 353.5625 C-94.73503906 354.53703125 -94.28257812 355.5115625 -93.81640625 356.515625 C-89.94710055 365.5989787 -90.10222934 377.63911062 -93.625 386.8125 C-98.8353268 397.40731493 -105.82403936 402.83210151 -116.625 407.3125 C-127.70697744 411.00649248 -139.82133315 408.1678039 -149.91796875 403.1796875 C-150.48128906 402.89351563 -151.04460937 402.60734375 -151.625 402.3125 C-153.605 404.2925 -155.585 406.2725 -157.625 408.3125 C-148.14193133 430.67257772 -107.16737645 447.53575891 -86.625 456.3125 C-80.05976799 458.96681221 -73.39361221 461.23744086 -66.625 463.3125 C-65.49046387 463.66368896 -65.49046387 463.66368896 -64.33300781 464.02197266 C-45.47075546 469.73274954 -25.36646291 473.38605387 -5.625 472.3125 C-5.625 469.0125 -5.625 465.7125 -5.625 462.3125 C-6.3984375 462.09335937 -7.171875 461.87421875 -7.96875 461.6484375 C-18.77656497 458.35793938 -27.02818223 453.14030789 -32.84765625 443.23046875 C-37.64593977 433.96066654 -38.06032248 423.20204792 -35.94140625 413.03125 C-32.62452147 403.23198875 -27.44819651 397.37396323 -18.796875 391.85546875 C-14.62038282 389.82380076 -10.07356041 388.64706812 -5.625 387.3125 C-5.625 360.5825 -5.625 333.8525 -5.625 306.3125 C-11.895 304.6625 -18.165 303.0125 -24.625 301.3125 C-29.45227411 298.96916305 -33.60003021 296.88706964 -37.78515625 293.6328125 C-41.39831737 291.0399283 -42.63286385 293.08773616 -45.42767334 295.86633301 Z M35.375 295.5625 C25.93753487 301.64169832 17.61161839 303.71943422 6.375 306.3125 C6.375 333.0425 6.375 359.7725 6.375 387.3125 C10.335 388.6325 14.295 389.9525 18.375 391.3125 C26.98169988 396.00706357 32.51805956 402.26834295 36.3125 411.375 C38.99893744 420.81111151 38.80454891 432.47587368 34.49609375 441.31640625 C34.12613281 441.97511719 33.75617188 442.63382813 33.375 443.3125 C32.818125 444.34375 32.26125 445.375 31.6875 446.4375 C24.65816019 455.17667922 17.16093477 459.61601631 6.375 462.3125 C6.375 465.6125 6.375 468.9125 6.375 472.3125 C54.98332361 474.16882919 106.13946505 453.91025229 143.375 423.3125 C144.0055127 422.80477051 144.63602539 422.29704102 145.28564453 421.77392578 C147.26526628 420.17620908 149.22846507 418.5603677 151.1875 416.9375 C151.8052832 416.43742432 152.42306641 415.93734863 153.05957031 415.42211914 C154.98289021 413.84240907 154.98289021 413.84240907 157.375 411.3125 C157.81660248 407.4816947 157.81660248 407.4816947 156.0625 405.828125 C155.2271875 405.20164062 155.2271875 405.20164062 154.375 404.5625 C153.385 403.82 152.395 403.0775 151.375 402.3125 C150.69953125 402.66183594 150.0240625 403.01117188 149.328125 403.37109375 C148.43609375 403.82613281 147.5440625 404.28117187 146.625 404.75 C145.74328125 405.20246094 144.8615625 405.65492188 143.953125 406.12109375 C135.59605033 409.98307523 124.01497659 409.60788479 115.375 406.6875 C105.4038896 402.41203137 98.72010071 395.59576684 94 385.875 C90.3392732 375.90797914 91.21405229 364.16258775 95.3046875 354.51171875 C96.31395072 352.43794067 97.34196741 350.37451089 98.375 348.3125 C91.11391339 341.00515508 83.84749516 333.70315913 76.57414436 326.40802002 C73.19732162 323.02074212 69.82239171 319.63162149 66.45166016 316.23828125 C63.2011073 312.96606169 59.94575022 309.69869465 56.68694687 306.43469238 C55.44200714 305.18604577 54.19883444 303.93563491 52.95743179 302.68347168 C51.22376828 300.93537531 49.48403347 299.19355209 47.74267578 297.453125 C47.22622498 296.92948364 46.70977417 296.40584229 46.17767334 295.86633301 C41.58176189 291.29708235 40.54255816 292.06852602 35.375 295.5625 Z M-149.8125 354.4375 C-154.45750465 360.18263733 -155.96222172 366.56852931 -155.625 373.875 C-154.54565985 382.00449818 -150.8241928 388.10324711 -144.36328125 393.09765625 C-138.39795193 397.26668416 -132.85461322 398.4831992 -125.625 398.3125 C-117.03576784 396.6885983 -110.80789136 392.31640724 -105.625 385.3125 C-101.74080881 379.3474921 -101.07304436 372.6632092 -101.95703125 365.6953125 C-103.79698117 358.07435865 -108.28137675 352.52146248 -114.5390625 347.8984375 C-126.78161375 340.89549666 -140.4512425 344.66324584 -149.8125 354.4375 Z M107.375 355.3125 C103.19608428 360.96904337 102.11777192 367.36734181 102.375 374.3125 C104.01807291 382.90496326 108.36014842 389.12150983 115.375 394.3125 C121.17907612 398.0918984 128.08499932 399.12357825 134.875 397.83984375 C143.61159648 395.13917288 149.15308116 390.2604468 154.125 382.625 C156.8423081 375.42413353 157.16755309 368.49008895 154.31640625 361.3046875 C151.19030309 354.68928248 146.74942425 349.16348459 139.91015625 346.26953125 C126.99882888 342.13402339 116.38738305 345.12298937 107.375 355.3125 Z M-19.625 406.3125 C-25.14750086 413.67046762 -27.26335137 420.40897893 -26.15625 429.60546875 C-24.71173111 436.9661422 -20.68265545 442.897788 -14.625 447.3125 C-6.07885559 451.63659396 0.87206124 452.5991379 9.9375 449.75 C17.36937598 446.81636474 22.40639844 441.85088788 25.6484375 434.53515625 C28.51354674 425.77038657 27.46594211 418.48131412 23.375 410.3125 C19.71587947 403.9727051 13.1350945 400.56586483 6.375 398.3125 C-3.65471974 397.39386201 -12.29831927 398.98581927 -19.625 406.3125 Z " fill="#000000" transform="translate(255.625,13.6875)"/>
</svg>
